<svg id="svg" version="1.1" xmlns="http://www.w3.org/2000/svg" xmlns:xlink="http://www.w3.org/1999/xlink" width="400" height="617.1428571428571" viewBox="0, 0, 400,617.1428571428571"><g id="svgg"><path id="path0" d="M6.000 2.800 C 6.000 3.020,5.775 3.203,5.500 3.207 C 4.133 3.226,3.098 5.163,3.280 7.361 C 3.468 9.629,3.396 9.530,7.253 12.800 C 8.161 13.570,9.196 14.535,9.552 14.943 C 10.397 15.912,12.118 17.631,13.057 18.443 C 13.465 18.796,14.096 19.426,14.457 19.843 C 15.741 21.321,29.094 34.400,29.320 34.400 C 29.446 34.400,34.697 39.530,40.990 45.800 C 47.282 52.070,52.693 57.200,53.015 57.200 C 53.337 57.200,53.600 57.352,53.600 57.539 C 53.600 57.859,55.412 59.813,57.051 61.261 C 57.463 61.625,58.361 62.525,59.047 63.261 C 59.733 63.998,60.633 64.898,61.047 65.261 C 61.461 65.625,62.369 66.525,63.065 67.261 C 63.760 67.998,67.115 71.300,70.519 74.600 C 73.924 77.900,81.856 85.685,88.146 91.900 C 94.437 98.115,99.694 103.200,99.830 103.200 C 99.966 103.200,103.687 106.800,108.099 111.200 C 116.003 119.083,116.991 119.816,118.024 118.571 C 120.081 116.092,126.055 115.486,131.600 117.194 C 143.610 120.891,160.393 135.273,172.800 152.498 C 177.718 159.326,179.164 161.405,180.480 163.543 C 181.206 164.722,182.070 166.100,182.400 166.607 C 185.202 170.905,189.751 179.029,193.315 186.097 C 196.004 191.431,196.117 191.585,197.143 191.297 C 200.401 190.382,204.760 191.854,206.246 194.371 C 207.051 195.733,207.016 195.741,212.581 192.931 C 248.127 174.981,275.758 150.133,281.450 131.000 C 282.446 127.651,282.438 122.267,281.434 120.400 C 281.020 119.630,280.308 118.280,279.851 117.400 C 279.134 116.017,267.127 103.600,266.507 103.600 C 266.383 103.600,265.699 103.015,264.989 102.300 C 264.278 101.585,263.360 100.702,262.949 100.339 C 262.537 99.975,261.639 99.075,260.953 98.339 C 260.267 97.602,259.367 96.702,258.953 96.339 C 258.539 95.975,257.633 95.075,256.941 94.339 C 256.249 93.602,252.889 90.300,249.475 87.000 C 246.060 83.700,238.116 75.915,231.820 69.700 C 225.524 63.485,220.229 58.400,220.054 58.400 C 219.879 58.400,218.823 57.455,217.708 56.300 C 216.594 55.145,215.348 53.902,214.941 53.539 C 214.533 53.175,213.639 52.275,212.953 51.539 C 212.267 50.802,211.367 49.902,210.953 49.539 C 210.539 49.175,209.648 48.275,208.974 47.539 C 208.300 46.802,207.246 45.840,206.631 45.400 C 206.017 44.960,205.007 44.105,204.388 43.500 C 203.768 42.895,203.099 42.400,202.900 42.400 C 202.702 42.400,202.117 41.950,201.600 41.400 C 201.083 40.850,200.441 40.400,200.173 40.400 C 199.905 40.400,199.582 40.130,199.455 39.800 C 199.329 39.470,198.949 39.200,198.613 39.200 C 198.276 39.200,198.000 39.011,198.000 38.779 C 198.000 38.548,197.460 38.170,196.800 37.940 C 196.140 37.710,195.600 37.359,195.600 37.161 C 195.600 36.962,195.324 36.800,194.987 36.800 C 194.651 36.800,194.271 36.530,194.145 36.200 C 194.018 35.870,193.686 35.600,193.406 35.600 C 193.127 35.600,192.682 35.339,192.417 35.020 C 192.152 34.702,191.275 34.226,190.468 33.964 C 189.661 33.702,188.856 33.242,188.680 32.943 C 188.504 32.645,188.099 32.400,187.780 32.400 C 187.461 32.400,187.200 32.234,187.200 32.032 C 187.200 31.829,186.660 31.545,186.000 31.400 C 185.340 31.255,184.800 30.971,184.800 30.768 C 184.800 30.566,184.578 30.400,184.306 30.400 C 183.769 30.400,179.526 28.368,179.200 27.954 C 179.090 27.815,178.415 27.574,177.700 27.418 C 176.985 27.263,176.400 26.989,176.400 26.808 C 176.400 26.628,175.500 26.264,174.400 26.000 C 173.300 25.736,172.400 25.358,172.400 25.160 C 172.400 24.962,171.990 24.800,171.489 24.800 C 170.988 24.800,170.223 24.553,169.789 24.251 C 169.355 23.949,168.415 23.575,167.700 23.419 C 166.985 23.264,166.400 22.999,166.400 22.832 C 166.400 22.664,165.365 22.299,164.100 22.019 C 162.835 21.740,161.620 21.367,161.400 21.191 C 161.180 21.015,160.325 20.745,159.500 20.591 C 158.675 20.437,158.000 20.157,158.000 19.969 C 158.000 19.781,157.100 19.508,156.000 19.362 C 154.900 19.216,154.000 18.956,154.000 18.785 C 154.000 18.613,152.740 18.260,151.200 18.000 C 149.660 17.740,148.400 17.382,148.400 17.203 C 148.400 17.025,147.320 16.753,146.000 16.600 C 144.680 16.447,143.600 16.176,143.600 15.998 C 143.600 15.821,142.655 15.548,141.500 15.393 C 140.345 15.237,139.220 14.970,139.000 14.797 C 138.780 14.625,136.935 14.251,134.900 13.966 C 132.865 13.680,131.200 13.322,131.200 13.170 C 131.200 13.018,129.985 12.765,128.500 12.607 C 127.015 12.450,125.620 12.181,125.400 12.009 C 125.180 11.838,123.740 11.568,122.200 11.409 C 120.660 11.251,119.220 10.975,119.000 10.797 C 118.780 10.618,116.125 10.244,113.100 9.964 C 110.075 9.685,107.600 9.326,107.600 9.167 C 107.600 9.007,105.710 8.748,103.400 8.591 C 101.090 8.433,99.200 8.168,99.200 8.000 C 99.200 7.833,97.085 7.566,94.500 7.407 C 91.915 7.247,89.620 6.975,89.400 6.800 C 89.180 6.626,84.770 6.252,79.600 5.970 C 74.430 5.688,70.110 5.326,69.999 5.166 C 69.889 5.006,65.659 4.743,60.599 4.583 C 55.540 4.422,51.304 4.143,51.186 3.962 C 51.069 3.781,43.284 3.506,33.886 3.352 C 24.489 3.198,16.800 2.921,16.800 2.736 C 16.800 2.551,14.370 2.400,11.400 2.400 C 8.067 2.400,6.000 2.553,6.000 2.800 " stroke="none" fill="#e8472d" fill-rule="evenodd"></path><path id="path1" d="M185.600 206.075 C 156.504 221.178,134.906 238.375,123.238 255.732 C 116.610 265.592,114.669 275.366,118.399 280.108 C 118.840 280.668,119.200 281.343,119.200 281.609 C 119.200 282.122,131.589 294.782,132.102 294.793 C 132.268 294.797,137.317 299.713,143.322 305.719 C 149.327 311.724,154.951 317.168,155.820 317.816 C 156.689 318.465,157.538 319.210,157.706 319.473 C 158.013 319.953,159.671 321.629,161.057 322.861 C 161.465 323.225,162.361 324.125,163.047 324.861 C 163.733 325.598,164.633 326.489,165.047 326.843 C 165.461 327.196,166.093 327.826,166.451 328.243 C 167.353 329.292,190.628 351.749,194.000 354.823 C 194.990 355.726,196.295 356.725,196.900 357.043 C 197.505 357.360,198.000 357.796,198.000 358.010 C 198.000 358.225,198.276 358.400,198.613 358.400 C 198.949 358.400,199.329 358.670,199.455 359.000 C 199.582 359.330,199.929 359.600,200.227 359.600 C 200.525 359.600,201.091 359.945,201.484 360.368 C 201.878 360.790,202.682 361.256,203.271 361.404 C 203.860 361.551,204.439 361.926,204.559 362.236 C 204.678 362.546,205.051 362.800,205.387 362.800 C 205.724 362.800,206.000 362.975,206.000 363.188 C 206.000 363.402,206.945 364.046,208.100 364.620 C 210.908 366.014,212.556 366.942,212.804 367.268 C 212.916 367.416,213.501 367.660,214.104 367.812 C 214.707 367.963,215.200 368.247,215.200 368.443 C 215.200 368.640,215.422 368.800,215.694 368.800 C 216.323 368.800,220.556 370.900,220.733 371.300 C 220.807 371.465,221.169 371.600,221.539 371.600 C 221.909 371.600,222.839 371.936,223.606 372.347 C 224.373 372.757,225.585 373.222,226.300 373.378 C 227.015 373.535,227.600 373.806,227.600 373.981 C 227.600 374.155,228.320 374.413,229.200 374.554 C 230.080 374.694,230.800 374.972,230.800 375.170 C 230.800 375.368,231.520 375.651,232.400 375.800 C 233.280 375.949,234.000 376.214,234.000 376.390 C 234.000 376.566,235.170 376.930,236.600 377.200 C 238.030 377.470,239.200 377.834,239.200 378.010 C 239.200 378.186,239.919 378.451,240.798 378.600 C 241.677 378.748,242.491 379.024,242.607 379.212 C 242.724 379.400,243.627 379.675,244.614 379.823 C 245.602 379.971,246.501 380.240,246.613 380.421 C 246.725 380.603,248.163 380.977,249.808 381.253 C 251.454 381.530,252.800 381.884,252.800 382.040 C 252.800 382.197,253.700 382.449,254.800 382.600 C 255.899 382.751,256.889 383.020,256.999 383.198 C 257.109 383.376,258.279 383.647,259.599 383.800 C 260.920 383.953,262.000 384.212,262.000 384.375 C 262.000 384.537,263.800 384.909,266.000 385.200 C 268.200 385.491,270.000 385.868,270.000 386.037 C 270.000 386.207,271.440 386.471,273.200 386.624 C 274.960 386.778,276.400 387.048,276.400 387.224 C 276.400 387.401,277.840 387.671,279.600 387.824 C 281.360 387.978,282.800 388.233,282.800 388.391 C 282.800 388.549,285.275 388.898,288.300 389.166 C 291.325 389.434,294.091 389.807,294.446 389.996 C 294.801 390.185,297.006 390.467,299.346 390.624 C 301.686 390.781,303.600 391.043,303.600 391.206 C 303.600 391.370,305.895 391.634,308.700 391.793 C 311.505 391.953,313.980 392.226,314.200 392.400 C 314.420 392.575,319.190 392.930,324.800 393.190 C 330.410 393.449,335.290 393.813,335.645 394.000 C 336.000 394.186,341.220 394.465,347.245 394.620 C 353.270 394.776,358.380 395.042,358.600 395.212 C 359.610 395.994,393.810 395.840,394.603 395.051 C 396.180 393.481,395.941 389.927,394.145 388.232 C 393.295 387.430,387.421 381.650,381.091 375.387 C 374.762 369.124,369.452 363.998,369.291 363.995 C 369.131 363.992,367.804 362.777,366.343 361.295 C 364.882 359.813,363.352 358.302,362.943 357.939 C 362.534 357.575,361.632 356.675,360.939 355.939 C 360.245 355.202,356.529 351.540,352.681 347.800 C 348.833 344.060,340.536 335.915,334.244 329.700 C 327.952 323.485,322.693 318.400,322.557 318.400 C 322.421 318.400,319.648 315.745,316.394 312.500 C 304.550 300.689,299.346 295.600,299.111 295.600 C 298.979 295.600,295.270 292.000,290.869 287.600 C 282.417 279.150,282.271 279.053,280.273 280.561 C 270.420 287.995,247.894 274.174,228.181 248.600 C 224.317 243.588,214.800 229.633,214.800 228.981 C 214.800 228.839,214.465 228.246,214.057 227.662 C 213.648 227.078,212.770 225.610,212.106 224.400 C 211.442 223.190,209.950 220.490,208.791 218.400 C 207.632 216.310,205.848 212.890,204.826 210.800 L 202.969 207.000 201.228 207.555 C 198.241 208.509,194.906 207.004,192.303 203.528 C 191.847 202.919,191.223 203.156,185.600 206.075 " stroke="none" fill="#04b348" fill-rule="evenodd"></path><path id="path2" d="M123.911 116.693 C 124.851 116.778,126.291 116.777,127.111 116.691 C 127.930 116.605,127.160 116.536,125.400 116.537 C 123.640 116.539,122.970 116.609,123.911 116.693 M157.600 135.400 C 158.795 136.610,159.863 137.600,159.973 137.600 C 160.083 137.600,159.195 136.610,158.000 135.400 C 156.805 134.190,155.737 133.200,155.627 133.200 C 155.517 133.200,156.405 134.190,157.600 135.400 M90.000 170.833 C 77.916 171.985,64.606 176.643,57.043 182.367 C 55.566 183.485,54.258 184.400,54.137 184.400 C 54.015 184.400,53.381 184.850,52.727 185.400 C 52.073 185.950,51.313 186.400,51.037 186.400 C 50.761 186.400,50.294 186.850,50.000 187.400 C 49.706 187.950,49.349 188.400,49.208 188.400 C 48.838 188.400,47.531 189.681,46.600 190.955 C 46.160 191.557,45.030 192.894,44.088 193.925 C 43.147 194.956,41.887 196.520,41.289 197.400 C 40.691 198.280,39.977 199.144,39.701 199.320 C 39.426 199.496,39.200 199.882,39.200 200.177 C 39.200 200.473,38.930 200.818,38.600 200.945 C 38.270 201.071,38.000 201.423,38.000 201.726 C 38.000 202.211,37.658 202.720,36.024 204.666 C 35.808 204.922,35.519 205.584,35.380 206.137 C 35.241 206.690,34.891 207.233,34.602 207.344 C 34.312 207.455,33.954 208.098,33.806 208.773 C 33.658 209.448,33.371 210.000,33.168 210.000 C 32.966 210.000,32.800 210.276,32.800 210.613 C 32.800 210.949,32.541 211.324,32.224 211.446 C 31.908 211.567,31.534 212.192,31.393 212.833 C 31.252 213.475,30.941 214.000,30.702 214.000 C 30.462 214.000,30.375 214.108,30.507 214.240 C 30.639 214.372,30.219 215.456,29.573 216.649 C 28.928 217.842,28.400 219.084,28.400 219.409 C 28.400 219.734,28.220 220.000,28.000 220.000 C 27.780 220.000,27.600 220.232,27.600 220.515 C 27.600 220.799,27.250 221.716,26.823 222.554 C 26.396 223.392,25.932 224.601,25.791 225.239 C 25.651 225.878,25.371 226.400,25.168 226.400 C 24.966 226.400,24.800 226.837,24.800 227.371 C 24.800 227.906,24.552 228.591,24.248 228.895 C 23.945 229.198,23.569 230.201,23.413 231.123 C 23.257 232.045,22.983 232.800,22.805 232.800 C 22.626 232.800,22.258 233.745,21.988 234.900 C 21.717 236.055,21.360 237.180,21.194 237.400 C 21.028 237.620,20.759 238.430,20.596 239.200 C 20.433 239.970,20.181 240.690,20.036 240.800 C 19.890 240.910,19.565 241.900,19.313 243.000 C 18.518 246.471,17.588 249.777,17.221 250.441 C 17.026 250.794,16.739 251.964,16.583 253.041 C 16.427 254.119,16.158 255.180,15.985 255.400 C 15.645 255.832,15.115 258.150,14.062 263.800 C 13.693 265.780,13.276 267.580,13.136 267.800 C 12.995 268.020,12.749 269.280,12.590 270.600 C 12.431 271.920,12.188 273.180,12.050 273.400 C 11.811 273.782,11.457 275.785,10.212 283.800 C 9.905 285.780,9.641 288.255,9.627 289.300 C 9.612 290.345,9.437 291.200,9.237 291.200 C 9.038 291.200,8.760 292.955,8.620 295.100 C 8.479 297.245,8.212 299.281,8.026 299.625 C 7.840 299.968,7.557 302.218,7.397 304.625 C 7.237 307.031,6.972 309.180,6.809 309.400 C 6.645 309.620,6.493 310.430,6.470 311.200 C 6.447 311.970,6.243 315.030,6.015 318.000 C 5.788 320.970,5.602 324.600,5.601 326.067 C 5.600 327.533,5.435 328.793,5.234 328.867 C 5.033 328.940,4.738 333.140,4.579 338.200 C 4.421 343.260,4.143 347.496,3.963 347.613 C 3.783 347.730,3.513 355.470,3.364 364.813 C 3.215 374.156,2.953 381.980,2.783 382.200 C 2.269 382.863,2.598 392.086,3.175 393.200 C 4.194 395.165,8.800 396.803,8.800 395.200 C 8.800 394.980,9.010 394.800,9.266 394.800 C 9.746 394.800,15.582 389.208,15.594 388.737 C 15.597 388.592,20.685 383.312,26.900 377.002 C 36.787 366.965,41.721 361.926,52.300 351.056 C 53.675 349.644,54.800 348.558,54.800 348.644 C 54.800 348.821,55.063 348.551,59.161 344.167 C 62.814 340.259,80.803 321.851,95.900 306.573 C 102.115 300.283,107.200 295.013,107.200 294.860 C 107.200 294.629,110.863 290.890,116.600 285.264 C 119.143 282.770,119.751 281.588,118.792 280.995 C 117.485 280.187,116.400 276.772,116.400 273.464 C 116.400 254.783,146.500 225.390,185.486 206.000 L 191.518 203.000 191.308 200.935 C 191.008 197.982,191.436 196.286,193.033 194.109 L 194.434 192.200 193.075 193.700 C 191.418 195.528,191.584 195.526,187.736 193.765 C 186.011 192.975,184.015 192.075,183.300 191.765 C 182.585 191.454,181.415 190.941,180.700 190.625 C 178.626 189.708,174.357 187.941,172.400 187.191 C 157.642 181.534,148.110 178.374,137.800 175.721 C 120.619 171.300,103.484 169.548,90.000 170.833 " stroke="none" fill="#047ceb" fill-rule="evenodd"></path><path id="path3" d="M377.600 16.013 C 356.093 37.883,345.848 48.377,344.600 49.810 C 343.476 51.101,342.302 52.305,339.400 55.140 C 338.740 55.785,337.915 56.648,337.567 57.057 C 337.220 57.465,336.320 58.362,335.567 59.048 C 334.815 59.735,333.911 60.635,333.557 61.048 C 333.204 61.462,332.574 62.092,332.157 62.449 C 331.741 62.806,328.700 65.920,325.400 69.370 C 322.100 72.819,314.945 80.122,309.500 85.597 C 304.055 91.073,299.600 95.668,299.600 95.808 C 299.600 95.949,295.100 100.567,289.600 106.071 C 279.740 115.939,278.944 116.958,280.255 118.045 C 282.598 119.990,283.124 126.478,281.373 131.849 C 275.045 151.261,248.391 174.984,212.410 193.227 L 207.618 195.657 207.866 198.023 C 208.200 201.222,207.316 203.478,204.892 205.612 L 203.044 207.239 204.559 210.319 C 205.861 212.968,207.976 216.913,212.322 224.800 C 212.868 225.790,213.649 227.078,214.057 227.662 C 214.466 228.246,214.800 228.839,214.800 228.981 C 214.800 229.633,224.317 243.588,228.181 248.600 C 247.894 274.174,270.420 287.995,280.273 280.561 C 280.974 280.032,281.647 279.600,281.769 279.600 C 282.200 279.600,284.845 277.192,286.443 275.343 C 286.796 274.935,287.426 274.307,287.843 273.950 C 288.259 273.592,291.093 270.712,294.139 267.550 C 301.182 260.238,318.608 242.416,331.830 229.000 C 337.468 223.280,343.096 217.450,344.338 216.044 C 345.580 214.639,348.363 211.669,350.524 209.444 C 356.099 203.706,356.800 202.923,356.800 202.434 C 356.800 202.195,356.950 202.000,357.132 202.000 C 357.315 202.000,357.720 201.506,358.032 200.903 C 358.345 200.300,359.005 199.424,359.500 198.957 C 359.995 198.490,360.400 197.966,360.400 197.792 C 360.400 197.618,360.850 196.886,361.400 196.164 C 361.950 195.443,362.400 194.661,362.400 194.427 C 362.400 194.192,362.580 194.000,362.800 194.000 C 363.020 194.000,363.200 193.758,363.200 193.461 C 363.200 193.165,363.560 192.507,364.000 192.000 C 364.440 191.493,364.800 190.835,364.800 190.539 C 364.800 190.242,364.966 190.000,365.169 190.000 C 365.372 190.000,365.746 189.370,366.000 188.600 C 366.254 187.830,366.614 187.200,366.799 187.200 C 366.985 187.200,367.255 186.660,367.400 186.000 C 367.545 185.340,367.815 184.800,368.000 184.800 C 368.185 184.800,368.455 184.260,368.600 183.600 C 368.745 182.940,369.029 182.400,369.232 182.400 C 369.434 182.400,369.600 182.157,369.600 181.860 C 369.600 181.562,370.050 180.473,370.600 179.438 C 371.150 178.404,371.600 177.207,371.600 176.779 C 371.600 176.350,371.745 176.000,371.923 176.000 C 372.340 176.000,373.419 173.527,374.062 171.100 C 374.339 170.055,374.700 169.200,374.865 169.200 C 375.029 169.200,375.282 168.570,375.426 167.800 C 375.571 167.030,375.829 166.400,376.000 166.400 C 376.171 166.400,376.437 165.725,376.591 164.900 C 376.745 164.075,377.015 163.220,377.191 163.000 C 377.367 162.780,377.740 161.565,378.019 160.300 C 378.299 159.035,378.658 158.000,378.818 158.000 C 378.978 158.000,379.231 157.190,379.379 156.200 C 379.528 155.210,379.795 154.400,379.973 154.400 C 380.151 154.400,380.416 153.500,380.562 152.400 C 380.708 151.300,380.970 150.400,381.143 150.400 C 381.317 150.400,381.702 148.960,382.000 147.200 C 382.298 145.440,382.681 144.000,382.851 144.000 C 383.021 144.000,383.282 142.920,383.432 141.600 C 383.581 140.280,383.842 139.200,384.012 139.200 C 384.182 139.200,384.447 138.120,384.600 136.799 C 384.753 135.479,385.020 134.311,385.194 134.204 C 385.367 134.097,385.738 132.207,386.019 130.005 C 386.300 127.802,386.657 126.000,386.813 126.000 C 386.969 126.000,387.222 124.560,387.376 122.800 C 387.529 121.040,387.803 119.600,387.985 119.600 C 388.167 119.600,388.444 117.935,388.602 115.900 C 388.760 113.865,389.038 112.014,389.222 111.786 C 389.405 111.558,389.766 108.948,390.024 105.986 C 390.282 103.024,390.636 100.420,390.812 100.200 C 390.987 99.980,391.261 97.685,391.420 95.100 C 391.579 92.515,391.847 90.400,392.016 90.400 C 392.185 90.400,392.454 87.696,392.614 84.392 C 392.773 81.087,393.027 78.307,393.179 78.213 C 393.331 78.119,393.496 77.088,393.545 75.921 C 393.595 74.755,393.805 70.830,394.012 67.200 C 394.219 63.570,394.391 58.950,394.394 56.933 C 394.397 54.917,394.570 53.207,394.779 53.133 C 395.002 53.055,395.274 46.537,395.441 37.285 C 395.597 28.642,395.877 21.476,396.063 21.361 C 396.248 21.247,396.400 17.776,396.400 13.649 L 396.400 6.145 395.090 4.673 C 393.949 3.390,393.548 3.200,391.990 3.200 L 390.200 3.200 377.600 16.013 M121.074 117.180 C 120.455 117.381,119.342 118.007,118.601 118.572 C 117.860 119.138,116.871 119.600,116.403 119.600 C 115.935 119.600,115.664 119.780,115.800 120.000 C 115.936 120.220,115.889 120.400,115.695 120.400 C 115.502 120.400,114.498 121.210,113.465 122.200 C 112.431 123.190,111.643 124.000,111.713 124.000 C 111.989 124.000,105.288 130.942,95.300 141.002 C 89.525 146.819,84.800 151.679,84.800 151.802 C 84.800 151.926,79.670 157.159,73.400 163.431 C 67.130 169.704,62.000 174.942,62.000 175.072 C 62.000 175.202,60.335 176.972,58.300 179.004 C 52.639 184.659,50.920 186.537,51.833 186.070 C 52.291 185.835,52.898 185.364,53.182 185.022 C 53.466 184.680,53.846 184.400,54.028 184.400 C 54.209 184.400,55.566 183.485,57.043 182.367 C 71.160 171.682,94.942 167.900,120.800 172.227 C 137.967 175.100,149.843 178.544,172.400 187.191 C 174.357 187.941,178.626 189.708,180.700 190.625 C 181.415 190.941,182.585 191.454,183.300 191.765 C 184.015 192.075,186.011 192.975,187.736 193.765 C 191.602 195.534,191.219 195.560,193.389 193.389 C 195.581 191.198,195.572 191.504,193.565 187.479 C 187.317 174.947,177.636 159.151,171.699 151.800 C 171.521 151.580,170.842 150.680,170.190 149.800 C 169.538 148.920,168.913 148.110,168.801 148.000 C 168.689 147.890,167.263 146.180,165.632 144.200 C 161.106 138.705,153.161 130.916,148.090 127.000 C 147.805 126.780,147.353 126.420,147.086 126.200 C 138.716 119.312,127.016 115.255,121.074 117.180 M135.393 240.900 L 131.000 245.400 135.500 241.007 C 139.680 236.926,140.182 236.400,139.893 236.400 C 139.834 236.400,137.809 238.425,135.393 240.900 M116.406 276.233 C 116.409 276.655,116.595 277.270,116.818 277.600 C 117.115 278.038,117.152 277.876,116.956 277.000 C 116.627 275.529,116.398 275.210,116.406 276.233 M2.520 388.400 C 2.520 389.610,2.595 390.105,2.687 389.500 C 2.778 388.895,2.778 387.905,2.687 387.300 C 2.595 386.695,2.520 387.190,2.520 388.400 " stroke="none" fill="#07c6de" fill-rule="evenodd"></path><path id="path4" d="M124.305 116.283 C 124.802 116.379,125.522 116.375,125.905 116.275 C 126.287 116.175,125.880 116.096,125.000 116.101 C 124.120 116.105,123.807 116.187,124.305 116.283 M129.000 116.800 C 129.440 116.989,130.160 117.138,130.600 117.132 C 131.243 117.123,131.204 117.057,130.400 116.800 C 129.032 116.362,127.981 116.362,129.000 116.800 M132.800 117.734 C 132.800 117.837,133.381 118.124,134.091 118.372 C 134.801 118.619,135.206 118.657,134.991 118.456 C 134.535 118.029,132.800 117.458,132.800 117.734 M138.400 120.179 C 138.400 120.289,138.940 120.659,139.600 121.000 C 140.260 121.341,140.800 121.531,140.800 121.421 C 140.800 121.311,140.260 120.941,139.600 120.600 C 138.940 120.259,138.400 120.069,138.400 120.179 M145.986 125.074 C 150.091 128.409,151.870 129.710,150.154 128.123 C 149.249 127.285,147.629 126.003,146.554 125.274 C 145.053 124.256,144.921 124.209,145.986 125.074 M153.800 131.600 C 154.659 132.480,155.452 133.200,155.562 133.200 C 155.672 133.200,155.059 132.480,154.200 131.600 C 153.341 130.720,152.548 130.000,152.438 130.000 C 152.328 130.000,152.941 130.720,153.800 131.600 M161.583 139.300 C 162.564 140.345,163.419 141.200,163.483 141.200 C 163.784 141.200,163.466 140.841,161.700 139.183 L 159.800 137.400 161.583 139.300 M164.000 142.125 C 164.000 142.194,164.585 142.779,165.300 143.425 L 166.600 144.600 165.425 143.300 C 164.330 142.088,164.000 141.816,164.000 142.125 M168.831 147.800 C 171.797 151.597,173.034 152.925,171.253 150.400 C 170.555 149.410,169.162 147.700,168.157 146.600 C 166.803 145.117,166.977 145.427,168.831 147.800 M268.175 152.500 L 267.000 153.800 268.300 152.625 C 269.015 151.979,269.600 151.394,269.600 151.325 C 269.600 151.016,269.270 151.288,268.175 152.500 M262.992 158.100 L 259.400 161.800 263.100 158.208 C 266.536 154.872,266.982 154.400,266.692 154.400 C 266.632 154.400,264.967 156.065,262.992 158.100 M175.785 157.100 C 176.402 158.035,176.983 158.800,177.076 158.800 C 177.364 158.800,175.833 156.366,175.232 155.869 C 174.920 155.611,175.168 156.165,175.785 157.100 M257.375 163.300 L 256.200 164.600 257.500 163.425 C 258.215 162.779,258.800 162.194,258.800 162.125 C 258.800 161.816,258.470 162.088,257.375 163.300 M247.600 171.249 C 246.206 172.471,246.205 172.472,247.488 171.619 C 248.196 171.148,248.882 170.591,249.012 170.381 C 249.397 169.757,249.077 169.954,247.600 171.249 M197.420 191.201 C 196.771 191.406,196.167 191.500,196.077 191.410 C 195.731 191.064,192.363 194.791,191.797 196.146 C 188.939 202.986,196.412 210.257,202.895 206.944 C 206.464 205.121,208.515 201.263,207.734 197.847 C 207.439 196.560,207.447 195.902,207.760 195.561 C 208.090 195.202,208.041 195.138,207.564 195.304 C 207.147 195.449,206.693 195.127,206.245 194.368 C 204.821 191.957,200.235 190.311,197.420 191.201 M261.200 449.096 C 259.619 449.711,259.626 449.564,259.613 481.114 C 259.598 517.186,259.029 513.600,264.766 513.600 C 270.030 513.600,269.598 514.865,269.612 499.420 C 269.624 486.788,269.991 480.512,270.745 480.025 C 270.936 479.901,271.228 479.365,271.394 478.834 C 271.729 477.762,273.909 475.600,274.656 475.600 C 274.918 475.600,275.193 475.465,275.267 475.300 C 275.949 473.764,285.077 472.541,285.930 473.871 C 286.079 474.103,286.641 474.430,287.180 474.598 C 288.320 474.955,291.080 477.786,291.453 478.981 C 291.593 479.431,291.909 479.928,292.154 480.085 C 292.466 480.285,292.638 485.077,292.726 496.038 C 292.879 515.154,292.419 513.674,298.155 513.513 L 302.200 513.400 302.200 495.600 C 302.200 477.964,302.192 477.783,301.300 475.922 C 300.805 474.889,300.400 473.873,300.400 473.665 C 300.400 473.456,300.130 473.182,299.800 473.055 C 299.470 472.929,299.200 472.642,299.200 472.417 C 299.200 471.949,298.144 470.583,297.055 469.643 C 296.646 469.289,296.106 468.810,295.855 468.578 C 295.605 468.345,295.085 468.036,294.700 467.890 C 294.315 467.744,294.000 467.454,294.000 467.244 C 294.000 467.035,293.415 466.737,292.700 466.582 C 291.985 466.426,291.271 466.097,291.114 465.850 C 290.706 465.207,276.879 465.224,276.481 465.868 C 276.322 466.126,275.699 466.460,275.096 466.612 C 274.493 466.763,274.000 467.047,274.000 467.243 C 274.000 467.440,273.724 467.600,273.387 467.600 C 273.051 467.600,272.674 467.863,272.550 468.185 C 272.427 468.506,271.984 468.878,271.565 469.011 C 271.147 469.144,270.534 469.523,270.202 469.855 C 269.666 470.391,269.600 469.332,269.600 460.173 C 269.600 450.847,269.535 449.839,268.900 449.357 C 268.189 448.817,262.420 448.622,261.200 449.096 M64.880 450.080 C 64.616 450.344,64.400 450.794,64.400 451.080 C 64.400 451.366,64.240 451.600,64.045 451.600 C 63.849 451.600,63.571 452.230,63.426 453.000 C 63.282 453.770,63.021 454.400,62.846 454.400 C 62.671 454.400,62.290 455.390,62.000 456.600 C 61.710 457.810,61.321 458.800,61.136 458.800 C 60.951 458.800,60.800 459.210,60.800 459.711 C 60.800 460.212,60.553 460.977,60.251 461.411 C 59.949 461.845,59.575 462.785,59.419 463.500 C 59.264 464.215,58.999 464.800,58.832 464.800 C 58.664 464.800,58.306 465.790,58.035 467.000 C 57.764 468.210,57.396 469.200,57.216 469.200 C 57.036 469.200,56.771 469.830,56.626 470.600 C 56.482 471.370,56.203 472.000,56.006 472.000 C 55.810 472.000,55.528 472.810,55.379 473.800 C 55.231 474.790,54.968 475.600,54.794 475.600 C 54.621 475.600,54.264 476.500,54.000 477.600 C 53.736 478.700,53.374 479.600,53.195 479.600 C 53.017 479.600,52.749 480.320,52.600 481.200 C 52.451 482.080,52.180 482.800,51.997 482.800 C 51.813 482.800,51.538 483.385,51.386 484.100 C 51.233 484.815,50.972 485.580,50.805 485.800 C 50.639 486.020,50.266 487.145,49.976 488.300 C 49.686 489.455,49.311 490.400,49.143 490.400 C 48.974 490.400,48.718 491.030,48.574 491.800 C 48.429 492.570,48.171 493.200,48.000 493.200 C 47.829 493.200,47.571 493.830,47.426 494.600 C 47.282 495.370,47.026 496.000,46.857 496.000 C 46.689 496.000,46.314 496.945,46.024 498.100 C 45.734 499.255,45.361 500.380,45.195 500.600 C 45.028 500.820,44.767 501.585,44.614 502.300 C 44.462 503.015,44.171 503.600,43.968 503.600 C 43.766 503.600,43.600 503.880,43.600 504.222 C 43.600 504.564,43.237 505.641,42.793 506.615 C 40.386 511.898,41.192 513.600,46.101 513.600 C 50.122 513.600,51.600 512.777,51.600 510.538 C 51.600 510.022,51.772 509.600,51.982 509.600 C 52.192 509.600,52.482 508.970,52.626 508.200 C 52.771 507.430,53.036 506.800,53.216 506.800 C 53.396 506.800,53.764 505.810,54.035 504.600 C 54.306 503.390,54.671 502.400,54.846 502.400 C 55.021 502.400,55.282 501.770,55.426 501.000 L 55.689 499.600 70.073 499.600 C 85.798 499.600,85.268 499.519,85.741 502.010 C 85.886 502.775,86.256 503.883,86.564 504.473 C 86.873 505.063,87.246 506.098,87.394 506.773 C 87.542 507.448,87.809 508.000,87.987 508.000 C 88.165 508.000,88.429 508.630,88.574 509.400 C 88.718 510.170,88.971 510.800,89.135 510.800 C 89.300 510.800,89.607 511.385,89.817 512.100 L 90.200 513.400 93.800 513.518 C 99.011 513.688,99.200 513.606,99.200 511.192 C 99.200 510.097,99.033 509.200,98.829 509.200 C 98.624 509.200,98.236 508.210,97.965 507.000 C 97.694 505.790,97.336 504.800,97.168 504.800 C 97.001 504.800,96.738 504.215,96.586 503.500 C 96.433 502.785,96.169 502.020,96.000 501.800 C 95.831 501.580,95.567 500.815,95.414 500.100 C 95.262 499.385,94.999 498.800,94.832 498.800 C 94.665 498.800,94.290 497.810,94.000 496.600 C 93.710 495.390,93.341 494.400,93.181 494.400 C 93.020 494.400,92.771 493.770,92.626 493.000 C 92.482 492.230,92.192 491.600,91.982 491.600 C 91.772 491.600,91.600 491.190,91.600 490.689 C 91.600 490.188,91.356 489.423,91.057 488.989 C 90.758 488.555,90.290 487.255,90.017 486.100 C 89.744 484.945,89.374 484.000,89.195 484.000 C 89.017 484.000,88.749 483.280,88.600 482.400 C 88.451 481.520,88.180 480.800,87.997 480.800 C 87.813 480.800,87.536 480.215,87.381 479.500 C 87.225 478.785,86.851 477.845,86.549 477.411 C 86.247 476.977,85.994 476.257,85.986 475.811 C 85.979 475.365,85.625 474.280,85.200 473.400 C 84.775 472.520,84.421 471.485,84.414 471.100 C 84.406 470.715,84.240 470.400,84.045 470.400 C 83.849 470.400,83.571 469.770,83.426 469.000 C 83.282 468.230,82.992 467.600,82.782 467.600 C 82.572 467.600,82.397 467.285,82.394 466.900 C 82.388 466.189,81.600 463.730,81.144 463.000 C 81.006 462.780,80.769 462.015,80.615 461.300 C 80.462 460.585,80.191 460.000,80.013 460.000 C 79.835 460.000,79.571 459.370,79.426 458.600 C 79.282 457.830,79.003 457.200,78.806 457.200 C 78.610 457.200,78.326 456.381,78.176 455.380 C 78.026 454.379,77.655 453.312,77.352 453.009 C 77.048 452.705,76.800 452.124,76.800 451.717 C 76.800 449.777,66.586 448.374,64.880 450.080 M71.381 463.900 C 71.536 464.615,71.809 465.200,71.987 465.200 C 72.165 465.200,72.429 465.830,72.574 466.600 C 72.718 467.370,72.997 468.000,73.194 468.000 C 73.390 468.000,73.674 468.819,73.824 469.820 C 73.974 470.821,74.323 471.866,74.600 472.143 C 74.877 472.420,75.231 473.401,75.387 474.323 C 75.543 475.245,75.826 476.000,76.017 476.000 C 76.208 476.000,76.482 476.630,76.626 477.400 C 76.771 478.170,77.015 478.800,77.169 478.800 C 77.323 478.800,77.688 479.745,77.981 480.900 C 78.273 482.055,78.757 483.355,79.056 483.789 C 79.355 484.223,79.600 484.988,79.600 485.489 C 79.600 485.990,79.760 486.400,79.955 486.400 C 80.151 486.400,80.429 487.030,80.574 487.800 C 80.718 488.570,81.008 489.200,81.218 489.200 C 81.428 489.200,81.600 489.560,81.600 490.000 C 81.600 490.781,81.333 490.800,70.368 490.800 L 59.136 490.800 59.417 489.500 C 59.571 488.785,59.850 488.142,60.036 488.071 C 60.222 488.000,60.490 487.325,60.632 486.571 C 60.773 485.817,61.020 485.200,61.181 485.200 C 61.341 485.200,61.718 484.165,62.018 482.900 C 62.319 481.635,62.797 480.362,63.082 480.071 C 63.367 479.781,63.600 479.106,63.600 478.571 C 63.600 478.037,63.760 477.600,63.955 477.600 C 64.151 477.600,64.429 476.970,64.574 476.200 C 64.718 475.430,64.979 474.800,65.154 474.800 C 65.329 474.800,65.694 473.810,65.965 472.600 C 66.236 471.390,66.604 470.400,66.783 470.400 C 66.963 470.400,67.231 469.590,67.379 468.600 C 67.528 467.610,67.810 466.800,68.006 466.800 C 68.203 466.800,68.482 466.170,68.626 465.400 C 68.771 464.630,69.041 464.000,69.226 464.000 C 69.412 464.000,69.684 463.361,69.830 462.580 C 70.142 460.918,70.866 461.535,71.381 463.900 M124.100 465.465 C 123.605 465.570,123.200 465.803,123.200 465.983 C 123.200 466.164,122.570 466.429,121.800 466.574 C 121.030 466.718,120.400 467.008,120.400 467.218 C 120.400 467.428,120.148 467.600,119.840 467.600 C 119.532 467.600,118.632 468.248,117.840 469.040 L 116.400 470.480 116.400 468.910 C 116.400 466.252,115.243 465.540,111.156 465.683 C 108.116 465.789,107.763 465.885,107.405 466.700 C 107.188 467.195,106.873 467.600,106.705 467.600 C 106.032 467.600,106.349 528.175,107.029 529.539 L 107.659 530.800 111.340 530.800 C 116.658 530.800,116.362 531.471,116.493 519.103 L 116.600 509.000 117.764 510.297 C 118.403 511.010,119.528 511.812,120.264 512.077 C 120.999 512.343,121.600 512.696,121.600 512.862 C 121.600 513.028,122.275 513.288,123.100 513.440 C 123.925 513.591,124.723 513.905,124.873 514.138 C 125.243 514.710,135.957 514.710,136.327 514.138 C 136.477 513.905,137.275 513.591,138.100 513.440 C 138.925 513.288,139.600 513.011,139.600 512.825 C 139.600 512.639,140.081 512.366,140.668 512.219 C 142.037 511.875,145.870 508.057,146.211 506.697 C 146.355 506.126,146.726 505.561,147.036 505.441 C 147.346 505.322,147.600 504.859,147.600 504.413 C 147.600 503.966,147.772 503.600,147.982 503.600 C 148.192 503.600,148.488 502.925,148.640 502.100 C 148.791 501.275,149.062 500.504,149.241 500.387 C 150.379 499.641,150.388 480.464,149.251 479.047 C 149.054 478.801,148.767 478.015,148.614 477.300 C 148.462 476.585,148.171 476.000,147.968 476.000 C 147.766 476.000,147.600 475.653,147.600 475.229 C 147.600 474.804,147.353 474.210,147.052 473.909 C 146.750 473.608,146.226 472.830,145.886 472.180 C 145.162 470.797,144.172 469.710,142.626 468.600 C 142.013 468.160,141.283 467.584,141.004 467.320 C 140.725 467.056,139.980 466.713,139.348 466.558 C 138.717 466.403,138.072 466.080,137.915 465.838 C 137.626 465.394,125.932 465.078,124.100 465.465 M172.200 465.445 C 171.307 465.664,170.363 466.036,168.631 466.850 C 166.602 467.804,166.000 468.181,166.000 468.495 C 166.000 468.663,165.751 468.800,165.446 468.800 C 164.772 468.800,162.000 471.584,162.000 472.260 C 162.000 472.525,161.707 473.036,161.348 473.395 C 160.613 474.130,160.170 477.031,160.558 478.576 C 160.951 480.139,168.238 480.187,168.628 478.629 C 168.763 478.095,169.126 477.561,169.436 477.441 C 169.746 477.322,170.000 476.989,170.000 476.701 C 170.000 476.114,171.083 475.084,172.118 474.687 C 172.493 474.543,172.800 474.248,172.800 474.031 C 172.800 473.814,173.430 473.518,174.200 473.374 C 174.970 473.229,175.600 472.951,175.600 472.755 C 175.600 472.560,177.040 472.400,178.800 472.400 C 180.560 472.400,182.000 472.560,182.000 472.755 C 182.000 472.951,182.630 473.229,183.400 473.374 C 184.170 473.518,184.800 473.808,184.800 474.018 C 184.800 474.228,185.019 474.400,185.287 474.400 C 185.891 474.400,187.600 476.343,187.600 477.029 C 187.600 477.306,187.775 477.593,187.989 477.667 C 188.203 477.740,188.497 479.080,188.641 480.645 L 188.905 483.490 183.552 483.995 C 180.609 484.273,178.020 484.633,177.800 484.795 C 177.580 484.958,176.058 485.210,174.417 485.356 C 172.777 485.502,171.337 485.768,171.217 485.949 C 171.098 486.129,170.295 486.388,169.432 486.524 C 168.570 486.660,167.760 486.930,167.632 487.124 C 167.505 487.318,166.871 487.607,166.224 487.765 C 165.578 487.924,164.560 488.401,163.963 488.827 C 163.365 489.252,162.769 489.600,162.638 489.600 C 162.427 489.600,160.136 491.913,158.972 493.302 C 158.366 494.024,157.600 496.347,157.600 497.460 C 157.600 497.977,157.420 498.400,157.200 498.400 C 156.980 498.400,156.800 499.300,156.800 500.400 C 156.800 501.500,156.980 502.400,157.200 502.400 C 157.420 502.400,157.600 502.946,157.600 503.613 C 157.600 505.775,160.284 510.400,161.538 510.400 C 161.724 510.400,162.193 510.750,162.579 511.177 C 162.966 511.605,163.804 512.069,164.441 512.209 C 165.079 512.349,165.600 512.621,165.600 512.814 C 165.600 513.006,166.275 513.288,167.100 513.440 C 167.925 513.591,168.723 513.906,168.874 514.138 C 169.235 514.698,179.973 514.684,180.336 514.124 C 180.481 513.899,181.275 513.591,182.100 513.440 C 182.925 513.288,183.600 513.011,183.600 512.825 C 183.600 512.639,184.037 512.377,184.572 512.243 C 185.107 512.109,186.232 511.348,187.072 510.554 L 188.600 509.108 188.726 510.580 C 188.945 513.142,189.685 513.601,193.589 513.594 C 195.465 513.591,197.233 513.440,197.519 513.259 C 197.935 512.995,198.014 509.242,197.917 494.365 C 197.788 474.485,197.795 474.562,195.724 472.471 C 195.436 472.181,195.200 471.776,195.200 471.571 C 195.200 470.985,192.168 468.107,191.239 467.813 C 190.778 467.666,190.400 467.393,190.400 467.205 C 190.400 467.017,189.815 466.737,189.100 466.582 C 188.385 466.426,187.673 466.099,187.518 465.855 C 187.231 465.403,173.838 465.044,172.200 465.445 M222.700 465.465 C 222.095 465.568,221.600 465.798,221.600 465.975 C 221.600 466.153,220.880 466.413,220.000 466.554 C 219.120 466.694,218.400 466.975,218.400 467.178 C 218.400 467.380,218.021 467.666,217.557 467.814 C 216.634 468.107,215.442 468.994,214.443 470.133 C 214.089 470.535,213.215 471.493,212.500 472.261 C 211.785 473.029,211.200 473.914,211.200 474.228 C 211.200 474.543,211.043 474.800,210.852 474.800 C 210.661 474.800,210.269 475.655,209.982 476.700 C 209.694 477.745,209.266 478.728,209.030 478.885 C 208.414 479.294,208.435 499.924,209.051 500.314 C 209.299 500.471,209.629 501.360,209.784 502.288 C 209.939 503.217,210.411 504.415,210.833 504.951 C 211.255 505.487,211.600 506.040,211.600 506.180 C 211.600 507.237,215.913 511.154,218.000 511.992 C 218.770 512.301,219.505 512.706,219.632 512.891 C 219.760 513.077,220.570 513.340,221.432 513.476 C 222.295 513.612,223.124 513.913,223.275 514.144 C 223.650 514.720,235.953 514.716,236.325 514.140 C 236.476 513.906,237.275 513.591,238.100 513.440 C 238.925 513.288,239.600 513.020,239.600 512.845 C 239.600 512.670,240.299 512.317,241.153 512.061 C 242.006 511.806,242.928 511.327,243.202 510.998 C 243.475 510.669,243.871 510.400,244.082 510.400 C 244.583 510.400,246.994 507.915,247.321 507.061 C 247.461 506.697,247.741 506.400,247.944 506.400 C 248.147 506.400,248.437 505.907,248.588 505.304 C 248.740 504.701,249.055 504.090,249.289 503.945 C 249.946 503.539,250.209 497.734,249.603 497.004 C 248.533 495.715,240.800 496.399,240.800 497.784 C 240.800 498.282,239.477 500.924,238.502 502.372 C 237.442 503.946,235.018 505.569,233.700 505.588 C 233.205 505.594,232.800 505.780,232.800 506.000 C 232.800 506.233,231.467 506.400,229.600 506.400 C 227.840 506.400,226.400 506.240,226.400 506.045 C 226.400 505.849,225.770 505.571,225.000 505.426 C 224.230 505.282,223.600 504.992,223.600 504.782 C 223.600 504.572,223.374 504.400,223.099 504.400 C 222.497 504.400,220.400 502.253,220.400 501.636 C 220.400 501.396,220.223 501.200,220.008 501.200 C 219.792 501.200,219.494 500.705,219.346 500.100 C 219.198 499.495,218.906 498.888,218.698 498.752 C 217.528 497.984,217.779 481.364,218.980 480.163 C 219.321 479.822,219.600 479.286,219.600 478.971 C 219.600 478.657,219.760 478.400,219.957 478.400 C 220.153 478.400,220.424 477.995,220.560 477.500 C 220.790 476.659,223.568 474.400,224.372 474.400 C 224.571 474.400,224.808 474.175,224.900 473.900 C 225.120 473.239,233.894 473.188,234.315 473.846 C 234.472 474.091,235.005 474.419,235.500 474.573 C 235.995 474.728,236.400 475.001,236.400 475.180 C 236.400 475.360,236.773 475.604,237.230 475.724 C 237.686 475.843,238.157 476.314,238.276 476.770 C 238.396 477.227,238.638 477.600,238.815 477.600 C 238.992 477.600,239.255 478.140,239.400 478.800 C 239.545 479.460,239.810 480.000,239.988 480.000 C 240.167 480.000,240.437 480.493,240.588 481.096 C 240.740 481.699,241.074 482.326,241.332 482.490 C 241.893 482.847,248.468 482.902,249.367 482.557 C 250.309 482.196,250.202 477.874,249.200 475.800 C 248.775 474.920,248.421 474.056,248.414 473.881 C 248.406 473.705,247.995 473.164,247.500 472.678 C 247.005 472.192,246.401 471.436,246.157 470.999 C 245.722 470.216,242.872 468.229,241.500 467.751 C 241.115 467.616,240.800 467.362,240.800 467.185 C 240.800 467.008,240.215 466.737,239.500 466.582 C 238.785 466.426,238.074 466.101,237.919 465.857 C 237.634 465.408,224.946 465.080,222.700 465.465 M327.300 465.467 C 326.585 465.568,326.000 465.805,326.000 465.994 C 326.000 466.182,325.460 466.455,324.800 466.600 C 324.140 466.745,323.600 467.029,323.600 467.232 C 323.600 467.434,323.369 467.600,323.087 467.600 C 322.184 467.600,318.948 470.434,317.400 472.580 C 316.960 473.190,316.420 473.896,316.200 474.150 C 315.583 474.863,314.507 477.228,313.995 479.000 C 313.741 479.880,313.344 481.140,313.113 481.800 C 312.513 483.517,312.231 493.948,312.727 496.049 C 314.074 501.746,315.343 505.200,316.091 505.200 C 316.261 505.200,316.400 505.405,316.400 505.655 C 316.400 506.323,319.717 510.359,320.284 510.381 C 320.551 510.391,321.091 510.745,321.484 511.168 C 321.878 511.590,322.695 512.059,323.300 512.211 C 323.905 512.363,324.400 512.627,324.400 512.799 C 324.400 512.971,325.075 513.237,325.900 513.391 C 326.725 513.545,327.649 513.877,327.953 514.129 C 328.703 514.749,340.363 514.707,340.749 514.083 C 340.900 513.838,341.784 513.516,342.712 513.368 C 343.640 513.219,344.400 512.977,344.400 512.829 C 344.400 512.682,345.063 512.321,345.873 512.028 C 347.537 511.427,347.650 511.345,350.633 508.622 C 351.825 507.534,352.800 506.428,352.800 506.165 C 352.800 505.901,353.070 505.582,353.400 505.455 C 353.833 505.289,354.000 504.612,354.000 503.027 C 354.000 500.267,353.577 500.000,349.208 500.000 C 345.733 500.000,345.951 499.895,343.320 502.822 C 342.070 504.212,340.170 505.600,339.517 505.600 C 339.211 505.600,338.735 505.825,338.460 506.100 C 337.811 506.749,330.496 506.796,330.085 506.154 C 329.928 505.909,329.377 505.576,328.861 505.414 C 327.575 505.013,324.877 502.246,324.567 501.010 C 324.427 500.455,324.161 500.000,323.975 500.000 C 323.789 500.000,323.518 499.370,323.374 498.600 C 323.229 497.830,322.951 497.200,322.755 497.200 C 322.560 497.200,322.400 496.300,322.400 495.200 L 322.400 493.200 338.253 493.200 L 354.106 493.200 354.900 492.300 C 355.732 491.357,355.674 482.150,354.833 481.614 C 354.649 481.496,354.366 480.590,354.205 479.600 C 353.859 477.481,352.547 474.400,351.990 474.400 C 351.776 474.400,351.600 474.228,351.600 474.018 C 351.600 473.072,348.471 469.200,347.707 469.200 C 347.424 469.200,346.884 468.840,346.507 468.400 C 346.130 467.960,345.592 467.600,345.311 467.600 C 345.030 467.600,344.800 467.434,344.800 467.232 C 344.800 467.029,344.215 466.737,343.500 466.582 C 342.785 466.426,342.075 466.103,341.923 465.863 C 341.639 465.417,329.903 465.099,327.300 465.467 M336.800 472.755 C 336.800 472.951,337.430 473.229,338.200 473.374 C 338.970 473.518,339.600 473.805,339.600 474.011 C 339.600 474.216,340.005 474.491,340.500 474.622 C 341.361 474.848,343.600 477.581,343.600 478.405 C 343.600 478.622,343.759 478.800,343.954 478.800 C 344.466 478.800,345.600 482.503,345.600 484.175 L 345.600 485.600 334.000 485.600 L 322.400 485.600 322.400 483.600 C 322.400 482.500,322.560 481.600,322.755 481.600 C 322.951 481.600,323.229 480.970,323.374 480.200 C 323.518 479.430,323.808 478.800,324.018 478.800 C 324.228 478.800,324.400 478.622,324.400 478.405 C 324.400 477.581,326.639 474.848,327.500 474.622 C 327.995 474.491,328.400 474.216,328.400 474.011 C 328.400 473.805,329.030 473.518,329.800 473.374 C 330.570 473.229,331.200 472.951,331.200 472.755 C 331.200 472.560,332.460 472.400,334.000 472.400 C 335.540 472.400,336.800 472.560,336.800 472.755 M132.777 473.948 C 132.900 474.137,133.419 474.423,133.930 474.583 C 136.115 475.265,138.908 479.004,139.454 481.978 C 139.598 482.760,139.882 483.508,140.086 483.641 C 140.571 483.957,140.581 495.637,140.096 495.955 C 139.891 496.090,139.612 496.905,139.476 497.768 C 139.340 498.630,139.077 499.440,138.891 499.568 C 138.706 499.695,138.318 500.385,138.029 501.100 C 137.740 501.815,137.345 502.400,137.151 502.400 C 136.958 502.400,136.800 502.676,136.800 503.013 C 136.800 503.349,136.485 503.740,136.100 503.881 C 135.715 504.021,134.971 504.466,134.446 504.868 C 133.921 505.271,132.976 505.600,132.346 505.600 C 131.716 505.600,131.200 505.780,131.200 506.000 C 131.200 506.226,130.067 506.400,128.600 506.400 C 127.170 506.400,126.000 506.244,126.000 506.053 C 126.000 505.862,125.249 505.605,124.332 505.482 C 123.415 505.359,122.506 504.975,122.312 504.629 C 122.119 504.283,121.739 504.000,121.469 504.000 C 120.905 504.000,119.600 502.591,119.600 501.983 C 119.600 501.758,119.330 501.471,119.000 501.345 C 118.670 501.218,118.400 500.902,118.400 500.642 C 118.400 500.382,118.003 499.456,117.518 498.585 C 116.490 496.740,116.139 484.288,117.060 482.361 C 117.312 481.833,117.754 480.770,118.041 480.000 C 118.966 477.517,122.930 474.168,125.800 473.444 C 126.979 473.147,132.518 473.546,132.777 473.948 M188.619 494.100 C 188.462 495.915,188.169 497.460,187.967 497.533 C 187.765 497.607,187.600 498.077,187.600 498.579 C 187.600 499.081,187.240 499.950,186.800 500.509 C 186.360 501.069,185.997 501.678,185.993 501.863 C 185.982 502.428,184.300 503.820,182.401 504.837 C 181.412 505.367,180.476 505.976,180.321 506.191 C 179.886 506.796,171.904 506.712,171.700 506.100 C 171.608 505.825,171.291 505.600,170.994 505.600 C 169.898 505.600,167.647 503.787,167.393 502.700 C 167.252 502.095,166.971 501.600,166.768 501.600 C 166.566 501.600,166.400 500.880,166.400 500.000 C 166.400 499.120,166.580 498.400,166.800 498.400 C 167.020 498.400,167.200 498.139,167.200 497.820 C 167.200 497.110,169.503 494.892,170.600 494.545 C 171.040 494.406,171.505 494.130,171.632 493.932 C 171.760 493.734,172.570 493.460,173.432 493.324 C 174.295 493.188,175.097 492.931,175.215 492.753 C 175.333 492.575,177.538 492.210,180.115 491.941 C 182.692 491.672,184.800 491.306,184.800 491.126 C 184.800 490.947,185.723 490.800,186.852 490.800 L 188.903 490.800 188.619 494.100 M192.408 544.281 C 191.422 544.377,190.432 544.602,190.208 544.781 C 189.984 544.961,189.215 545.233,188.500 545.386 C 187.785 545.538,187.200 545.829,187.200 546.032 C 187.200 546.234,186.970 546.400,186.689 546.400 C 186.408 546.400,185.870 546.760,185.493 547.200 C 185.116 547.640,184.536 548.000,184.204 548.000 C 183.872 548.000,183.600 548.261,183.600 548.580 C 183.600 548.899,183.355 549.304,183.057 549.480 C 182.758 549.656,182.282 550.520,181.999 551.400 C 181.716 552.280,181.301 553.118,181.078 553.263 C 180.854 553.408,180.587 555.880,180.483 558.763 L 180.294 564.000 176.036 564.000 C 170.759 564.000,170.400 564.270,170.400 568.233 C 170.400 571.957,170.691 572.167,176.070 572.335 L 180.400 572.471 180.400 591.546 C 180.400 613.933,179.943 612.000,185.233 612.000 C 190.214 612.000,189.781 613.893,189.915 591.529 L 190.029 572.400 198.815 572.400 L 207.600 572.400 207.600 590.968 C 207.600 613.568,207.231 611.994,212.536 611.997 C 218.136 612.001,217.571 615.762,217.587 578.380 C 217.602 540.872,218.058 544.011,212.600 544.011 C 207.585 544.011,207.600 543.976,207.600 555.280 L 207.600 564.000 198.764 564.000 L 189.927 564.000 190.064 559.870 C 190.172 556.596,190.345 555.596,190.900 555.042 C 191.285 554.657,191.600 554.190,191.600 554.003 C 191.600 553.816,192.140 553.545,192.800 553.400 C 193.460 553.255,194.000 552.971,194.000 552.768 C 194.000 552.566,195.755 552.398,197.900 552.395 C 203.805 552.386,203.601 552.520,203.594 548.653 C 203.591 546.864,203.417 545.130,203.209 544.800 C 202.819 544.182,196.539 543.880,192.408 544.281 M119.316 547.200 C 119.201 547.640,118.948 548.000,118.753 548.000 C 118.559 548.000,118.400 549.530,118.400 551.400 C 118.400 553.400,118.565 554.800,118.800 554.800 C 119.020 554.800,119.200 555.049,119.200 555.353 C 119.200 556.704,127.882 556.918,129.200 555.600 C 130.248 554.552,130.373 548.710,129.377 547.289 C 128.464 545.985,119.654 545.907,119.316 547.200 M77.475 548.821 C 77.088 549.273,76.665 550.173,76.536 550.821 C 76.406 551.470,76.151 552.000,75.968 552.000 C 75.786 552.000,75.518 552.630,75.374 553.400 C 75.229 554.170,74.964 554.800,74.784 554.800 C 74.604 554.800,74.228 555.835,73.948 557.100 C 73.667 558.365,73.204 559.638,72.919 559.929 C 72.634 560.219,72.400 560.894,72.400 561.429 C 72.400 561.963,72.228 562.400,72.018 562.400 C 71.808 562.400,71.518 563.030,71.374 563.800 C 71.229 564.570,70.980 565.200,70.819 565.200 C 70.659 565.200,70.290 566.190,70.000 567.400 C 69.710 568.610,69.321 569.600,69.136 569.600 C 68.951 569.600,68.800 570.037,68.800 570.571 C 68.800 571.106,68.558 571.785,68.261 572.081 C 67.965 572.378,67.597 573.291,67.443 574.110 C 67.290 574.930,67.021 575.600,66.846 575.600 C 66.671 575.600,66.306 576.590,66.035 577.800 C 65.764 579.010,65.396 580.000,65.216 580.000 C 65.036 580.000,64.771 580.630,64.626 581.400 C 64.482 582.170,64.203 582.800,64.006 582.800 C 63.810 582.800,63.528 583.610,63.379 584.600 C 63.231 585.590,62.968 586.400,62.794 586.400 C 62.621 586.400,62.264 587.300,62.000 588.400 C 61.736 589.500,61.374 590.400,61.195 590.400 C 61.017 590.400,60.749 591.120,60.600 592.000 C 60.451 592.880,60.180 593.600,59.997 593.600 C 59.813 593.600,59.536 594.182,59.379 594.894 C 59.223 595.606,58.858 596.551,58.568 596.994 C 58.278 597.437,57.918 598.565,57.769 599.500 C 57.620 600.435,57.349 601.200,57.167 601.200 C 56.985 601.200,56.718 601.830,56.574 602.600 C 56.429 603.370,56.171 604.000,56.000 604.000 C 55.829 604.000,55.573 604.617,55.432 605.371 C 55.290 606.125,55.009 606.800,54.806 606.871 C 53.970 607.164,53.903 610.168,54.712 611.100 C 55.419 611.914,55.853 612.000,59.256 612.000 L 63.018 612.000 63.695 610.700 C 64.068 609.985,64.488 608.905,64.630 608.300 C 64.771 607.695,65.018 607.200,65.179 607.200 C 65.340 607.200,65.710 606.210,66.000 605.000 C 66.290 603.790,66.659 602.800,66.819 602.800 C 66.980 602.800,67.229 602.170,67.374 601.400 C 67.518 600.630,67.786 600.000,67.968 600.000 C 68.151 600.000,68.408 599.460,68.540 598.800 L 68.780 597.600 83.184 597.600 L 97.588 597.600 98.042 599.400 C 98.291 600.390,98.634 601.200,98.803 601.200 C 98.972 601.200,99.229 601.830,99.374 602.600 C 99.518 603.370,99.792 604.000,99.983 604.000 C 100.174 604.000,100.451 604.720,100.600 605.600 C 100.749 606.480,101.017 607.200,101.195 607.200 C 101.374 607.200,101.736 608.100,102.000 609.200 C 102.293 610.419,102.698 611.200,103.040 611.200 C 103.348 611.200,103.600 611.380,103.600 611.600 C 103.600 612.439,110.717 612.083,111.600 611.200 C 112.435 610.365,112.663 609.010,112.035 608.622 C 111.834 608.497,111.548 607.677,111.400 606.798 C 111.251 605.919,110.983 605.200,110.805 605.200 C 110.626 605.200,110.264 604.300,110.000 603.200 C 109.736 602.100,109.369 601.200,109.185 601.200 C 109.000 601.200,108.728 600.390,108.579 599.400 C 108.431 598.410,108.158 597.600,107.973 597.600 C 107.788 597.600,107.518 596.970,107.374 596.200 C 107.229 595.430,106.964 594.800,106.784 594.800 C 106.604 594.800,106.236 593.810,105.965 592.600 C 105.694 591.390,105.329 590.400,105.154 590.400 C 104.979 590.400,104.718 589.770,104.574 589.000 C 104.429 588.230,104.174 587.600,104.007 587.600 C 103.839 587.600,103.587 586.880,103.446 586.000 C 103.306 585.120,103.041 584.400,102.859 584.400 C 102.677 584.400,102.290 583.410,102.000 582.200 C 101.710 580.990,101.341 580.000,101.181 580.000 C 101.020 580.000,100.771 579.370,100.626 578.600 C 100.482 577.830,100.203 577.200,100.006 577.200 C 99.810 577.200,99.528 576.390,99.379 575.400 C 99.231 574.410,98.968 573.600,98.794 573.600 C 98.621 573.600,98.264 572.700,98.000 571.600 C 97.736 570.500,97.374 569.600,97.195 569.600 C 97.017 569.600,96.749 568.880,96.600 568.000 C 96.451 567.120,96.174 566.400,95.983 566.400 C 95.792 566.400,95.518 565.770,95.374 565.000 C 95.229 564.230,94.966 563.600,94.789 563.600 C 94.611 563.600,94.282 562.741,94.057 561.692 C 93.832 560.642,93.368 559.247,93.026 558.592 C 92.685 557.936,92.404 557.085,92.402 556.700 C 92.401 556.315,92.240 556.000,92.045 556.000 C 91.849 556.000,91.571 555.370,91.426 554.600 C 91.282 553.830,91.029 553.200,90.865 553.200 C 90.700 553.200,90.350 552.394,90.087 551.409 C 89.213 548.142,88.926 548.000,83.200 548.000 C 78.630 548.000,78.115 548.074,77.475 548.821 M83.600 560.800 C 83.600 561.240,83.772 561.600,83.982 561.600 C 84.192 561.600,84.482 562.230,84.626 563.000 C 84.771 563.770,85.031 564.400,85.205 564.400 C 85.378 564.400,85.742 565.326,86.014 566.458 C 86.285 567.590,86.752 568.985,87.051 569.558 C 87.350 570.131,87.596 570.915,87.598 571.300 C 87.599 571.685,87.760 572.000,87.955 572.000 C 88.151 572.000,88.429 572.630,88.574 573.400 C 88.718 574.170,88.979 574.800,89.154 574.800 C 89.329 574.800,89.710 575.790,90.000 577.000 C 90.290 578.210,90.656 579.200,90.813 579.200 C 90.970 579.200,91.213 579.920,91.354 580.800 C 91.494 581.680,91.772 582.400,91.970 582.400 C 92.168 582.400,92.451 583.120,92.600 584.000 C 92.749 584.880,93.015 585.600,93.192 585.600 C 93.369 585.600,93.631 586.095,93.776 586.700 C 93.920 587.305,94.132 588.115,94.246 588.500 C 94.441 589.155,93.722 589.200,83.027 589.200 C 75.676 589.200,71.600 589.057,71.600 588.800 C 71.600 588.580,71.760 588.400,71.955 588.400 C 72.151 588.400,72.429 587.770,72.574 587.000 C 72.718 586.230,72.979 585.600,73.154 585.600 C 73.329 585.600,73.710 584.610,74.000 583.400 C 74.290 582.190,74.679 581.200,74.864 581.200 C 75.049 581.200,75.200 580.790,75.200 580.289 C 75.200 579.788,75.455 579.014,75.767 578.569 C 76.079 578.123,76.459 577.093,76.611 576.280 C 76.764 575.466,77.036 574.800,77.216 574.800 C 77.396 574.800,77.764 573.810,78.035 572.600 C 78.306 571.390,78.671 570.400,78.846 570.400 C 79.021 570.400,79.290 569.730,79.443 568.910 C 79.597 568.091,79.965 567.178,80.261 566.881 C 80.558 566.585,80.800 565.906,80.800 565.371 C 80.800 564.837,80.951 564.400,81.136 564.400 C 81.321 564.400,81.710 563.410,82.000 562.200 C 82.515 560.055,83.600 559.105,83.600 560.800 M241.601 564.040 C 240.612 564.233,239.742 564.574,239.668 564.796 C 239.594 565.018,239.183 565.200,238.754 565.200 C 238.326 565.200,237.878 565.454,237.759 565.764 C 237.639 566.074,237.105 566.437,236.571 566.572 C 236.037 566.706,235.600 566.992,235.600 567.208 C 235.600 567.423,235.374 567.600,235.099 567.600 C 234.513 567.600,232.864 569.286,231.774 571.000 C 231.354 571.660,230.783 572.438,230.506 572.728 C 230.228 573.018,229.886 573.738,229.745 574.328 C 229.605 574.918,229.344 575.587,229.166 575.816 C 227.702 577.695,227.024 593.045,228.214 597.400 C 229.555 602.311,234.061 609.200,235.932 609.200 C 236.136 609.200,236.525 609.469,236.798 609.798 C 237.072 610.127,238.039 610.613,238.947 610.879 C 239.856 611.144,240.708 611.517,240.840 611.707 C 240.972 611.897,242.457 612.157,244.140 612.284 C 245.823 612.411,247.200 612.669,247.200 612.858 C 247.200 613.046,248.190 613.200,249.400 613.200 C 250.610 613.200,251.600 613.046,251.600 612.859 C 251.600 612.671,252.985 612.400,254.677 612.257 C 256.370 612.114,257.855 611.854,257.977 611.679 C 258.100 611.504,258.944 611.144,259.853 610.879 C 260.761 610.613,261.728 610.127,262.002 609.798 C 262.275 609.469,262.658 609.200,262.854 609.200 C 263.416 609.200,266.399 606.255,266.399 605.700 C 266.400 605.425,266.577 605.200,266.792 605.200 C 267.008 605.200,267.294 604.763,267.428 604.229 C 267.563 603.695,267.926 603.161,268.236 603.041 C 268.546 602.922,268.800 602.459,268.800 602.013 C 268.800 601.566,268.959 601.200,269.153 601.200 C 269.610 601.200,270.400 598.050,270.400 596.223 C 270.400 595.440,270.580 594.800,270.800 594.800 C 271.051 594.800,271.200 592.267,271.200 588.000 C 271.200 584.260,271.056 581.200,270.880 581.200 C 270.703 581.200,270.361 579.827,270.120 578.148 C 269.878 576.470,269.506 574.985,269.294 574.848 C 269.082 574.712,268.772 574.164,268.605 573.631 C 268.307 572.678,268.013 572.234,266.780 570.881 C 266.439 570.506,265.849 569.705,265.471 569.100 C 265.092 568.495,264.556 568.000,264.280 568.000 C 264.004 568.000,263.480 567.685,263.117 567.300 C 261.977 566.092,261.302 565.641,260.234 565.373 C 259.665 565.230,259.200 564.978,259.200 564.812 C 259.200 563.765,245.971 563.184,241.601 564.040 M120.300 564.432 C 119.329 564.998,119.205 610.462,120.171 611.429 C 121.038 612.295,128.221 612.242,128.557 611.367 C 129.182 609.740,128.814 565.272,128.171 564.629 C 127.437 563.895,121.478 563.746,120.300 564.432 M142.014 564.774 C 141.305 566.099,141.455 610.713,142.171 611.429 C 142.578 611.835,143.733 612.000,146.171 612.000 C 151.564 612.000,151.143 613.439,151.283 594.551 C 151.373 582.283,151.514 578.628,151.900 578.500 C 152.175 578.408,152.400 578.111,152.400 577.839 C 152.400 575.235,156.828 573.200,162.494 573.200 C 165.082 573.200,167.200 573.041,167.200 572.847 C 167.200 572.652,167.560 572.399,168.000 572.284 C 169.110 571.994,169.209 565.666,168.121 564.578 C 167.341 563.798,157.367 563.893,156.863 564.686 C 156.718 564.913,156.015 565.226,155.300 565.382 C 154.585 565.537,154.000 565.829,154.000 566.032 C 154.000 566.234,153.775 566.405,153.500 566.411 C 153.225 566.417,152.460 566.974,151.800 567.648 L 150.600 568.874 150.393 566.937 C 150.084 564.050,150.010 564.000,145.990 564.000 C 142.878 564.000,142.376 564.098,142.014 564.774 M277.436 564.524 C 276.644 565.103,276.461 567.401,277.107 568.652 C 277.320 569.063,277.726 570.390,278.009 571.600 C 278.292 572.810,278.666 574.070,278.841 574.400 C 279.015 574.730,279.540 576.350,280.007 578.000 C 280.474 579.650,281.011 581.360,281.200 581.800 C 281.388 582.240,281.763 583.590,282.033 584.800 C 282.303 586.010,282.666 587.270,282.841 587.600 C 283.015 587.930,283.540 589.550,284.007 591.200 C 284.474 592.850,285.007 594.560,285.191 595.000 C 285.375 595.440,285.739 596.700,286.000 597.800 C 286.261 598.900,286.625 600.160,286.809 600.600 C 286.993 601.040,287.532 602.750,288.007 604.400 C 288.481 606.050,289.124 607.967,289.435 608.660 C 289.746 609.354,290.000 610.079,290.000 610.272 C 290.000 613.988,299.959 612.192,300.607 608.359 C 300.752 607.502,301.014 606.800,301.190 606.800 C 301.366 606.800,301.730 605.630,302.000 604.200 C 302.270 602.770,302.634 601.600,302.810 601.600 C 302.986 601.600,303.251 600.881,303.400 600.002 C 303.548 599.123,303.813 598.315,303.989 598.207 C 304.164 598.099,304.429 597.202,304.577 596.214 C 304.725 595.227,304.990 594.330,305.166 594.221 C 305.342 594.112,305.716 592.938,305.998 591.612 C 306.279 590.285,306.644 589.200,306.809 589.200 C 306.974 589.200,307.231 588.390,307.379 587.400 C 307.528 586.410,307.802 585.600,307.989 585.600 C 308.177 585.600,308.451 584.881,308.600 584.002 C 308.748 583.123,309.014 582.315,309.189 582.207 C 309.365 582.098,309.643 581.332,309.806 580.504 C 309.969 579.677,310.183 579.270,310.280 579.600 C 310.378 579.930,310.609 580.560,310.793 581.000 C 310.976 581.440,311.786 583.960,312.591 586.600 C 313.397 589.240,314.403 592.361,314.828 593.536 C 315.253 594.710,315.600 596.015,315.600 596.436 C 315.600 596.856,315.760 597.200,315.955 597.200 C 316.151 597.200,316.437 597.875,316.591 598.700 C 316.745 599.525,317.010 600.380,317.178 600.600 C 317.347 600.820,317.695 601.900,317.951 603.000 C 318.208 604.100,318.671 605.630,318.980 606.400 C 319.289 607.170,319.647 608.287,319.774 608.883 C 320.294 611.304,321.538 612.000,325.346 612.000 C 327.382 612.000,328.800 611.836,328.800 611.600 C 328.800 611.380,329.051 611.200,329.357 611.200 C 329.969 611.200,330.400 610.359,330.400 609.167 C 330.400 608.745,330.564 608.400,330.765 608.400 C 330.966 608.400,331.251 607.680,331.400 606.800 C 331.549 605.920,331.818 605.200,331.998 605.200 C 332.178 605.200,332.449 604.300,332.600 603.200 C 332.751 602.100,333.014 601.200,333.184 601.200 C 333.354 601.200,333.733 599.850,334.026 598.200 C 334.319 596.550,334.688 595.200,334.844 595.200 C 335.001 595.200,335.251 594.480,335.400 593.600 C 335.549 592.720,335.828 592.000,336.021 592.000 C 336.214 592.000,336.492 591.100,336.638 590.000 C 336.784 588.900,337.044 588.000,337.215 588.000 C 337.387 588.000,337.753 586.740,338.028 585.200 C 338.303 583.660,338.659 582.400,338.819 582.400 C 338.978 582.400,339.231 581.590,339.379 580.600 C 339.528 579.610,339.812 578.800,340.011 578.800 C 340.210 578.800,340.492 577.900,340.638 576.800 C 340.784 575.700,341.039 574.800,341.206 574.800 C 341.373 574.800,341.736 573.585,342.013 572.100 C 342.290 570.615,342.687 569.289,342.896 569.153 C 343.555 568.724,343.476 564.820,342.800 564.392 C 342.470 564.183,340.743 564.009,338.962 564.006 C 335.180 563.999,334.727 564.307,333.972 567.400 C 333.703 568.500,333.239 569.886,332.942 570.480 C 332.644 571.074,332.400 572.019,332.400 572.580 C 332.400 573.141,332.244 573.600,332.054 573.600 C 331.864 573.600,331.598 574.406,331.463 575.391 C 331.328 576.376,331.056 577.501,330.858 577.891 C 330.282 579.026,329.600 581.388,329.600 582.248 C 329.600 582.684,329.450 583.211,329.268 583.420 C 329.085 583.629,328.611 584.970,328.216 586.400 C 327.820 587.830,327.165 590.080,326.760 591.400 C 326.355 592.720,325.823 594.596,325.578 595.569 C 325.139 597.308,324.422 597.266,324.406 595.500 C 324.403 595.115,324.240 594.800,324.045 594.800 C 323.849 594.800,323.563 594.125,323.409 593.300 C 323.255 592.475,322.985 591.620,322.809 591.400 C 322.633 591.180,322.260 589.965,321.981 588.700 C 321.701 587.435,321.345 586.400,321.188 586.400 C 321.031 586.400,320.784 585.500,320.638 584.400 C 320.492 583.300,320.219 582.400,320.032 582.400 C 319.844 582.400,319.569 581.590,319.421 580.600 C 319.272 579.610,319.002 578.800,318.819 578.800 C 318.636 578.800,318.254 577.630,317.970 576.200 C 317.686 574.770,317.317 573.600,317.151 573.600 C 316.985 573.600,316.727 572.788,316.578 571.795 C 316.429 570.802,316.164 569.901,315.989 569.793 C 315.813 569.685,315.548 568.877,315.400 567.998 C 315.251 567.119,315.005 566.400,314.853 566.400 C 314.700 566.400,314.372 565.860,314.122 565.200 C 313.676 564.016,313.630 564.000,310.735 564.005 C 306.277 564.014,306.210 564.054,305.166 567.337 C 304.666 568.911,304.121 570.470,303.957 570.800 C 303.792 571.130,303.393 572.300,303.069 573.400 C 301.115 580.035,300.304 582.691,300.013 583.400 C 299.832 583.840,298.923 586.630,297.992 589.600 C 297.061 592.570,296.155 595.360,295.979 595.800 C 295.803 596.240,295.570 596.870,295.461 597.200 C 295.339 597.570,295.251 597.455,295.232 596.900 C 295.214 596.405,295.036 596.000,294.836 596.000 C 294.636 596.000,294.260 594.740,294.000 593.200 C 293.740 591.660,293.381 590.400,293.201 590.400 C 293.022 590.400,292.751 589.500,292.600 588.400 C 292.449 587.300,292.179 586.400,292.000 586.400 C 291.821 586.400,291.551 585.500,291.400 584.400 C 291.249 583.300,290.995 582.400,290.836 582.400 C 290.677 582.400,290.310 581.185,290.021 579.700 C 289.732 578.215,289.355 576.820,289.184 576.600 C 289.012 576.380,288.742 575.480,288.584 574.600 C 288.425 573.720,288.155 572.820,287.984 572.600 C 287.812 572.380,287.545 571.525,287.391 570.700 C 287.237 569.875,286.974 569.200,286.807 569.200 C 286.640 569.200,286.385 568.306,286.240 567.214 C 285.882 564.515,285.072 564.000,281.187 564.000 C 279.317 564.000,277.878 564.201,277.436 564.524 M252.800 571.550 C 252.800 571.743,253.353 572.011,254.029 572.146 C 255.523 572.445,259.042 575.830,259.419 577.332 C 259.566 577.920,259.825 578.400,259.994 578.400 C 260.483 578.400,261.365 584.690,261.368 588.200 C 261.372 591.486,260.458 597.600,259.964 597.600 C 259.811 597.600,259.582 598.005,259.454 598.500 C 258.192 603.373,249.616 606.215,244.166 603.566 C 242.164 602.593,240.419 601.255,240.407 600.683 C 240.401 600.391,240.096 599.967,238.974 598.686 C 237.254 596.724,237.134 577.600,238.841 577.600 C 239.038 577.600,239.200 577.324,239.200 576.987 C 239.200 576.651,239.470 576.271,239.800 576.145 C 240.130 576.018,240.400 575.689,240.400 575.413 C 240.400 575.138,240.870 574.572,241.444 574.156 C 242.019 573.740,242.728 573.173,243.021 572.895 C 243.314 572.617,244.104 572.279,244.777 572.145 C 245.450 572.010,246.000 571.743,246.000 571.550 C 246.000 571.357,247.530 571.200,249.400 571.200 C 251.270 571.200,252.800 571.357,252.800 571.550 " stroke="none" fill="#53534c" fill-rule="evenodd"></path></g></svg>