<svg id="svg" version="1.1" xmlns="http://www.w3.org/2000/svg" xmlns:xlink="http://www.w3.org/1999/xlink" width="400" height="400" viewBox="0, 0, 400,400"><g id="svgg"><path id="path0" d="M384.251 11.368 C 374.115 21.631,366.576 29.352,358.618 37.618 C 348.798 47.817,339.019 57.850,321.793 75.400 C 312.291 85.080,301.566 96.048,297.959 99.774 C 294.351 103.500,289.144 108.825,286.388 111.608 L 281.375 116.667 282.716 119.623 C 284.530 123.622,284.115 130.088,281.769 134.400 C 281.470 134.950,280.948 136.030,280.610 136.800 C 280.271 137.570,279.552 138.920,279.012 139.800 C 278.471 140.680,277.798 141.858,277.515 142.418 C 277.232 142.978,276.765 143.698,276.477 144.018 C 276.190 144.338,275.017 145.877,273.871 147.437 C 270.603 151.886,263.599 159.193,257.421 164.600 C 255.912 165.920,254.269 167.360,253.769 167.800 C 253.269 168.240,251.721 169.460,250.330 170.511 C 248.938 171.563,246.734 173.228,245.430 174.211 C 244.127 175.195,242.928 176.000,242.766 176.000 C 242.604 176.000,241.588 176.699,240.508 177.553 C 239.427 178.407,238.016 179.402,237.372 179.765 C 236.727 180.128,235.732 180.734,235.160 181.112 C 233.207 182.403,231.784 183.289,229.200 184.822 C 225.413 187.070,224.365 187.659,221.400 189.211 C 219.640 190.132,218.110 191.002,218.000 191.143 C 217.890 191.284,215.640 192.491,213.000 193.825 L 208.200 196.251 208.294 197.825 C 208.526 201.718,208.053 203.402,206.177 205.359 C 204.234 207.387,203.901 208.914,204.989 210.800 C 205.306 211.350,205.753 212.250,205.983 212.800 C 206.212 213.350,206.577 214.070,206.794 214.400 C 207.211 215.034,207.647 215.827,210.452 221.061 C 212.680 225.217,215.665 230.482,216.088 231.000 C 216.988 232.103,218.786 235.053,218.793 235.438 C 218.797 235.679,219.160 236.202,219.600 236.600 C 220.040 236.998,220.400 237.535,220.400 237.792 C 220.400 238.050,221.165 239.272,222.100 240.509 C 223.035 241.747,224.250 243.405,224.800 244.196 C 225.350 244.986,226.250 246.238,226.800 246.977 C 227.350 247.716,228.160 248.825,228.600 249.441 C 229.286 250.402,230.719 252.161,232.200 253.858 C 232.420 254.110,233.050 254.893,233.600 255.597 C 236.765 259.650,247.826 270.755,250.400 272.464 C 250.950 272.829,251.996 273.684,252.725 274.364 C 253.453 275.044,254.280 275.600,254.563 275.600 C 254.845 275.600,255.402 275.960,255.800 276.400 C 256.198 276.840,256.695 277.200,256.904 277.200 C 257.113 277.200,257.819 277.650,258.473 278.200 C 259.127 278.750,259.896 279.200,260.182 279.200 C 260.468 279.200,260.918 279.461,261.183 279.780 C 261.448 280.098,262.325 280.571,263.132 280.830 C 263.939 281.089,264.870 281.528,265.200 281.806 C 265.530 282.083,266.778 282.515,267.973 282.766 C 269.168 283.017,270.407 283.440,270.728 283.706 C 271.928 284.702,277.512 284.255,280.600 282.915 C 282.330 282.164,283.570 281.835,283.845 282.053 C 284.154 282.299,284.235 282.117,284.109 281.459 C 283.903 280.382,284.657 279.400,289.983 273.800 C 294.086 269.488,316.321 246.585,322.800 239.999 C 354.355 207.922,357.410 204.633,361.807 198.000 C 362.463 197.010,363.301 195.975,363.668 195.700 C 364.036 195.424,364.455 194.661,364.599 194.004 C 364.743 193.347,365.017 192.713,365.208 192.595 C 365.399 192.477,366.291 191.080,367.190 189.490 C 369.478 185.449,369.379 185.637,370.501 183.200 C 371.058 181.990,372.343 179.332,373.357 177.292 C 374.371 175.253,375.200 173.252,375.200 172.846 C 375.200 172.440,375.534 171.679,375.942 171.154 C 376.350 170.629,376.817 169.480,376.979 168.600 C 377.141 167.720,377.523 166.550,377.828 166.000 C 378.637 164.541,379.999 160.482,380.392 158.362 C 380.579 157.351,381.108 155.823,381.566 154.968 C 382.025 154.112,382.401 152.869,382.402 152.206 C 382.404 151.543,382.674 150.485,383.002 149.855 C 383.330 149.226,383.786 147.538,384.015 146.105 C 384.244 144.672,384.671 143.027,384.965 142.450 C 385.258 141.872,385.626 140.350,385.782 139.067 C 385.938 137.784,386.411 135.731,386.833 134.504 C 387.255 133.278,387.600 131.712,387.600 131.025 C 387.600 130.337,387.876 128.790,388.213 127.587 C 388.550 126.384,389.086 123.420,389.403 121.000 C 389.720 118.580,390.246 115.880,390.572 115.000 C 390.898 114.120,391.184 112.320,391.206 111.000 C 391.229 109.680,391.411 107.790,391.611 106.800 C 392.341 103.177,392.758 100.088,393.193 95.076 C 393.438 92.258,393.813 89.492,394.027 88.930 C 394.240 88.368,394.589 84.463,394.802 80.254 C 395.015 76.044,395.372 71.970,395.596 71.200 C 395.820 70.430,396.104 66.110,396.227 61.600 C 396.350 57.090,396.789 48.270,397.203 42.000 C 397.617 35.730,398.071 24.792,398.211 17.693 L 398.466 4.786 397.073 3.393 C 394.582 0.902,394.595 0.894,384.251 11.368 M119.735 117.154 C 118.314 117.874,116.393 119.572,113.573 122.600 C 111.319 125.020,104.418 132.148,98.237 138.439 C 62.041 175.286,46.155 191.623,43.787 194.435 C 38.309 200.939,34.495 206.625,31.020 213.466 C 30.220 215.042,29.302 216.549,28.982 216.815 C 28.662 217.081,28.400 217.557,28.400 217.874 C 28.400 218.466,26.937 221.918,25.635 224.400 C 25.231 225.170,24.776 226.373,24.624 227.072 C 24.473 227.772,24.104 228.548,23.806 228.795 C 23.507 229.043,23.138 229.986,22.985 230.890 C 22.832 231.794,22.369 233.088,21.955 233.767 C 21.541 234.445,21.202 235.412,21.201 235.916 C 21.201 236.420,20.864 237.500,20.454 238.316 C 20.044 239.132,19.586 240.473,19.437 241.294 C 19.288 242.116,18.817 243.556,18.392 244.494 C 17.966 245.433,17.613 246.650,17.606 247.200 C 17.600 247.750,17.326 248.715,16.998 249.345 C 16.670 249.974,16.221 251.617,16.001 252.995 C 15.781 254.374,15.333 256.140,15.007 256.921 C 14.681 257.702,14.295 259.389,14.150 260.670 C 14.005 261.952,13.577 263.810,13.198 264.800 C 12.819 265.790,12.391 267.680,12.246 269.000 C 12.101 270.320,11.719 272.275,11.397 273.345 C 11.075 274.414,10.625 276.786,10.398 278.616 C 10.171 280.446,9.718 282.699,9.392 283.622 C 9.067 284.545,8.800 286.321,8.800 287.569 C 8.800 288.817,8.453 291.449,8.028 293.419 C 7.604 295.388,7.139 298.710,6.995 300.800 C 6.850 302.890,6.404 306.670,6.004 309.200 C 5.603 311.730,5.163 316.590,5.027 320.000 C 4.891 323.410,4.602 326.920,4.385 327.800 C 4.168 328.680,3.804 333.360,3.575 338.200 C 3.347 343.040,2.808 352.490,2.378 359.200 C 1.887 366.867,1.597 375.901,1.598 383.513 L 1.600 395.627 2.968 396.995 C 4.471 398.498,5.953 398.472,7.714 396.912 C 8.549 396.172,22.901 381.670,27.800 376.617 C 33.424 370.815,41.976 362.017,49.399 354.396 C 74.520 328.605,82.660 320.273,92.275 310.509 C 98.174 304.519,106.384 296.115,110.520 291.834 C 115.693 286.479,118.350 284.010,119.032 283.925 L 120.024 283.800 118.803 282.325 C 117.263 280.463,115.897 276.333,116.116 274.200 C 116.562 269.875,119.902 261.179,122.185 258.400 C 122.457 258.070,122.796 257.530,122.939 257.200 C 123.083 256.870,123.818 255.790,124.574 254.800 C 125.330 253.810,126.451 252.280,127.065 251.400 C 130.106 247.039,140.935 236.430,147.284 231.592 C 149.108 230.202,150.835 228.735,151.123 228.332 C 151.410 227.930,151.832 227.600,152.060 227.600 C 152.289 227.600,153.540 226.790,154.842 225.800 C 156.144 224.810,157.327 224.000,157.471 224.000 C 157.615 224.000,158.018 223.721,158.366 223.381 C 159.339 222.430,165.641 218.341,168.200 216.999 C 168.860 216.653,170.210 215.837,171.200 215.186 C 172.190 214.535,173.540 213.720,174.200 213.375 C 174.860 213.030,176.210 212.284,177.200 211.717 C 180.747 209.687,185.425 207.188,186.800 206.590 C 187.570 206.255,188.470 205.808,188.800 205.596 C 189.130 205.385,190.030 204.919,190.800 204.561 C 191.570 204.203,191.988 203.830,191.730 203.732 C 190.977 203.446,188.102 204.357,187.873 204.954 C 187.758 205.254,187.010 205.622,186.211 205.772 C 185.412 205.921,184.660 206.299,184.540 206.611 C 184.421 206.923,183.722 207.291,182.988 207.429 C 182.253 207.567,181.343 208.021,180.964 208.440 C 180.586 208.858,179.953 209.200,179.559 209.200 C 179.164 209.200,178.356 209.650,177.762 210.200 C 177.169 210.750,176.409 211.200,176.073 211.200 C 175.738 211.200,175.146 211.487,174.759 211.837 C 173.958 212.562,172.094 213.626,169.900 214.613 C 169.075 214.983,168.400 215.445,168.400 215.638 C 168.400 215.831,167.815 216.271,167.100 216.616 C 165.006 217.626,163.331 218.614,162.676 219.228 C 162.340 219.543,161.060 220.408,159.832 221.151 C 158.605 221.894,157.600 222.642,157.600 222.812 C 157.600 222.982,157.105 223.322,156.500 223.566 C 155.110 224.127,152.702 225.875,152.281 226.627 C 152.105 226.942,151.770 227.200,151.538 227.200 C 151.306 227.200,150.628 227.605,150.032 228.100 C 149.436 228.595,148.441 229.360,147.821 229.800 C 147.200 230.240,146.170 231.095,145.532 231.700 C 144.894 232.305,144.199 232.800,143.986 232.800 C 143.774 232.800,143.600 233.070,143.600 233.400 C 143.600 233.730,143.435 234.000,143.234 234.000 C 142.425 234.000,129.214 246.622,129.205 247.404 C 129.202 247.626,128.840 248.032,128.400 248.307 C 127.960 248.582,127.600 248.994,127.600 249.223 C 127.600 249.452,126.952 250.306,126.160 251.120 C 125.368 251.934,124.444 253.140,124.106 253.800 C 123.768 254.460,123.246 255.144,122.946 255.320 C 122.646 255.496,122.400 255.875,122.400 256.161 C 122.400 256.448,121.950 257.169,121.400 257.762 C 120.850 258.356,120.400 259.074,120.400 259.359 C 120.400 259.644,120.051 260.280,119.625 260.772 C 119.198 261.263,118.730 262.209,118.584 262.874 C 118.438 263.538,117.977 264.423,117.559 264.841 C 117.142 265.258,116.800 266.030,116.800 266.556 C 116.800 267.082,116.444 268.297,116.009 269.256 C 114.768 271.992,114.879 278.038,116.210 280.200 C 118.028 283.151,118.424 282.584,105.100 296.081 C 103.615 297.586,102.400 298.981,102.400 299.181 C 102.400 299.382,102.040 299.660,101.600 299.800 C 101.160 299.940,100.800 300.213,100.800 300.406 C 100.800 300.600,98.820 302.749,96.400 305.182 C 93.980 307.615,92.000 309.772,92.000 309.976 C 92.000 310.179,91.649 310.457,91.220 310.594 C 90.792 310.730,90.336 311.172,90.207 311.577 C 90.079 311.982,89.619 312.406,89.187 312.519 C 88.754 312.633,88.400 313.000,88.400 313.336 C 88.400 313.671,88.049 314.057,87.620 314.194 C 87.192 314.330,86.736 314.772,86.607 315.177 C 86.479 315.582,86.019 316.006,85.587 316.119 C 85.154 316.233,84.800 316.600,84.800 316.936 C 84.800 317.271,84.440 317.660,84.000 317.800 C 83.560 317.940,83.200 318.329,83.200 318.664 C 83.200 319.000,82.840 319.369,82.400 319.484 C 81.960 319.599,81.600 319.844,81.600 320.028 C 81.600 320.213,77.955 324.049,73.500 328.554 C 65.262 336.885,44.490 358.161,39.400 363.482 C 37.860 365.092,33.855 369.184,30.500 372.575 C 27.145 375.967,24.400 378.922,24.400 379.144 C 24.400 379.365,24.049 379.657,23.620 379.794 C 23.192 379.930,22.733 380.383,22.600 380.800 C 22.467 381.217,22.008 381.670,21.580 381.806 C 21.151 381.943,20.800 382.300,20.800 382.600 C 20.800 382.900,20.440 383.260,20.000 383.400 C 19.560 383.540,19.200 383.817,19.200 384.015 C 19.200 384.533,7.723 396.000,7.206 396.000 C 6.969 396.000,6.671 396.270,6.545 396.600 C 6.418 396.930,5.906 397.200,5.406 397.200 C 4.907 397.200,4.274 396.930,4.000 396.600 C 3.726 396.270,3.230 396.000,2.898 396.000 C 2.141 396.000,2.396 366.411,3.174 364.000 C 3.447 363.152,3.750 356.847,3.943 348.000 C 4.179 337.148,4.397 333.147,4.791 332.413 C 5.146 331.753,5.470 328.248,5.772 321.813 C 6.049 315.915,6.409 311.869,6.703 311.342 C 6.967 310.871,7.288 308.171,7.418 305.342 C 7.547 302.514,7.984 298.850,8.389 297.200 C 8.794 295.550,9.239 292.248,9.378 289.863 C 9.548 286.933,9.836 285.211,10.266 284.556 C 10.682 283.920,10.968 282.313,11.095 279.893 C 11.218 277.536,11.513 275.843,11.911 275.212 C 12.276 274.633,12.665 272.665,12.851 270.461 C 13.071 267.858,13.375 266.470,13.837 265.959 C 14.277 265.473,14.576 264.231,14.713 262.321 C 14.841 260.524,15.201 258.961,15.659 258.211 C 16.117 257.460,16.398 256.238,16.399 254.994 C 16.399 253.800,16.703 252.422,17.149 251.590 C 17.561 250.821,18.034 249.204,18.200 247.996 C 18.366 246.788,18.839 245.371,19.251 244.846 C 19.713 244.257,20.000 243.248,20.000 242.208 C 20.000 241.069,20.243 240.304,20.751 239.845 C 21.197 239.441,21.612 238.334,21.773 237.117 C 21.923 235.991,22.395 234.624,22.822 234.081 C 23.250 233.537,23.600 232.493,23.600 231.762 C 23.600 230.988,23.911 230.131,24.343 229.716 C 24.752 229.322,25.196 228.290,25.331 227.423 C 25.465 226.556,25.850 225.692,26.186 225.504 C 26.522 225.316,26.910 224.452,27.049 223.584 C 27.188 222.716,27.620 221.639,28.009 221.190 C 28.397 220.742,28.830 219.768,28.969 219.026 C 29.108 218.284,29.453 217.589,29.735 217.480 C 30.017 217.372,30.464 216.563,30.728 215.683 C 30.992 214.803,31.476 213.980,31.804 213.854 C 32.132 213.728,32.400 213.284,32.400 212.866 C 32.400 212.449,32.756 211.655,33.192 211.101 C 33.628 210.547,34.177 209.668,34.413 209.147 C 34.648 208.626,35.237 207.565,35.721 206.789 C 36.204 206.013,36.960 204.799,37.400 204.092 C 37.840 203.384,38.331 202.804,38.492 202.803 C 38.652 202.801,39.151 202.080,39.600 201.200 C 40.049 200.320,40.593 199.600,40.808 199.600 C 41.024 199.600,41.200 199.362,41.200 199.072 C 41.200 198.782,41.605 198.164,42.100 197.699 C 42.595 197.234,43.450 196.265,44.000 195.544 C 46.510 192.255,57.598 181.600,58.510 181.600 C 58.830 181.600,59.541 181.247,60.090 180.815 C 61.666 179.575,68.845 176.000,69.758 176.000 C 70.213 176.000,71.488 175.657,72.592 175.238 C 77.602 173.338,81.065 172.681,92.000 171.555 C 99.818 170.751,117.037 171.905,122.828 173.621 C 124.274 174.049,126.491 174.400,127.754 174.400 C 129.102 174.400,130.826 174.717,131.926 175.168 C 132.957 175.590,134.776 176.051,135.969 176.191 C 137.162 176.331,138.502 176.641,138.947 176.879 C 139.649 177.255,142.915 178.181,148.600 179.616 C 149.480 179.838,151.043 180.376,152.074 180.810 C 153.105 181.245,154.248 181.600,154.614 181.600 C 154.980 181.600,155.846 181.861,156.540 182.179 C 157.890 182.799,161.548 184.138,164.272 185.010 C 165.192 185.304,166.362 185.806,166.872 186.125 C 167.382 186.444,168.340 186.822,169.000 186.966 C 169.660 187.110,170.740 187.482,171.400 187.793 C 174.839 189.412,177.202 190.400,177.637 190.400 C 177.904 190.400,179.130 190.863,180.361 191.429 C 181.593 191.995,183.410 192.828,184.400 193.281 C 185.390 193.734,186.857 194.436,187.660 194.841 C 190.005 196.024,192.186 196.231,192.966 195.344 C 196.437 191.396,196.530 192.026,190.938 181.600 C 188.181 176.460,187.688 175.587,186.202 173.200 C 185.448 171.990,184.824 170.803,184.816 170.562 C 184.807 170.321,184.440 169.798,184.000 169.400 C 183.560 169.002,183.200 168.492,183.200 168.267 C 183.200 167.473,173.838 153.627,172.930 153.080 C 172.639 152.904,172.400 152.577,172.400 152.353 C 172.400 152.004,170.411 149.360,168.075 146.603 C 167.704 146.165,166.432 144.635,165.250 143.203 C 164.067 141.771,160.871 138.350,158.147 135.600 C 152.584 129.984,149.275 127.155,145.400 124.706 C 144.960 124.428,143.868 123.630,142.973 122.933 C 135.762 117.318,124.797 114.591,119.735 117.154 M287.400 285.600 C 288.928 287.140,290.269 288.400,290.379 288.400 C 290.489 288.400,289.328 287.140,287.800 285.600 C 286.272 284.060,284.931 282.800,284.821 282.800 C 284.711 282.800,285.872 284.060,287.400 285.600 M126.800 290.600 C 127.546 291.370,128.247 292.000,128.357 292.000 C 128.467 292.000,127.946 291.370,127.200 290.600 C 126.454 289.830,125.753 289.200,125.643 289.200 C 125.533 289.200,126.054 289.830,126.800 290.600 M131.800 295.600 C 133.328 297.140,134.669 298.400,134.779 298.400 C 134.889 298.400,133.728 297.140,132.200 295.600 C 130.672 294.060,129.331 292.800,129.221 292.800 C 129.111 292.800,130.272 294.060,131.800 295.600 M301.200 298.870 C 301.200 298.948,302.044 299.819,303.075 300.806 C 304.107 301.793,304.692 302.221,304.375 301.757 C 303.832 300.960,301.200 298.568,301.200 298.870 M307.187 304.691 C 307.424 305.181,308.019 305.776,308.509 306.013 C 309.338 306.414,309.349 306.403,308.668 305.854 C 308.265 305.530,307.670 304.935,307.346 304.532 C 306.797 303.851,306.786 303.862,307.187 304.691 M182.815 345.363 C 183.970 346.870,185.716 348.585,185.296 347.800 C 185.061 347.360,184.275 346.460,183.550 345.800 C 182.824 345.140,182.494 344.943,182.815 345.363 M381.183 376.900 C 382.164 377.945,383.019 378.800,383.083 378.800 C 383.384 378.800,383.066 378.441,381.300 376.783 L 379.400 375.000 381.183 376.900 M301.905 393.083 C 302.402 393.179,303.122 393.175,303.505 393.075 C 303.887 392.975,303.480 392.896,302.600 392.901 C 301.720 392.905,301.407 392.987,301.905 393.083 M313.700 394.687 C 314.305 394.778,315.295 394.778,315.900 394.687 C 316.505 394.595,316.010 394.520,314.800 394.520 C 313.590 394.520,313.095 394.595,313.700 394.687 M323.705 395.087 C 324.314 395.179,325.214 395.177,325.705 395.082 C 326.197 394.987,325.700 394.911,324.600 394.914 C 323.500 394.917,323.097 394.995,323.705 395.087 M342.900 396.691 C 343.725 396.778,345.075 396.778,345.900 396.691 C 346.725 396.605,346.050 396.534,344.400 396.534 C 342.750 396.534,342.075 396.605,342.900 396.691 M375.500 398.298 C 377.535 398.371,380.865 398.371,382.900 398.298 C 384.935 398.225,383.270 398.166,379.200 398.166 C 375.130 398.166,373.465 398.225,375.500 398.298 " stroke="none" fill="#07a9e3" fill-rule="evenodd"></path><path id="path1" d="M3.094 2.913 C 0.684 6.072,-0.988 4.051,24.834 29.200 C 32.175 36.350,41.600 45.530,45.778 49.600 C 49.956 53.670,56.244 59.790,59.750 63.200 C 63.257 66.610,68.599 71.830,71.622 74.800 C 74.644 77.770,82.381 85.330,88.813 91.600 C 106.057 108.408,109.032 111.315,113.003 115.234 L 116.606 118.791 119.403 117.370 C 125.478 114.284,136.164 117.253,145.600 124.648 C 149.408 127.632,149.918 128.000,150.263 128.010 C 150.681 128.022,164.945 142.352,165.440 143.257 C 165.638 143.618,166.464 144.698,167.276 145.657 C 168.468 147.064,171.473 150.855,173.097 153.000 C 175.161 155.727,175.862 156.697,176.200 157.293 C 176.420 157.681,177.244 158.944,178.032 160.099 C 179.443 162.169,182.357 166.656,183.813 169.000 C 184.223 169.660,185.083 171.190,185.725 172.400 C 186.366 173.610,187.122 174.870,187.405 175.200 C 188.354 176.308,195.311 189.816,195.786 191.472 C 196.072 192.470,197.546 192.916,200.114 192.781 C 202.938 192.633,203.496 192.760,203.716 193.600 C 203.841 194.079,204.262 194.400,204.763 194.400 C 205.252 194.400,205.600 194.657,205.600 195.020 C 205.600 195.361,205.903 196.216,206.273 196.920 L 206.946 198.200 207.190 197.205 C 207.359 196.516,207.920 196.025,209.017 195.605 C 209.888 195.272,211.860 194.319,213.400 193.487 C 214.940 192.655,216.605 191.871,217.100 191.744 C 217.595 191.617,218.000 191.361,218.000 191.176 C 218.000 190.990,219.485 190.090,221.300 189.175 C 223.115 188.260,225.320 187.088,226.200 186.571 C 229.864 184.416,230.685 183.918,232.400 182.808 C 234.712 181.312,235.591 180.774,237.250 179.839 C 237.992 179.421,239.562 178.296,240.737 177.339 C 241.912 176.383,243.021 175.600,243.201 175.600 C 243.381 175.600,244.439 174.880,245.552 174.000 C 246.666 173.120,247.690 172.400,247.830 172.400 C 248.063 172.400,250.310 170.608,254.759 166.876 C 259.828 162.622,267.510 155.145,270.204 151.843 C 271.082 150.766,272.105 149.561,272.479 149.164 C 272.852 148.767,273.814 147.488,274.616 146.322 C 275.419 145.155,276.213 144.110,276.382 144.000 C 276.550 143.890,276.991 143.260,277.360 142.600 C 277.729 141.940,278.468 140.680,279.002 139.800 C 279.535 138.920,280.253 137.570,280.596 136.800 C 280.939 136.030,281.405 135.072,281.631 134.671 C 284.822 129.018,284.427 119.781,280.879 117.052 C 280.286 116.596,277.897 114.327,275.571 112.011 C 273.246 109.695,268.652 105.190,265.363 102.000 C 244.585 81.846,232.428 69.957,221.840 59.436 C 215.218 52.856,208.733 46.582,207.429 45.494 C 206.125 44.406,204.415 42.905,203.629 42.159 C 202.843 41.412,201.885 40.699,201.500 40.574 C 201.115 40.449,200.800 40.207,200.800 40.038 C 200.800 39.391,188.831 32.017,184.000 29.688 C 183.450 29.423,182.730 29.045,182.400 28.848 C 182.070 28.650,180.720 28.008,179.400 27.419 C 178.080 26.830,176.334 26.000,175.521 25.574 C 174.707 25.148,173.712 24.800,173.310 24.800 C 172.907 24.800,172.159 24.507,171.648 24.148 C 171.136 23.790,169.971 23.256,169.059 22.962 C 168.146 22.667,165.870 21.868,164.000 21.186 C 162.130 20.503,159.688 19.711,158.573 19.426 C 157.458 19.140,156.198 18.722,155.773 18.498 C 155.348 18.273,153.920 17.870,152.600 17.601 C 151.280 17.333,150.002 16.953,149.760 16.758 C 149.519 16.562,148.349 16.224,147.160 16.005 C 145.972 15.787,143.830 15.266,142.400 14.847 C 140.970 14.428,138.900 13.900,137.800 13.674 C 136.700 13.448,135.080 13.075,134.200 12.846 C 131.995 12.271,126.661 11.261,121.338 10.409 C 118.884 10.016,116.691 9.580,116.464 9.440 C 116.237 9.299,114.105 9.001,111.726 8.776 C 109.347 8.551,106.410 8.117,105.200 7.810 C 103.990 7.504,101.290 7.139,99.200 6.999 C 97.110 6.860,93.240 6.411,90.600 6.002 C 87.960 5.594,83.460 5.150,80.600 5.017 C 77.740 4.883,73.510 4.516,71.200 4.201 C 68.890 3.886,62.590 3.438,57.200 3.206 C 51.810 2.974,45.043 2.619,42.162 2.417 C 39.281 2.214,29.559 1.921,20.556 1.764 L 4.187 1.479 3.094 2.913 " stroke="none" fill="#e8462c" fill-rule="evenodd"></path><path id="path2" d="M195.606 192.280 C 195.603 192.764,195.343 193.304,195.030 193.480 C 193.264 194.470,192.228 196.944,192.071 200.538 C 191.918 204.062,191.913 204.077,190.659 204.644 C 189.966 204.956,189.130 205.385,188.800 205.596 C 188.470 205.808,187.570 206.255,186.800 206.590 C 185.425 207.188,180.747 209.687,177.200 211.717 C 176.210 212.284,174.860 213.030,174.200 213.375 C 173.540 213.720,172.190 214.535,171.200 215.186 C 170.210 215.837,168.860 216.653,168.200 216.999 C 165.641 218.341,159.339 222.430,158.366 223.381 C 158.018 223.721,157.615 224.000,157.471 224.000 C 157.327 224.000,156.144 224.810,154.842 225.800 C 153.540 226.790,152.289 227.600,152.060 227.600 C 151.832 227.600,151.410 227.930,151.123 228.332 C 150.835 228.735,149.108 230.202,147.284 231.592 C 140.935 236.430,130.106 247.039,127.065 251.400 C 126.451 252.280,125.330 253.810,124.574 254.800 C 123.818 255.790,123.083 256.870,122.939 257.200 C 122.796 257.530,122.457 258.070,122.185 258.400 C 120.887 259.981,117.898 266.473,117.138 269.364 C 115.856 274.241,115.821 275.238,116.818 278.457 C 117.859 281.822,116.755 280.686,157.758 320.600 C 163.408 326.100,172.140 334.650,177.163 339.600 C 192.019 354.242,199.361 360.745,203.199 362.659 C 203.860 362.989,204.400 363.398,204.400 363.569 C 204.400 363.739,205.075 364.179,205.900 364.546 C 206.725 364.913,208.840 366.108,210.600 367.200 C 212.360 368.293,214.070 369.290,214.400 369.416 C 214.730 369.541,215.450 369.898,216.000 370.210 C 216.550 370.521,217.450 370.976,218.000 371.221 C 218.550 371.466,219.666 372.011,220.479 372.433 C 221.293 372.855,222.214 373.200,222.525 373.200 C 222.837 373.200,223.536 373.549,224.078 373.975 C 224.620 374.402,225.589 374.873,226.232 375.022 C 226.874 375.172,228.120 375.611,229.000 375.999 C 232.009 377.325,236.015 378.800,236.609 378.800 C 236.936 378.800,237.875 379.160,238.696 379.600 C 239.516 380.040,240.602 380.400,241.107 380.400 C 241.612 380.400,242.695 380.690,243.513 381.044 C 245.190 381.769,249.599 383.042,252.600 383.667 C 253.700 383.896,255.680 384.414,257.000 384.819 C 258.320 385.223,260.480 385.747,261.800 385.983 C 263.120 386.219,264.920 386.671,265.800 386.988 C 266.680 387.305,268.232 387.573,269.250 387.582 C 270.267 387.592,271.865 387.870,272.801 388.200 C 273.737 388.531,276.382 389.080,278.680 389.421 C 280.977 389.762,283.283 390.204,283.806 390.402 C 284.328 390.601,286.790 390.942,289.278 391.160 C 291.765 391.378,294.970 391.819,296.400 392.139 C 297.830 392.458,300.882 392.839,303.183 392.984 C 305.484 393.129,308.454 393.504,309.783 393.816 C 311.112 394.128,315.170 394.493,318.800 394.627 C 322.430 394.761,326.840 395.132,328.600 395.452 C 330.360 395.772,336.660 396.206,342.600 396.416 C 348.540 396.627,357.000 397.065,361.400 397.389 C 365.800 397.714,375.309 398.029,382.531 398.090 L 395.662 398.200 396.831 396.894 C 399.152 394.300,399.617 394.842,372.181 368.200 C 366.291 362.480,357.765 354.195,353.236 349.789 C 348.706 345.383,343.500 340.343,341.668 338.589 C 339.835 336.835,334.054 331.170,328.822 326.000 C 320.377 317.655,312.258 309.723,289.832 287.907 L 283.464 281.713 281.032 282.692 C 276.494 284.519,272.167 284.901,270.614 283.611 C 270.356 283.398,269.168 283.017,267.973 282.766 C 266.778 282.515,265.530 282.083,265.200 281.806 C 264.870 281.528,263.939 281.089,263.132 280.830 C 262.325 280.571,261.448 280.098,261.183 279.780 C 260.918 279.461,260.468 279.200,260.182 279.200 C 259.896 279.200,259.127 278.750,258.473 278.200 C 257.819 277.650,257.113 277.200,256.904 277.200 C 256.695 277.200,256.198 276.840,255.800 276.400 C 255.402 275.960,254.845 275.600,254.563 275.600 C 254.280 275.600,253.453 275.044,252.725 274.364 C 251.996 273.684,250.950 272.829,250.400 272.464 C 247.826 270.755,236.765 259.650,233.600 255.597 C 233.050 254.893,232.420 254.110,232.200 253.858 C 230.719 252.161,229.286 250.402,228.600 249.441 C 228.160 248.825,227.350 247.716,226.800 246.977 C 226.250 246.238,225.350 244.986,224.800 244.196 C 224.250 243.405,223.035 241.747,222.100 240.509 C 221.165 239.272,220.400 238.050,220.400 237.792 C 220.400 237.535,220.040 236.998,219.600 236.600 C 219.160 236.202,218.797 235.679,218.793 235.438 C 218.786 235.053,216.988 232.103,216.088 231.000 C 215.665 230.482,212.680 225.217,210.452 221.061 C 207.647 215.827,207.211 215.034,206.794 214.400 C 206.577 214.070,206.212 213.350,205.983 212.800 C 205.753 212.250,205.306 211.350,204.989 210.800 C 203.904 208.920,204.235 207.386,206.159 205.378 C 208.093 203.360,208.690 201.298,208.192 198.353 C 208.010 197.276,208.096 196.565,208.463 196.121 C 208.946 195.534,208.910 195.517,208.100 195.949 C 207.591 196.220,207.194 196.813,207.187 197.314 C 207.170 198.527,206.064 197.155,205.725 195.500 C 205.571 194.749,205.250 194.400,204.713 194.400 C 204.262 194.400,203.836 194.058,203.716 193.600 C 203.601 193.160,203.213 192.787,202.853 192.771 C 202.494 192.755,200.888 192.710,199.285 192.671 C 197.189 192.620,196.264 192.432,195.991 192.000 C 195.685 191.516,195.611 191.570,195.606 192.280 " stroke="none" fill="#04b248" fill-rule="evenodd"></path><path id="path3" d="M0.000 200.000 L 0.000 400.000 200.000 400.000 L 400.000 400.000 400.000 200.000 L 400.000 0.000 200.000 0.000 L 0.000 0.000 0.000 200.000 M42.162 2.417 C 45.043 2.619,51.810 2.974,57.200 3.206 C 62.590 3.438,68.890 3.886,71.200 4.201 C 73.510 4.516,77.740 4.883,80.600 5.017 C 83.460 5.150,87.960 5.594,90.600 6.002 C 93.240 6.411,97.110 6.860,99.200 6.999 C 101.290 7.139,103.990 7.504,105.200 7.810 C 106.410 8.117,109.347 8.551,111.726 8.776 C 114.105 9.001,116.237 9.299,116.464 9.440 C 116.691 9.580,118.884 10.016,121.338 10.409 C 126.661 11.261,131.995 12.271,134.200 12.846 C 135.080 13.075,136.700 13.448,137.800 13.674 C 138.900 13.900,140.970 14.428,142.400 14.847 C 143.830 15.266,145.972 15.787,147.160 16.005 C 148.349 16.224,149.519 16.562,149.760 16.758 C 150.002 16.953,151.280 17.333,152.600 17.601 C 153.920 17.870,155.348 18.273,155.773 18.498 C 156.198 18.722,157.458 19.140,158.573 19.426 C 159.688 19.711,162.130 20.503,164.000 21.186 C 165.870 21.868,168.146 22.667,169.059 22.962 C 169.971 23.256,171.136 23.790,171.648 24.148 C 172.159 24.507,172.907 24.800,173.310 24.800 C 173.712 24.800,174.707 25.148,175.521 25.574 C 176.334 26.000,178.080 26.830,179.400 27.419 C 180.720 28.008,182.070 28.650,182.400 28.848 C 182.730 29.045,183.450 29.423,184.000 29.688 C 188.831 32.017,200.800 39.391,200.800 40.038 C 200.800 40.207,201.115 40.449,201.500 40.574 C 201.885 40.699,202.843 41.412,203.629 42.159 C 204.415 42.905,206.125 44.406,207.429 45.494 C 208.733 46.582,215.218 52.856,221.840 59.436 C 232.494 70.022,246.302 83.524,265.369 102.000 C 268.661 105.190,273.166 109.600,275.381 111.800 C 280.615 117.001,281.707 117.957,281.554 117.200 C 281.486 116.866,283.640 114.371,286.416 111.570 C 289.157 108.803,294.351 103.493,297.959 99.770 C 301.566 96.046,312.291 85.080,321.793 75.400 C 339.019 57.850,348.798 47.817,358.618 37.618 C 366.576 29.352,374.115 21.631,384.251 11.368 C 394.595 0.894,394.582 0.902,397.073 3.393 L 398.466 4.786 398.211 17.693 C 398.071 24.792,397.617 35.730,397.203 42.000 C 396.789 48.270,396.350 57.090,396.227 61.600 C 396.104 66.110,395.820 70.430,395.596 71.200 C 395.372 71.970,395.015 76.044,394.802 80.254 C 394.589 84.463,394.240 88.368,394.027 88.930 C 393.813 89.492,393.438 92.258,393.193 95.076 C 392.758 100.088,392.341 103.177,391.611 106.800 C 391.411 107.790,391.229 109.680,391.206 111.000 C 391.184 112.320,390.898 114.120,390.572 115.000 C 390.246 115.880,389.720 118.580,389.403 121.000 C 389.086 123.420,388.550 126.384,388.213 127.587 C 387.876 128.790,387.600 130.337,387.600 131.025 C 387.600 131.712,387.255 133.278,386.833 134.504 C 386.411 135.731,385.938 137.784,385.782 139.067 C 385.626 140.350,385.258 141.872,384.965 142.450 C 384.671 143.027,384.244 144.672,384.015 146.105 C 383.786 147.538,383.330 149.226,383.002 149.855 C 382.674 150.485,382.404 151.543,382.402 152.206 C 382.401 152.869,382.025 154.112,381.566 154.968 C 381.108 155.823,380.579 157.351,380.392 158.362 C 379.999 160.482,378.637 164.541,377.828 166.000 C 377.523 166.550,377.141 167.720,376.979 168.600 C 376.817 169.480,376.350 170.629,375.942 171.154 C 375.534 171.679,375.200 172.440,375.200 172.846 C 375.200 173.252,374.371 175.253,373.357 177.292 C 372.343 179.332,371.058 181.990,370.501 183.200 C 369.379 185.637,369.478 185.449,367.190 189.490 C 366.291 191.080,365.399 192.477,365.208 192.595 C 365.017 192.713,364.743 193.347,364.599 194.004 C 364.455 194.661,364.036 195.424,363.668 195.700 C 363.301 195.975,362.463 197.010,361.807 198.000 C 357.410 204.633,354.355 207.922,322.800 239.999 C 316.321 246.585,294.086 269.488,289.983 273.800 C 285.259 278.766,284.000 280.311,284.000 281.141 C 284.000 281.790,292.691 290.703,299.920 297.468 C 301.526 298.970,307.766 305.060,313.787 311.000 C 337.731 334.623,343.642 340.431,349.413 346.000 C 352.719 349.190,360.792 357.020,367.354 363.400 C 373.916 369.780,379.455 375.107,379.663 375.237 C 380.452 375.730,396.241 391.587,397.100 392.750 C 398.319 394.399,398.232 395.568,396.772 397.166 L 395.544 398.511 380.872 398.272 C 372.643 398.137,363.565 397.767,360.200 397.428 C 356.900 397.096,351.950 396.816,349.200 396.806 C 342.617 396.783,330.743 396.085,328.655 395.598 C 327.745 395.386,324.030 395.108,320.400 394.980 C 316.604 394.847,312.185 394.434,310.000 394.008 C 307.910 393.601,304.310 393.154,302.000 393.014 C 299.690 392.874,296.739 392.487,295.442 392.154 C 294.146 391.821,291.176 391.388,288.842 391.191 C 286.509 390.995,283.610 390.579,282.400 390.267 C 281.190 389.955,279.118 389.594,277.796 389.466 C 276.474 389.337,274.633 388.964,273.705 388.637 C 272.777 388.310,270.889 387.927,269.509 387.788 C 268.129 387.648,265.920 387.203,264.600 386.799 C 263.280 386.394,261.302 385.942,260.205 385.793 C 259.108 385.644,257.756 385.287,257.200 385.000 C 256.644 384.713,255.292 384.356,254.195 384.207 C 252.354 383.958,249.761 383.244,245.200 381.732 C 244.210 381.403,242.500 380.902,241.400 380.618 C 240.300 380.334,238.770 379.834,238.000 379.507 C 236.190 378.739,233.028 377.658,231.000 377.114 C 230.120 376.879,229.130 376.463,228.800 376.190 C 228.470 375.918,227.750 375.572,227.200 375.423 C 226.107 375.126,222.655 373.596,220.321 372.374 C 219.507 371.948,218.500 371.600,218.083 371.600 C 217.665 371.600,216.998 371.240,216.600 370.800 C 216.202 370.360,215.706 370.000,215.498 370.000 C 215.170 370.000,209.834 367.026,205.809 364.600 C 203.118 362.978,199.356 360.338,197.800 358.980 C 196.920 358.212,195.501 357.047,194.646 356.392 C 192.026 354.385,186.508 349.135,173.483 336.261 C 166.617 329.474,152.090 315.254,141.200 304.661 C 130.310 294.067,121.165 285.085,120.877 284.700 C 119.518 282.880,118.482 283.593,110.544 291.809 C 106.395 296.104,98.174 304.519,92.275 310.509 C 82.660 320.273,74.520 328.605,49.399 354.396 C 41.976 362.017,33.424 370.815,27.800 376.617 C 22.901 381.670,8.549 396.172,7.714 396.912 C 5.953 398.472,4.471 398.498,2.968 396.995 L 1.600 395.627 1.598 383.513 C 1.597 375.901,1.887 366.867,2.378 359.200 C 2.808 352.490,3.347 343.040,3.575 338.200 C 3.804 333.360,4.168 328.680,4.385 327.800 C 4.602 326.920,4.891 323.410,5.027 320.000 C 5.163 316.590,5.603 311.730,6.004 309.200 C 6.404 306.670,6.850 302.890,6.995 300.800 C 7.139 298.710,7.604 295.388,8.028 293.419 C 8.453 291.449,8.800 288.817,8.800 287.569 C 8.800 286.321,9.067 284.545,9.392 283.622 C 9.718 282.699,10.171 280.446,10.398 278.616 C 10.625 276.786,11.075 274.414,11.397 273.345 C 11.719 272.275,12.101 270.320,12.246 269.000 C 12.391 267.680,12.819 265.790,13.198 264.800 C 13.577 263.810,14.005 261.952,14.150 260.670 C 14.295 259.389,14.681 257.702,15.007 256.921 C 15.333 256.140,15.781 254.374,16.001 252.995 C 16.221 251.617,16.670 249.974,16.998 249.345 C 17.326 248.715,17.600 247.750,17.606 247.200 C 17.613 246.650,17.966 245.433,18.392 244.494 C 18.817 243.556,19.288 242.116,19.437 241.294 C 19.586 240.473,20.044 239.132,20.454 238.316 C 20.864 237.500,21.201 236.420,21.201 235.916 C 21.202 235.412,21.541 234.445,21.955 233.767 C 22.369 233.088,22.832 231.794,22.985 230.890 C 23.138 229.986,23.507 229.043,23.806 228.795 C 24.104 228.548,24.473 227.772,24.624 227.072 C 24.776 226.373,25.231 225.170,25.635 224.400 C 26.937 221.918,28.400 218.466,28.400 217.874 C 28.400 217.557,28.662 217.081,28.982 216.815 C 29.302 216.549,30.220 215.042,31.020 213.466 C 34.495 206.625,38.309 200.939,43.787 194.435 C 46.149 191.629,60.360 177.014,98.230 138.439 C 104.407 132.148,111.140 125.216,113.192 123.035 L 116.923 119.070 108.713 111.035 C 104.198 106.616,95.242 97.870,88.811 91.600 C 82.379 85.330,74.644 77.770,71.622 74.800 C 68.599 71.830,63.257 66.610,59.750 63.200 C 56.244 59.790,49.956 53.670,45.778 49.600 C 41.600 45.530,32.175 36.350,24.834 29.200 C -0.988 4.051,0.684 6.072,3.094 2.913 L 4.187 1.479 20.556 1.764 C 29.559 1.921,39.281 2.214,42.162 2.417 " stroke="none" fill="#fbfbfb" fill-rule="evenodd"></path><path id="path4" d="M91.000 171.593 C 80.754 172.755,77.374 173.425,72.592 175.238 C 71.488 175.657,70.213 176.000,69.758 176.000 C 68.845 176.000,61.666 179.575,60.090 180.815 C 59.541 181.247,58.830 181.600,58.510 181.600 C 57.598 181.600,46.510 192.255,44.000 195.544 C 43.450 196.265,42.595 197.234,42.100 197.699 C 41.605 198.164,41.200 198.782,41.200 199.072 C 41.200 199.362,41.024 199.600,40.808 199.600 C 40.593 199.600,40.049 200.320,39.600 201.200 C 39.151 202.080,38.652 202.801,38.492 202.803 C 38.331 202.804,37.840 203.384,37.400 204.092 C 36.960 204.799,36.204 206.013,35.721 206.789 C 35.237 207.565,34.648 208.626,34.413 209.147 C 34.177 209.668,33.628 210.547,33.192 211.101 C 32.756 211.655,32.400 212.449,32.400 212.866 C 32.400 213.284,32.132 213.728,31.804 213.854 C 31.476 213.980,30.992 214.803,30.728 215.683 C 30.464 216.563,30.017 217.372,29.735 217.480 C 29.453 217.589,29.108 218.284,28.969 219.026 C 28.830 219.768,28.397 220.742,28.009 221.190 C 27.620 221.639,27.188 222.716,27.049 223.584 C 26.910 224.452,26.522 225.316,26.186 225.504 C 25.850 225.692,25.465 226.556,25.331 227.423 C 25.196 228.290,24.752 229.322,24.343 229.716 C 23.911 230.131,23.600 230.988,23.600 231.762 C 23.600 232.493,23.250 233.537,22.822 234.081 C 22.395 234.624,21.923 235.991,21.773 237.117 C 21.612 238.334,21.197 239.441,20.751 239.845 C 20.243 240.304,20.000 241.069,20.000 242.208 C 20.000 243.248,19.713 244.257,19.251 244.846 C 18.839 245.371,18.366 246.788,18.200 247.996 C 18.034 249.204,17.561 250.821,17.149 251.590 C 16.703 252.422,16.399 253.800,16.399 254.994 C 16.398 256.238,16.117 257.460,15.659 258.211 C 15.201 258.961,14.841 260.524,14.713 262.321 C 14.576 264.231,14.277 265.473,13.837 265.959 C 13.375 266.470,13.071 267.858,12.851 270.461 C 12.665 272.665,12.276 274.633,11.911 275.212 C 11.513 275.843,11.218 277.536,11.095 279.893 C 10.968 282.313,10.682 283.920,10.266 284.556 C 9.836 285.211,9.548 286.933,9.378 289.863 C 9.239 292.248,8.794 295.550,8.389 297.200 C 7.984 298.850,7.547 302.514,7.418 305.342 C 7.288 308.171,6.967 310.871,6.703 311.342 C 6.409 311.869,6.049 315.915,5.772 321.813 C 5.470 328.248,5.146 331.753,4.791 332.413 C 4.397 333.147,4.179 337.148,3.943 348.000 C 3.750 356.847,3.447 363.152,3.174 364.000 C 2.396 366.411,2.141 396.000,2.898 396.000 C 3.230 396.000,3.726 396.270,4.000 396.600 C 4.643 397.375,6.247 397.375,6.545 396.600 C 6.671 396.270,6.969 396.000,7.206 396.000 C 7.723 396.000,19.200 384.533,19.200 384.015 C 19.200 383.817,19.560 383.540,20.000 383.400 C 20.440 383.260,20.800 382.900,20.800 382.600 C 20.800 382.300,21.151 381.943,21.580 381.806 C 22.008 381.670,22.467 381.217,22.600 380.800 C 22.733 380.383,23.192 379.930,23.620 379.794 C 24.049 379.657,24.400 379.365,24.400 379.144 C 24.400 378.922,27.145 375.967,30.500 372.575 C 33.855 369.184,37.860 365.092,39.400 363.482 C 44.490 358.161,65.262 336.885,73.500 328.554 C 77.955 324.049,81.600 320.213,81.600 320.028 C 81.600 319.844,81.960 319.599,82.400 319.484 C 82.840 319.369,83.200 319.000,83.200 318.664 C 83.200 318.329,83.560 317.940,84.000 317.800 C 84.440 317.660,84.800 317.271,84.800 316.936 C 84.800 316.600,85.154 316.233,85.587 316.119 C 86.019 316.006,86.479 315.582,86.607 315.177 C 86.736 314.772,87.172 314.336,87.577 314.207 C 87.982 314.079,88.406 313.619,88.519 313.187 C 88.633 312.754,89.000 312.400,89.336 312.400 C 89.671 312.400,90.057 312.049,90.194 311.620 C 90.330 311.192,90.792 310.730,91.220 310.594 C 91.649 310.457,92.000 310.179,92.000 309.976 C 92.000 309.772,93.980 307.615,96.400 305.182 C 98.820 302.749,100.800 300.600,100.800 300.406 C 100.800 300.213,101.160 299.940,101.600 299.800 C 102.040 299.660,102.400 299.382,102.400 299.181 C 102.400 298.981,103.615 297.586,105.100 296.081 C 118.424 282.584,118.028 283.151,116.210 280.200 C 114.879 278.038,114.768 271.992,116.009 269.256 C 116.444 268.297,116.800 267.082,116.800 266.556 C 116.800 266.030,117.142 265.258,117.559 264.841 C 117.977 264.423,118.438 263.538,118.584 262.874 C 118.730 262.209,119.198 261.263,119.625 260.772 C 120.051 260.280,120.400 259.644,120.400 259.359 C 120.400 259.074,120.850 258.356,121.400 257.762 C 121.950 257.169,122.400 256.448,122.400 256.161 C 122.400 255.875,122.646 255.496,122.946 255.320 C 123.246 255.144,123.768 254.460,124.106 253.800 C 124.444 253.140,125.368 251.934,126.160 251.120 C 126.952 250.306,127.600 249.452,127.600 249.223 C 127.600 248.994,127.960 248.582,128.400 248.307 C 128.840 248.032,129.202 247.626,129.205 247.404 C 129.214 246.622,142.425 234.000,143.234 234.000 C 143.435 234.000,143.600 233.730,143.600 233.400 C 143.600 233.070,143.774 232.800,143.986 232.800 C 144.199 232.800,144.894 232.305,145.532 231.700 C 146.170 231.095,147.200 230.240,147.821 229.800 C 148.441 229.360,149.436 228.595,150.032 228.100 C 150.628 227.605,151.306 227.200,151.538 227.200 C 151.770 227.200,152.105 226.942,152.281 226.627 C 152.702 225.875,155.110 224.127,156.500 223.566 C 157.105 223.322,157.600 222.982,157.600 222.812 C 157.600 222.642,158.605 221.894,159.832 221.151 C 161.060 220.408,162.340 219.543,162.676 219.228 C 163.331 218.614,165.006 217.626,167.100 216.616 C 167.815 216.271,168.400 215.831,168.400 215.638 C 168.400 215.445,169.075 214.983,169.900 214.613 C 172.094 213.626,173.958 212.562,174.759 211.837 C 175.146 211.487,175.738 211.200,176.073 211.200 C 176.409 211.200,177.169 210.750,177.762 210.200 C 178.356 209.650,179.164 209.200,179.559 209.200 C 179.953 209.200,180.586 208.858,180.964 208.440 C 181.343 208.021,182.253 207.567,182.988 207.429 C 183.722 207.291,184.418 206.930,184.534 206.627 C 184.651 206.324,185.343 205.947,186.073 205.791 C 186.803 205.635,187.706 205.185,188.080 204.792 C 188.453 204.399,189.470 203.957,190.340 203.810 L 191.920 203.543 192.060 200.213 C 192.171 197.582,192.368 196.695,193.000 195.984 L 193.800 195.084 192.858 195.578 C 191.751 196.160,189.696 195.862,187.622 194.820 C 186.840 194.427,185.390 193.734,184.400 193.281 C 183.410 192.828,181.593 191.995,180.361 191.429 C 179.130 190.863,177.904 190.400,177.637 190.400 C 177.202 190.400,174.839 189.412,171.400 187.793 C 170.740 187.482,169.660 187.110,169.000 186.966 C 168.340 186.822,167.382 186.444,166.872 186.125 C 166.362 185.806,165.192 185.304,164.272 185.010 C 161.548 184.138,157.890 182.799,156.540 182.179 C 155.846 181.861,154.980 181.600,154.614 181.600 C 154.248 181.600,153.105 181.245,152.074 180.810 C 151.043 180.376,149.480 179.838,148.600 179.616 C 142.915 178.181,139.649 177.255,138.947 176.879 C 138.502 176.641,137.162 176.331,135.969 176.191 C 134.776 176.051,132.957 175.590,131.926 175.168 C 130.826 174.717,129.102 174.400,127.754 174.400 C 126.491 174.400,124.274 174.049,122.828 173.621 C 117.190 171.950,98.408 170.753,91.000 171.593 " stroke="none" fill="#0474ee" fill-rule="evenodd"></path></g></svg>