<?xml version="1.0" encoding="UTF-8"?>
<svg version="1.1" xmlns="http://www.w3.org/2000/svg" width="400" height="400">
<path d="M0 0 C132 0 264 0 400 0 C400 132 400 264 400 400 C268 400 136 400 0 400 C0 268 0 136 0 0 Z " fill="#282632" transform="translate(0,0)"/>
<path d="M0 0 C0.29509972 26.0368754 -0.32038958 51.46791147 -4.375 77.25 C-4.6702356 79.14153809 -4.6702356 79.14153809 -4.97143555 81.07128906 C-8.58795984 102.81354001 -15.46482558 127.79798037 -32.19187927 143.2557373 C-33.9780803 144.97885444 -35.57330819 146.771596 -37.17993164 148.66210938 C-41.11349781 153.19434481 -45.30203281 157.42892976 -49.55859375 161.65625 C-50.34774673 162.44398804 -51.13689972 163.23172607 -51.94996643 164.04333496 C-54.44345012 166.53127102 -56.94040784 169.01568624 -59.4375 171.5 C-61.14020587 173.1976841 -62.84268207 174.89559858 -64.54492188 176.59375 C-68.69396412 180.7318328 -72.84585576 184.86703935 -77 189 C-75.27067987 192.69245465 -73.17695068 195.06738575 -70.2734375 197.95703125 C-69.57367294 198.65610847 -69.57367294 198.65610847 -68.85977173 199.36930847 C-67.8719326 200.35413345 -66.88167105 201.33653381 -65.88916016 202.31665039 C-64.39566953 203.79208043 -62.9101425 205.2751574 -61.42578125 206.75976562 C-57.42402681 210.74114233 -53.41222569 214.66648926 -49.13720703 218.35620117 C-45.00034987 221.94943736 -41.13001472 225.75875775 -37.28125 229.65625 C-36.22798523 230.7151947 -36.22798523 230.7151947 -35.15344238 231.79553223 C-32.18616234 234.77897375 -29.22494637 237.7684071 -26.26318359 240.75732422 C-24.08381535 242.95490579 -21.90135053 245.14937938 -19.71875 247.34375 C-18.735578 248.33936951 -18.735578 248.33936951 -17.73254395 249.35510254 C-13.32723531 253.78335403 -8.74305739 257.93716285 -4 262 C-1.5 264.1875 -1.5 264.1875 0 266 C0 267.32 0 268.64 0 270 C-5.42602205 270.02482169 -10.85201062 270.0429175 -16.27807617 270.05493164 C-18.12183203 270.05994316 -19.96558396 270.06675415 -21.80932617 270.07543945 C-24.46794612 270.08764484 -27.12651327 270.09326025 -29.78515625 270.09765625 C-31.01057884 270.10539818 -31.01057884 270.10539818 -32.26075745 270.11329651 C-36.94007272 270.11374947 -41.36666791 269.74398096 -46 269 C-48.45748292 268.8773983 -50.91600945 268.77478668 -53.375 268.6875 C-86.56373057 267.00145145 -121.13087984 259.21747201 -145.75 235.83984375 C-146.48613022 235.14370972 -147.22226044 234.44757568 -147.98069763 233.73034668 C-156.49360187 225.6399022 -164.78256673 217.3274727 -173.0625 209 C-174.62280722 207.43465691 -176.18335321 205.86955179 -177.74414062 204.3046875 C-181.49883311 200.53917956 -185.25063496 196.77081221 -189 193 C-193.00757755 194.85017572 -195.76194296 197.48954379 -198.83203125 200.6015625 C-199.38686691 201.15685638 -199.94170258 201.71215027 -200.51335144 202.28427124 C-201.68648789 203.46042442 -202.85719729 204.63900276 -204.02563477 205.81982422 C-205.79075734 207.60303454 -207.56358023 209.37828024 -209.33789062 211.15234375 C-210.48224026 212.30161611 -211.62613459 213.45134203 -212.76953125 214.6015625 C-213.2895723 215.12271637 -213.80961334 215.64387024 -214.34541321 216.18081665 C-217.14887012 219.019544 -219.82962415 221.92547214 -222.43823242 224.94482422 C-225.86784901 228.90044368 -229.49324135 232.60560522 -233.21875 236.28125 C-233.88032104 236.93903442 -234.54189209 237.59681885 -235.22351074 238.27453613 C-238.01578144 241.05066558 -240.81405416 243.82071537 -243.61181641 246.59130859 C-245.67040898 248.6316708 -247.72587903 250.67514331 -249.78125 252.71875 C-250.40124878 253.33045044 -251.02124756 253.94215088 -251.66003418 254.5723877 C-255.45562288 258.34699357 -259.03935304 262.24962347 -262.52722168 266.31066895 C-263.63706731 267.58370281 -264.80576959 268.80576959 -266 270 C-267.32 270 -268.64 270 -270 270 C-270.02482169 264.57397795 -270.0429175 259.14798938 -270.05493164 253.72192383 C-270.05994316 251.87816797 -270.06675415 250.03441604 -270.07543945 248.19067383 C-270.08764484 245.53205388 -270.09326025 242.87348673 -270.09765625 240.21484375 C-270.10281754 239.39789536 -270.10797882 238.58094696 -270.11329651 237.73924255 C-270.11374947 233.05992728 -269.74398096 228.63333209 -269 224 C-268.8773983 221.54251708 -268.77478668 219.08399055 -268.6875 216.625 C-267.16971583 186.74844044 -260.93502281 148.12227846 -237.80690002 126.74267578 C-236.03251048 125.03135493 -234.44222059 123.25425286 -232.84350586 121.37890625 C-226.31141302 113.85404543 -219.2440837 106.82473611 -212.2487793 99.73388672 C-210.45162804 97.90488556 -208.66258772 96.06788067 -206.8815918 94.22314453 C-204.2955124 91.54605453 -201.68434288 88.89589935 -199.06640625 86.25 C-198.27657852 85.42201904 -197.48675079 84.59403809 -196.67298889 83.7409668 C-190.4156751 77.50532073 -190.4156751 77.50532073 -185.5925293 77.44018555 C-171.0743212 79.70251998 -160.14276541 92.77105505 -151.7578125 104.015625 C-138 123.33425976 -138 123.33425976 -138 129 C-136.3603125 129.2165625 -136.3603125 129.2165625 -134.6875 129.4375 C-131 130 -131 130 -128 131 C-125.61157943 129.99195938 -123.44661556 128.93601133 -121.1875 127.6875 C-120.52532471 127.32648193 -119.86314941 126.96546387 -119.1809082 126.59350586 C-103.76173442 117.98213259 -84.73526868 105.50740898 -79 88 C-79.08399173 86.26012381 -79.23403008 84.52248281 -79.44140625 82.79296875 C-79.52886772 77.82432439 -78.47160934 75.67184694 -75.08984375 72.05078125 C-73.39956501 70.44231147 -71.68092242 68.86320807 -69.9375 67.3125 C-68.23612651 65.72757032 -66.53687686 64.14035744 -64.83984375 62.55078125 C-63.70083618 61.52464722 -63.70083618 61.52464722 -62.53881836 60.4777832 C-60.45700764 58.44602082 -58.57281817 56.39626561 -56.67602539 54.19799805 C-53.07692622 50.03382489 -49.25857827 46.14713401 -45.34375 42.28125 C-44.63778687 41.57907349 -43.93182373 40.87689697 -43.20446777 40.15344238 C-40.22102625 37.18616234 -37.2315929 34.22494637 -34.24267578 31.26318359 C-32.04509421 29.08381535 -29.85062062 26.90135053 -27.65625 24.71875 C-26.99250366 24.063302 -26.32875732 23.407854 -25.64489746 22.73254395 C-21.7637134 18.87146837 -18.07819836 14.89744851 -14.50737 10.74719238 C-12.50905655 8.43094751 -10.43890915 6.19894375 -8.3125 4 C-7.58675781 3.236875 -6.86101562 2.47375 -6.11328125 1.6875 C-4 0 -4 0 0 0 Z " fill="#00AC46" transform="translate(335,65)"/>
<path d="M0 0 C17.62531016 4.89291586 30.52620599 25.40456107 39.25 40.125 C39.98585327 41.35186523 39.98585327 41.35186523 40.73657227 42.60351562 C41.40064087 43.76270508 41.40064087 43.76270508 42.078125 44.9453125 C42.47418945 45.63125488 42.87025391 46.31719727 43.27832031 47.02392578 C44.17167175 49.47006467 43.81174256 50.5641661 43 53 C42.82210937 54.13695312 42.64421875 55.27390625 42.4609375 56.4453125 C40.3928371 61.4773215 37.36872504 62.58633542 32.625 64.875 C30.97824154 65.72890498 29.33500548 66.58963626 27.6953125 67.45703125 C26.89125977 67.88193848 26.08720703 68.3068457 25.25878906 68.74462891 C12.53597224 75.81561076 -4.22644505 88.67933514 -9 103 C-8.8153418 104.20547485 -8.8153418 104.20547485 -8.62695312 105.43530273 C-8.04422604 109.53704618 -7.79967468 113.09999563 -10.09378052 116.73135376 C-13.81819105 121.32018308 -18.21799413 125.26205687 -22.5625 129.25 C-24.49362062 131.07818242 -26.4162499 132.91496923 -28.33811951 134.75286865 C-29.53067439 135.88716894 -30.73010158 137.01431011 -31.93788147 138.13238525 C-35.62429302 141.56335347 -38.95033776 145.17866852 -42.23374939 148.99530029 C-45.08696018 152.23370304 -48.14755851 155.2511647 -51.21875 158.28125 C-51.88032104 158.93903442 -52.54189209 159.59681885 -53.22351074 160.27453613 C-56.01578144 163.05066558 -58.81405416 165.82071537 -61.61181641 168.59130859 C-63.67040898 170.6316708 -65.72587903 172.67514331 -67.78125 174.71875 C-68.40124878 175.33045044 -69.02124756 175.94215088 -69.66003418 176.5723877 C-73.45562288 180.34699357 -77.03935304 184.24962347 -80.52722168 188.31066895 C-81.63706731 189.58370281 -82.80576959 190.80576959 -84 192 C-85.32 192 -86.64 192 -88 192 C-88.02482169 186.57397795 -88.0429175 181.14798938 -88.05493164 175.72192383 C-88.05994316 173.87816797 -88.06675415 172.03441604 -88.07543945 170.19067383 C-88.08764484 167.53205388 -88.09326025 164.87348673 -88.09765625 162.21484375 C-88.10281754 161.39789536 -88.10797882 160.58094696 -88.11329651 159.73924255 C-88.11374947 155.05992728 -87.74398096 150.63333209 -87 146 C-86.8773983 143.54251708 -86.77478668 141.08399055 -86.6875 138.625 C-85.16971583 108.74844044 -78.93502281 70.12227846 -55.80690002 48.74267578 C-54.03251048 47.03135493 -52.44222059 45.25425286 -50.84350586 43.37890625 C-44.31141302 35.85404543 -37.2440837 28.82473611 -30.2487793 21.73388672 C-28.45162804 19.90488556 -26.66258772 18.06788067 -24.8815918 16.22314453 C-22.2955124 13.54605453 -19.68434288 10.89589935 -17.06640625 8.25 C-16.27657852 7.42201904 -15.48675079 6.59403809 -14.67298889 5.7409668 C-9.70423504 0.78941866 -7.06512605 -1.10094013 0 0 Z " fill="#017BED" transform="translate(153,143)"/>
<path d="M0 0 C0.29509972 26.0368754 -0.32038958 51.46791147 -4.375 77.25 C-4.57182373 78.51102539 -4.76864746 79.77205078 -4.97143555 81.07128906 C-8.58939999 102.82219803 -15.4687767 127.78925928 -32.19320679 143.25830078 C-33.96814695 144.96929453 -35.55930688 146.74608543 -37.15869141 148.62109375 C-43.68242128 156.13619684 -50.71796533 163.1762287 -57.69628906 170.26611328 C-59.4875241 172.09424397 -61.2697387 173.9312553 -63.04296875 175.77685547 C-65.6192858 178.45639644 -68.22376447 181.10545909 -70.8359375 183.75 C-71.62060394 184.57798096 -72.40527039 185.40596191 -73.2137146 186.2590332 C-79.47078297 192.49505641 -79.47078297 192.49505641 -84.90307617 192.57788086 C-96.77358059 191.54268992 -106.73230578 179.80415688 -114.0625 171.375 C-119.49342932 164.68683192 -123.76543304 157.48335417 -128 150 C-128.76957031 148.82244141 -128.76957031 148.82244141 -129.5546875 147.62109375 C-131.75839903 144.05626627 -132.34737245 141.1320998 -131.75 137.0625 C-129.33532814 130.44488466 -123.25161408 128.2832513 -117.34765625 125.28125 C-102.37543407 117.64770278 -84.38882505 104.44985952 -79 88 C-79.08399173 86.26012381 -79.23403008 84.52248281 -79.44140625 82.79296875 C-79.52886772 77.82432439 -78.47160934 75.67184694 -75.08984375 72.05078125 C-73.39956501 70.44231147 -71.68092242 68.86320807 -69.9375 67.3125 C-68.23612651 65.72757032 -66.53687686 64.14035744 -64.83984375 62.55078125 C-63.70083618 61.52464722 -63.70083618 61.52464722 -62.53881836 60.4777832 C-60.45700764 58.44602082 -58.57281817 56.39626561 -56.67602539 54.19799805 C-53.07692622 50.03382489 -49.25857827 46.14713401 -45.34375 42.28125 C-44.63778687 41.57907349 -43.93182373 40.87689697 -43.20446777 40.15344238 C-40.22102625 37.18616234 -37.2315929 34.22494637 -34.24267578 31.26318359 C-32.04509421 29.08381535 -29.85062062 26.90135053 -27.65625 24.71875 C-26.99250366 24.063302 -26.32875732 23.407854 -25.64489746 22.73254395 C-21.7637134 18.87146837 -18.07819836 14.89744851 -14.50737 10.74719238 C-12.50905655 8.43094751 -10.43890915 6.19894375 -8.3125 4 C-7.22388672 2.8553125 -7.22388672 2.8553125 -6.11328125 1.6875 C-4 0 -4 0 0 0 Z " fill="#00C6D3" transform="translate(335,65)"/>
<path d="M0 0 C22.57244043 -0.34269899 44.59626874 -0.13681485 67 3 C68.85411425 3.24258844 70.7082786 3.48479441 72.5625 3.7265625 C77.39476436 4.37969336 82.19971036 5.14382342 87 6 C87.70560059 6.1242334 88.41120117 6.2484668 89.13818359 6.37646484 C110.54512782 10.31814022 129.8496919 19.10834565 145.6328125 34.08984375 C146.36785507 34.78541382 147.10289764 35.48098389 147.86021423 36.19763184 C156.00291855 43.92277666 164.09457631 51.69869322 172.09057617 59.57568359 C173.76121825 61.21415035 175.43984754 62.84450655 177.12573242 64.46728516 C179.60441803 66.85515123 182.05624983 69.26788867 184.50390625 71.6875 C185.25990616 72.40534668 186.01590607 73.12319336 186.79481506 73.86279297 C192.4480377 79.53763825 192.4480377 79.53763825 192.51269531 84.36035156 C190.64410651 97.62555247 179.09275488 108.17466106 168.87109375 115.9921875 C146.97954884 131.30137673 146.97954884 131.30137673 139.3828125 132.3671875 C135.61607837 131.54606553 133.06921403 130.45332845 130.72509766 127.26708984 C128.41865154 123.50590413 126.43332065 119.59230261 124.4375 115.66015625 C121.31439626 109.52424886 117.38572736 104.30944693 113 99 C112.28199219 98.11828125 111.56398438 97.2365625 110.82421875 96.328125 C104.64910099 89.08908819 97.221711 82.00728219 88 79 C86.29049158 79.12030801 84.58448372 79.30173142 82.88671875 79.53515625 C77.52109599 79.6296056 75.26337416 78.0812048 71.39453125 74.43359375 C69.48354371 72.47837755 67.64476801 70.46627675 65.8125 68.4375 C64.40534698 66.93460906 62.99019539 65.43962438 61.57341003 63.94581604 C60.28690347 62.58083785 59.0193604 61.19805731 57.75317383 59.81420898 C55.61453146 57.62815501 53.48017146 55.64063712 51.1706543 53.64868164 C46.93597198 49.99352957 42.99237865 46.10302632 39.0625 42.125 C38.33812744 41.39684082 37.61375488 40.66868164 36.86743164 39.91845703 C33.80457576 36.83943049 30.74777689 33.75441677 27.69042969 30.66992188 C25.44155883 28.40284542 23.18959762 26.13887034 20.9375 23.875 C19.92151733 22.84656982 19.92151733 22.84656982 18.88500977 21.79736328 C14.42743311 17.31728193 9.79061495 13.11959733 5 9 C3.15317115 7.39241369 1.61207984 5.86396731 0 4 C0 2.68 0 1.36 0 0 Z " fill="#E33921" transform="translate(65,65)"/>
<path d="M0 0 C8.33659459 6.98492036 16.02367826 14.61541745 23.76342773 22.24853516 C25.55074963 24.00403675 27.34607442 25.75142624 29.14916992 27.49072266 C31.76337595 30.01388195 34.35059301 32.56213923 36.93359375 35.1171875 C37.74283798 35.8882785 38.55208221 36.65936951 39.385849 37.4538269 C45.48381952 43.57346878 45.48381952 43.57346878 45.54833984 48.39599609 C43.53038263 61.65916815 32.12841783 72.14738604 21.87109375 79.9921875 C15.75923299 84.2663323 9.45704901 88.26756498 3 92 C2.29649414 92.41443359 1.59298828 92.82886719 0.86816406 93.25585938 C0.17174805 93.64064453 -0.52466797 94.02542969 -1.2421875 94.421875 C-2.17973877 94.9492627 -2.17973877 94.9492627 -3.13623047 95.48730469 C-5 96 -5 96 -7.23486328 95.09863281 C-7.8173584 94.73608398 -8.39985352 94.37353516 -9 94 C-8.39644638 90.61058374 -7.54792547 87.54348689 -6.29296875 84.33984375 C-5.78672974 83.03503052 -5.78672974 83.03503052 -5.27026367 81.70385742 C-4.91295166 80.79095947 -4.55563965 79.87806152 -4.1875 78.9375 C-3.45684869 77.03702845 -2.7276697 75.13599017 -2 73.234375 C-1.65195313 72.32494141 -1.30390625 71.41550781 -0.9453125 70.47851562 C6.30535896 51.46797413 11.50959838 28.79517565 4 9 C2.7914159 6.54817706 1.46069512 4.31696468 0 2 C0 1.34 0 0.68 0 0 Z " fill="#FD7456" transform="translate(212,101)"/>
<path d="M0 0 C3.51484571 0.58065992 6.27216666 1.51297526 9.4375 3.125 C15.1804729 5.81236658 21.08593108 7.76846836 27.125 9.6875 C28.05497803 9.98479004 28.98495605 10.28208008 29.94311523 10.58837891 C47.92733324 16.21353217 70.12370523 20.40127943 87.625 11.25 C88.40875 10.8375 89.1925 10.425 90 10 C90.99 10.495 90.99 10.495 92 11 C84.5141252 19.54663695 76.67149658 27.74483432 68.71630859 35.85351562 C67.22979477 37.37703673 65.75231366 38.90941999 64.28369141 40.45019531 C62.13753458 42.69963802 59.9633727 44.91831101 57.78125 47.1328125 C57.13410034 47.82327667 56.48695068 48.51374084 55.82019043 49.22512817 C52.3816532 52.64977997 50.14902026 54.41857522 45.18334961 54.49145508 C34.35081108 53.74709865 25.44830062 43.77044258 18.46484375 36.28125 C11.91417232 28.74848409 6.86899088 20.68122309 2 12 C1.49855469 11.14535156 0.99710938 10.29070312 0.48046875 9.41015625 C-0.6875 7.3125 -0.6875 7.3125 -2 4 C-1.08203125 1.79296875 -1.08203125 1.79296875 0 0 Z " fill="#10E0EC" transform="translate(205,203)"/>
<path d="M0 0 C17.62531016 4.89291586 30.52620599 25.40456107 39.25 40.125 C39.98585327 41.35186523 39.98585327 41.35186523 40.73657227 42.60351562 C41.17928467 43.37630859 41.62199707 44.14910156 42.078125 44.9453125 C42.47418945 45.63125488 42.87025391 46.31719727 43.27832031 47.02392578 C44.15319866 49.41948239 43.84021424 50.63350682 43 53 C39.66955589 54.13685907 37.97218983 53.8965368 34.76171875 52.5234375 C33.94936768 52.18465576 33.1370166 51.84587402 32.30004883 51.49682617 C31.43790771 51.12662354 30.5757666 50.7564209 29.6875 50.375 C27.87358521 49.62601925 26.0584689 48.87994207 24.2421875 48.13671875 C22.90172363 47.58636963 22.90172363 47.58636963 21.53417969 47.02490234 C1.01410686 38.72593647 -21.42427908 34.17358338 -43 41 C-44.33092714 41.34281457 -45.66344054 41.67984738 -47 42 C-44.57376121 36.04645114 -40.58905091 32.07243705 -36.11328125 27.5390625 C-35.33744186 26.74849457 -34.56160248 25.95792664 -33.76225281 25.1434021 C-32.12307612 23.48033629 -30.47965158 21.82144795 -28.83227539 20.16650391 C-26.31894105 17.63149659 -23.83642739 15.06867225 -21.35351562 12.50390625 C-19.75442147 10.88882366 -18.15356728 9.27548139 -16.55078125 7.6640625 C-15.81402664 6.89542877 -15.07727203 6.12679504 -14.31819153 5.33486938 C-9.46151082 0.54025126 -6.84930605 -0.98862146 0 0 Z " fill="#0CB4FD" transform="translate(153,143)"/>
<path d="M0 0 C1.60546875 0.921875 1.60546875 0.921875 2.60546875 3.921875 C2.06396484 5.84448242 2.06396484 5.84448242 1.12890625 8.02734375 C0.79012451 8.83768066 0.45134277 9.64801758 0.10229492 10.48291016 C-0.45300903 11.78301025 -0.45300903 11.78301025 -1.01953125 13.109375 C-11.09981943 37.59478397 -18.71997519 64.0271155 -9.39453125 89.921875 C-10.38453125 90.251875 -11.37453125 90.581875 -12.39453125 90.921875 C-24.39453125 78.921875 -36.39453125 66.921875 -48.39453125 54.921875 C-49.23047066 54.18841606 -49.23047066 54.18841606 -50.08329773 53.44013977 C-52.12986876 51.07043472 -52.04412085 48.59124635 -51.921875 45.57421875 C-48.8251243 29.99870969 -32.8474893 18.66714119 -20.4296875 10.25488281 C-16.91611264 7.953525 -13.34174149 5.77611514 -9.70703125 3.671875 C-9.03583252 3.27661621 -8.36463379 2.88135742 -7.6730957 2.47412109 C-5.04319633 1.00781391 -3.05570007 -0.09969658 0 0 Z " fill="#04D559" transform="translate(194.39453125,203.078125)"/>
<path d="M0 0 C6.46153846 0.46153846 6.46153846 0.46153846 9 3 C8.8125 6.5 8.8125 6.5 8 10 C5 12 5 12 1.9375 11.75 C-1 11 -1 11 -3 9 C-2.53846154 2.53846154 -2.53846154 2.53846154 0 0 Z " fill="#494E4E" transform="translate(197,194)"/>
</svg>
