<?xml version="1.0" encoding="UTF-8"?>
<svg version="1.1" xmlns="http://www.w3.org/2000/svg" width="400" height="400">
<path d="M0 0 C0.68283554 -0.00414413 1.36567108 -0.00828827 2.06919861 -0.01255798 C4.30399884 -0.02228307 6.53861923 -0.0222048 8.7734375 -0.01953125 C9.53631073 -0.01959167 10.29918396 -0.0196521 11.08517456 -0.01971436 C24.85296435 -0.00419729 38.45098269 0.74247633 52.1484375 2.16796875 C53.69656775 2.31429844 55.24474189 2.46016482 56.79296875 2.60546875 C67.40901067 3.6631023 77.78096424 5.6720554 88.1484375 8.16796875 C89.27113037 8.43649658 89.27113037 8.43649658 90.41650391 8.71044922 C101.05006948 11.33200783 109.9995248 15.16407683 119.1484375 21.16796875 C120.00816162 21.71880127 120.00816162 21.71880127 120.88525391 22.28076172 C129.60265681 27.92143418 136.82166891 34.51497074 144.0234375 41.96875 C146.98649391 45.03547794 150.1057158 47.84242995 153.359375 50.59765625 C156.09207805 52.99622967 158.59848978 55.6094281 161.1484375 58.19921875 C163.7043027 60.71514856 166.40174182 63.03298345 169.1328125 65.35546875 C172.04525339 67.97440785 174.66533565 70.85610389 177.2890625 73.76171875 C179.01943396 75.40811005 179.01943396 75.40811005 181.06689453 74.93969727 C183.45329489 74.05494339 184.56974937 73.0663158 186.3125 71.2265625 C187.15941406 70.35161133 187.15941406 70.35161133 188.0234375 69.45898438 C188.6009375 68.84732422 189.1784375 68.23566406 189.7734375 67.60546875 C190.92770405 66.39145493 192.08634784 65.18158303 193.25 63.9765625 C193.75869629 63.43829834 194.26739258 62.90003418 194.79150391 62.34545898 C196.1484375 61.16796875 196.1484375 61.16796875 198.1484375 61.16796875 C198.40963379 60.58007568 198.67083008 59.99218262 198.93994141 59.38647461 C200.21940432 57.03769087 201.57107583 55.53079838 203.484375 53.671875 C204.13664063 53.03056641 204.78890625 52.38925781 205.4609375 51.72851562 C206.1415625 51.06916016 206.8221875 50.40980469 207.5234375 49.73046875 C212.74390894 44.67629649 212.74390894 44.67629649 217.5 39.1953125 C218.04398438 38.52628906 218.58796875 37.85726562 219.1484375 37.16796875 C219.8084375 37.16796875 220.4684375 37.16796875 221.1484375 37.16796875 C221.4165625 36.52859375 221.6846875 35.88921875 221.9609375 35.23046875 C223.1484375 33.16796875 223.1484375 33.16796875 226.1484375 32.16796875 C226.4784375 31.50796875 226.8084375 30.84796875 227.1484375 30.16796875 C228.1484375 28.16796875 228.1484375 28.16796875 231.1484375 27.16796875 C231.85560805 25.85566846 232.51802869 24.51882291 233.1484375 23.16796875 C234.58129883 21.43212891 234.58129883 21.43212891 236.23046875 19.70703125 C237.13442383 18.75183594 237.13442383 18.75183594 238.05664062 17.77734375 C238.68505859 17.1225 239.31347656 16.46765625 239.9609375 15.79296875 C245.08430383 10.43717248 245.08430383 10.43717248 249.91015625 4.81640625 C252.1484375 2.16796875 252.1484375 2.16796875 255.1484375 0.16796875 C257.8359375 0.04296875 257.8359375 0.04296875 260.1484375 0.16796875 C269.35189452 18.57488279 259.64245576 64.69550502 256.1484375 84.16796875 C256.01211914 84.96267578 255.87580078 85.75738281 255.73535156 86.57617188 C252.24199049 106.56820129 245.8102344 128.3794128 231.1484375 143.16796875 C229.9728125 144.37453125 229.9728125 144.37453125 228.7734375 145.60546875 C227.9071875 146.45109375 227.0409375 147.29671875 226.1484375 148.16796875 C224.85350104 149.43547011 223.56214311 150.70663282 222.2734375 151.98046875 C221.34917969 152.88732422 221.34917969 152.88732422 220.40625 153.8125 C218.55671295 155.74203433 216.82729015 157.70327143 215.09375 159.734375 C209.8768101 165.74131662 204.09910684 171.2214462 198.38964844 176.75537109 C196.92215174 178.18032473 195.46446057 179.61475057 194.0078125 181.05078125 C193.14639648 181.89012207 192.28498047 182.72946289 191.39746094 183.59423828 C189.0366103 186.29594122 187.60569787 188.90311073 186.1484375 192.16796875 C190.42852501 197.82542485 194.69018558 202.99478981 200.19140625 207.5 C202.65026774 209.59567636 204.88293098 211.86493125 207.1484375 214.16796875 C214.41054409 221.60506692 214.41054409 221.60506692 222.0859375 228.60546875 C229.04177666 234.55737236 235.72351765 241.13912428 241.5859375 248.16796875 C243.92982795 250.91203562 246.33830123 252.93638995 249.1484375 255.16796875 C249.1484375 255.82796875 249.1484375 256.48796875 249.1484375 257.16796875 C249.98375 257.50828125 249.98375 257.50828125 250.8359375 257.85546875 C253.79020341 259.53221427 255.81691601 261.7137356 258.1484375 264.16796875 C258.8084375 264.82796875 259.4684375 265.48796875 260.1484375 266.16796875 C260.2734375 268.79296875 260.2734375 268.79296875 260.1484375 271.16796875 C236.6782939 282.90304055 179.48699282 270.11778371 155.80517578 262.40478516 C151.46785915 260.89670931 147.30780353 259.11990711 143.1484375 257.16796875 C142.09914062 256.69617188 141.04984375 256.224375 139.96875 255.73828125 C121.50905683 247.0486038 106.80634333 232.15097298 92.6484375 217.79296875 C91.40152195 216.53598171 90.15412782 215.27946925 88.90625 214.0234375 C86.62790608 211.72897358 84.35230047 209.43187343 82.08007812 207.13134766 C81.58572266 206.63298401 81.09136719 206.13462036 80.58203125 205.62115479 C79.19094951 204.21106175 77.81493478 202.78615419 76.43945312 201.36083984 C74.08090277 199.10332713 72.23731838 198.13875988 69.1484375 197.16796875 C68.6946875 197.66296875 68.2409375 198.15796875 67.7734375 198.66796875 C66.1484375 200.16796875 66.1484375 200.16796875 64.1484375 200.16796875 C63.90222656 200.75191406 63.65601563 201.33585938 63.40234375 201.9375 C61.94084027 204.53724606 60.36360572 205.92941312 58.0859375 207.85546875 C52.95455022 212.35576301 48.10077376 217.09371869 43.2734375 221.91796875 C42.53601318 222.65104248 41.79858887 223.38411621 41.03881836 224.1394043 C38.11667367 227.06890871 35.3337655 229.9334225 32.765625 233.18359375 C32.23195312 233.8384375 31.69828125 234.49328125 31.1484375 235.16796875 C30.4884375 235.16796875 29.8284375 235.16796875 29.1484375 235.16796875 C28.8803125 235.80734375 28.6121875 236.44671875 28.3359375 237.10546875 C27.1484375 239.16796875 27.1484375 239.16796875 24.1484375 240.16796875 C23.8184375 240.82796875 23.4884375 241.48796875 23.1484375 242.16796875 C22.8184375 242.82796875 22.4884375 243.48796875 22.1484375 244.16796875 C21.1584375 244.49796875 20.1684375 244.82796875 19.1484375 245.16796875 C18.8184375 245.82796875 18.4884375 246.48796875 18.1484375 247.16796875 C17.8184375 247.82796875 17.4884375 248.48796875 17.1484375 249.16796875 C16.1584375 249.49796875 15.1684375 249.82796875 14.1484375 250.16796875 C13.8184375 250.82796875 13.4884375 251.48796875 13.1484375 252.16796875 C12.8184375 252.82796875 12.4884375 253.48796875 12.1484375 254.16796875 C11.1584375 254.49796875 10.1684375 254.82796875 9.1484375 255.16796875 C8.47065244 256.4956847 7.80700033 257.83061419 7.1484375 259.16796875 C5.41793175 261.29417791 3.67569303 263.3300274 1.8359375 265.35546875 C1.36220703 265.90138672 0.88847656 266.44730469 0.40039062 267.00976562 C-1.79015036 269.42805096 -3.48969522 271.03699247 -6.58203125 272.15625 C-7.33097656 272.16011719 -8.07992187 272.16398437 -8.8515625 272.16796875 C-11.36968432 269.64984693 -11.10875852 268.07241837 -11.15464783 264.63505554 C-11.15388748 263.86603409 -11.15312714 263.09701263 -11.15234375 262.3046875 C-11.15798843 261.49792068 -11.16363312 260.69115387 -11.16944885 259.85993958 C-11.18161454 257.19159444 -11.17512147 254.52381446 -11.1640625 251.85546875 C-11.16190735 250.94104004 -11.1597522 250.02661133 -11.15753174 249.08447266 C-11.03362536 216.18983688 -9.89533278 182.51939577 4.1484375 152.16796875 C4.55835937 151.24113281 4.96828125 150.31429687 5.390625 149.359375 C8.21454416 143.29625446 11.88187648 138.29369995 16.1484375 133.16796875 C16.63957031 132.54277344 17.13070312 131.91757813 17.63671875 131.2734375 C18.75644679 129.86304259 19.94564263 128.50822589 21.1484375 127.16796875 C21.8084375 127.16796875 22.4684375 127.16796875 23.1484375 127.16796875 C23.41269531 126.575 23.67695312 125.98203125 23.94921875 125.37109375 C25.19214175 123.08767821 26.45245396 121.69370152 28.3359375 119.91796875 C30.83132469 117.55699352 33.10284122 115.08312898 35.33984375 112.48046875 C39.31245013 107.90380635 43.57755746 103.66344076 47.8984375 99.41796875 C49.39559007 97.94640853 50.89047016 96.47253191 52.3828125 94.99609375 C53.03475586 94.35575195 53.68669922 93.71541016 54.35839844 93.05566406 C56.21160489 91.18640747 56.21160489 91.18640747 57.75878906 88.92871094 C58.21737305 88.34766602 58.67595703 87.76662109 59.1484375 87.16796875 C59.8084375 87.16796875 60.4684375 87.16796875 61.1484375 87.16796875 C62.62586237 84.82147042 63.18849276 83.57049124 62.91015625 80.7734375 C62.04866389 77.82669184 60.97417094 76.4061509 58.8984375 74.16796875 C58.26421875 73.47832031 57.63 72.78867188 56.9765625 72.078125 C54.73515787 69.73614452 52.46965886 67.43115958 50.1484375 65.16796875 C49.55675781 64.56597656 48.96507812 63.96398437 48.35546875 63.34375 C47.73027344 62.70824219 47.10507813 62.07273438 46.4609375 61.41796875 C45.87957031 60.825 45.29820313 60.23203125 44.69921875 59.62109375 C43.19329776 58.07155071 43.19329776 58.07155071 41.1484375 57.16796875 C41.1484375 56.50796875 41.1484375 55.84796875 41.1484375 55.16796875 C40.55766418 54.90283981 39.96689087 54.63771088 39.35821533 54.36454773 C37.0788392 53.13028177 35.60656727 51.86174029 33.79199219 50.02270508 C33.15743103 49.38476517 32.52286987 48.74682526 31.86907959 48.08955383 C31.19298645 47.40000107 30.51689331 46.7104483 29.8203125 46 C29.1124762 45.28696213 28.40463989 44.57392426 27.675354 43.83927917 C25.41157978 41.55770681 23.15458079 39.26958533 20.8984375 36.98046875 C18.65577244 34.71003 16.41161591 32.44111946 14.16436768 30.17521667 C12.76791349 28.76667844 11.37413783 27.35547749 9.98358154 25.94111633 C6.07985975 21.99800013 2.06423692 18.25957561 -2.14860535 14.64779663 C-4.19986181 12.86530522 -6.09056938 10.99503404 -7.9140625 8.98046875 C-8.50316406 8.34753906 -9.09226562 7.71460937 -9.69921875 7.0625 C-10.8515625 5.16796875 -10.8515625 5.16796875 -10.72265625 2.9921875 C-10.29146484 2.08919922 -10.29146484 2.08919922 -9.8515625 1.16796875 C-6.38584682 0.01273019 -3.65651087 0.02192492 0 0 Z M122.1484375 134.16796875 C122.4784375 135.48796875 122.8084375 136.80796875 123.1484375 138.16796875 C126.19756978 139.17907968 126.19756978 139.17907968 129.1484375 138.16796875 C128.8184375 136.51796875 128.4884375 134.86796875 128.1484375 133.16796875 C124.3720443 132.86982635 124.3720443 132.86982635 122.1484375 134.16796875 Z " fill="#00A845" transform="translate(74.8515625,63.83203125)"/>
<path d="M0 0 C0.68283554 -0.00414413 1.36567108 -0.00828827 2.06919861 -0.01255798 C4.30399884 -0.02228307 6.53861923 -0.0222048 8.7734375 -0.01953125 C9.53631073 -0.01959167 10.29918396 -0.0196521 11.08517456 -0.01971436 C24.85296435 -0.00419729 38.45098269 0.74247633 52.1484375 2.16796875 C53.69656775 2.31429844 55.24474189 2.46016482 56.79296875 2.60546875 C67.40901067 3.6631023 77.78096424 5.6720554 88.1484375 8.16796875 C89.27113037 8.43649658 89.27113037 8.43649658 90.41650391 8.71044922 C101.05006948 11.33200783 109.9995248 15.16407683 119.1484375 21.16796875 C120.00816162 21.71880127 120.00816162 21.71880127 120.88525391 22.28076172 C129.60265681 27.92143418 136.82166891 34.51497074 144.0234375 41.96875 C146.98649391 45.03547794 150.1057158 47.84242995 153.359375 50.59765625 C156.09207805 52.99622967 158.59848978 55.6094281 161.1484375 58.19921875 C163.70501531 60.71585003 166.4073802 63.03215036 169.12890625 65.3671875 C172.01376414 67.93956562 174.69849547 70.69328215 177.38671875 73.46875 C179.24153056 75.35886011 179.24153056 75.35886011 182.1484375 77.16796875 C184.1379793 83.36294919 183.159681 88.95270414 180.4921875 94.73828125 C173.17287223 107.97262456 160.73431191 117.307764 148.1484375 125.16796875 C147.00210681 125.93351025 145.85762044 126.70181952 144.71484375 127.47265625 C143.56828833 128.22614372 142.4211663 128.97876981 141.2734375 129.73046875 C140.24476563 130.41238281 139.21609375 131.09429687 138.15625 131.796875 C134.55854642 133.43686715 132.91309597 133.16464788 129.1484375 132.16796875 C127.9315625 131.96171875 126.7146875 131.75546875 125.4609375 131.54296875 C122.1484375 130.16796875 122.1484375 130.16796875 120.76171875 127.12890625 C120.51607178 126.50000488 120.2704248 125.87110352 120.01733398 125.22314453 C118.40512481 121.40983269 116.18559142 117.93967306 114.0234375 114.41796875 C113.53770264 113.62664551 113.05196777 112.83532227 112.55151367 112.02001953 C108.54594531 105.60455975 104.22930678 99.78714574 99.1484375 94.16796875 C98.51679688 93.43191406 97.88515625 92.69585937 97.234375 91.9375 C91.72615657 85.89659378 84.71714941 81.09470832 76.51953125 79.73046875 C72.49015415 79.62425782 69.64526354 80.05781511 66.1484375 82.16796875 C65.8184375 82.82796875 65.4884375 83.48796875 65.1484375 84.16796875 C64.4884375 83.83796875 63.8284375 83.50796875 63.1484375 83.16796875 C62.93960938 82.02328125 62.93960938 82.02328125 62.7265625 80.85546875 C62.05521085 77.73459082 61.04964976 76.48753675 58.8984375 74.16796875 C58.26421875 73.47832031 57.63 72.78867188 56.9765625 72.078125 C54.73515787 69.73614452 52.46965886 67.43115958 50.1484375 65.16796875 C49.55675781 64.56597656 48.96507812 63.96398437 48.35546875 63.34375 C47.73027344 62.70824219 47.10507813 62.07273438 46.4609375 61.41796875 C45.87957031 60.825 45.29820313 60.23203125 44.69921875 59.62109375 C43.19329776 58.07155071 43.19329776 58.07155071 41.1484375 57.16796875 C41.1484375 56.50796875 41.1484375 55.84796875 41.1484375 55.16796875 C40.55766418 54.90283981 39.96689087 54.63771088 39.35821533 54.36454773 C37.0788392 53.13028177 35.60656727 51.86174029 33.79199219 50.02270508 C33.15743103 49.38476517 32.52286987 48.74682526 31.86907959 48.08955383 C31.19298645 47.40000107 30.51689331 46.7104483 29.8203125 46 C29.1124762 45.28696213 28.40463989 44.57392426 27.675354 43.83927917 C25.41157978 41.55770681 23.15458079 39.26958533 20.8984375 36.98046875 C18.65577244 34.71003 16.41161591 32.44111946 14.16436768 30.17521667 C12.76791349 28.76667844 11.37413783 27.35547749 9.98358154 25.94111633 C6.07985975 21.99800013 2.06423692 18.25957561 -2.14860535 14.64779663 C-4.19986181 12.86530522 -6.09056938 10.99503404 -7.9140625 8.98046875 C-8.50316406 8.34753906 -9.09226562 7.71460937 -9.69921875 7.0625 C-10.8515625 5.16796875 -10.8515625 5.16796875 -10.72265625 2.9921875 C-10.29146484 2.08919922 -10.29146484 2.08919922 -9.8515625 1.16796875 C-6.38584682 0.01273019 -3.65651087 0.02192492 0 0 Z " fill="#DD3821" transform="translate(74.8515625,63.83203125)"/>
<path d="M0 0 C13.92995312 6.20731856 23.11756365 18.57136595 31.16796875 31.078125 C31.5659668 31.69574707 31.96396484 32.31336914 32.37402344 32.94970703 C37.41818432 40.91254085 40.04640392 46.13613853 38.62109375 55.77734375 C36.70532617 60.1290201 34.09718794 61.17289095 29.91796875 62.890625 C15.26734188 69.56097702 0.71495309 79.95102153 -8.83203125 93.078125 C-9.24453125 93.6453125 -9.65703125 94.2125 -10.08203125 94.796875 C-13.4397141 100.29974412 -13.06190775 105.50543431 -12.6796875 111.80859375 C-12.85008437 115.46557276 -13.5866646 117.2189171 -15.83203125 120.078125 C-16.49203125 120.078125 -17.15203125 120.078125 -17.83203125 120.078125 C-18.07824219 120.66207031 -18.32445312 121.24601562 -18.578125 121.84765625 C-20.03962848 124.44740231 -21.61686303 125.83956937 -23.89453125 127.765625 C-29.02591853 132.26591926 -33.87969499 137.00387494 -38.70703125 141.828125 C-39.44445557 142.56119873 -40.18187988 143.29427246 -40.94165039 144.04956055 C-43.86379508 146.97906496 -46.64670325 149.84357875 -49.21484375 153.09375 C-49.74851563 153.74859375 -50.2821875 154.4034375 -50.83203125 155.078125 C-51.49203125 155.078125 -52.15203125 155.078125 -52.83203125 155.078125 C-53.10015625 155.7175 -53.36828125 156.356875 -53.64453125 157.015625 C-54.83203125 159.078125 -54.83203125 159.078125 -57.83203125 160.078125 C-58.16203125 160.738125 -58.49203125 161.398125 -58.83203125 162.078125 C-59.16203125 162.738125 -59.49203125 163.398125 -59.83203125 164.078125 C-60.82203125 164.408125 -61.81203125 164.738125 -62.83203125 165.078125 C-63.16203125 165.738125 -63.49203125 166.398125 -63.83203125 167.078125 C-64.16203125 167.738125 -64.49203125 168.398125 -64.83203125 169.078125 C-65.82203125 169.408125 -66.81203125 169.738125 -67.83203125 170.078125 C-68.16203125 170.738125 -68.49203125 171.398125 -68.83203125 172.078125 C-69.16203125 172.738125 -69.49203125 173.398125 -69.83203125 174.078125 C-70.82203125 174.408125 -71.81203125 174.738125 -72.83203125 175.078125 C-73.50981631 176.40584095 -74.17346842 177.74077044 -74.83203125 179.078125 C-76.562537 181.20433416 -78.30477572 183.24018365 -80.14453125 185.265625 C-80.61826172 185.81154297 -81.09199219 186.35746094 -81.58007812 186.91992188 C-83.77061911 189.33820721 -85.47016397 190.94714872 -88.5625 192.06640625 C-89.31144531 192.07027344 -90.06039062 192.07414063 -90.83203125 192.078125 C-93.35015307 189.56000318 -93.08922727 187.98257462 -93.13511658 184.54521179 C-93.13435623 183.77619034 -93.13359589 183.00716888 -93.1328125 182.21484375 C-93.13845718 181.40807693 -93.14410187 180.60131012 -93.1499176 179.77009583 C-93.16208329 177.10175069 -93.15559022 174.43397071 -93.14453125 171.765625 C-93.1423761 170.85119629 -93.14022095 169.93676758 -93.13800049 168.99462891 C-93.01409411 136.09999313 -91.87580153 102.42955202 -77.83203125 72.078125 C-77.42210938 71.15128906 -77.0121875 70.22445312 -76.58984375 69.26953125 C-73.76592459 63.20641071 -70.09859227 58.2038562 -65.83203125 53.078125 C-65.34089844 52.45292969 -64.84976563 51.82773438 -64.34375 51.18359375 C-63.22402196 49.77319884 -62.03482612 48.41838214 -60.83203125 47.078125 C-60.17203125 47.078125 -59.51203125 47.078125 -58.83203125 47.078125 C-58.43564453 46.18867188 -58.43564453 46.18867188 -58.03125 45.28125 C-56.788327 42.99783446 -55.52801479 41.60385777 -53.64453125 39.828125 C-51.14914406 37.46714977 -48.87762753 34.99328523 -46.640625 32.390625 C-42.66801862 27.8139626 -38.40291129 23.57359701 -34.08203125 19.328125 C-32.58487868 17.85656478 -31.08999859 16.38268816 -29.59765625 14.90625 C-28.61974121 13.9457373 -28.61974121 13.9457373 -27.62207031 12.96582031 C-25.76886386 11.09656372 -25.76886386 11.09656372 -24.22167969 8.83886719 C-23.7630957 8.25782227 -23.30451172 7.67677734 -22.83203125 7.078125 C-22.17203125 7.078125 -21.51203125 7.078125 -20.83203125 7.078125 C-20.50203125 6.088125 -20.17203125 5.098125 -19.83203125 4.078125 C-18.84203125 4.078125 -17.85203125 4.078125 -16.83203125 4.078125 C-16.50203125 3.088125 -16.17203125 2.098125 -15.83203125 1.078125 C-10.7625501 -2.15585435 -5.56724583 -1.8122345 0 0 Z " fill="#0179E8" transform="translate(156.83203125,143.921875)"/>
<path d="M0 0 C9.20345702 18.40691404 -0.50598174 64.52753627 -4 84 C-4.13631836 84.79470703 -4.27263672 85.58941406 -4.41308594 86.40820312 C-7.90644701 106.40023254 -14.3382031 128.21144405 -29 143 C-30.175625 144.2065625 -30.175625 144.2065625 -31.375 145.4375 C-32.24125 146.283125 -33.1075 147.12875 -34 148 C-35.29493646 149.26750136 -36.58629439 150.53866407 -37.875 151.8125 C-38.49117188 152.41707031 -39.10734375 153.02164063 -39.7421875 153.64453125 C-41.59140019 155.57372719 -43.32616209 157.53418167 -45.0625 159.5625 C-49.81593387 165.03155236 -54.98207498 170.08977813 -60.125 175.1875 C-61.11091377 176.16838194 -62.09659221 177.14950049 -63.08203125 178.13085938 C-64.89455441 179.93530568 -66.70865782 181.73810452 -68.52392578 183.53979492 C-70.24811068 185.25292953 -71.96608131 186.9723317 -73.67919922 188.6965332 C-78.89799787 193.87635282 -78.89799787 193.87635282 -83.2578125 194.1328125 C-95.38110306 193.50254969 -103.43436742 184.8153725 -111.4375 176.453125 C-116.88708054 170.26994708 -121.28360593 163.65297192 -125.5625 156.625 C-126.08763184 155.76865967 -126.61276367 154.91231934 -127.15380859 154.0300293 C-130.13214949 149.00056683 -132.47170591 144.79357848 -131.72265625 138.76953125 C-131.50480469 138.12371094 -131.28695312 137.47789062 -131.0625 136.8125 C-130.86785156 136.15894531 -130.67320312 135.50539062 -130.47265625 134.83203125 C-128.51048586 132.39102883 -126.26966391 131.94241678 -123.37426758 130.96313477 C-118.62215673 129.03541473 -114.51279189 125.96656262 -110.3125 123.0625 C-109.34441406 122.39516846 -108.37632812 121.72783691 -107.37890625 121.0402832 C-96.37744233 113.32877912 -85.84619059 105.45688303 -80 93 C-79.525625 92.01 -79.05125 91.02 -78.5625 90 C-77.9858611 86.92459254 -78.27679417 85.16374512 -78.8125 82.125 C-79.19600587 79.07521519 -79.31575907 77.56180509 -77.796875 74.859375 C-75.96754545 72.7663583 -74.03920176 70.88870717 -72 69 C-70.56216424 67.50032184 -69.12465695 66.00032868 -67.6875 64.5 C-65.69921875 62.46875 -65.69921875 62.46875 -64 61 C-63.34 61 -62.68 61 -62 61 C-61.73880371 60.41210693 -61.47760742 59.82421387 -61.20849609 59.21850586 C-59.92903318 56.86972212 -58.57736167 55.36282963 -56.6640625 53.50390625 C-56.01179688 52.86259766 -55.35953125 52.22128906 -54.6875 51.56054688 C-54.006875 50.90119141 -53.32625 50.24183594 -52.625 49.5625 C-47.40452856 44.50832774 -47.40452856 44.50832774 -42.6484375 39.02734375 C-42.10445313 38.35832031 -41.56046875 37.68929687 -41 37 C-40.34 37 -39.68 37 -39 37 C-38.731875 36.360625 -38.46375 35.72125 -38.1875 35.0625 C-37 33 -37 33 -34 32 C-33.67 31.34 -33.34 30.68 -33 30 C-32 28 -32 28 -29 27 C-28.29282945 25.68769971 -27.63040881 24.35085416 -27 23 C-25.56713867 21.26416016 -25.56713867 21.26416016 -23.91796875 19.5390625 C-23.31533203 18.90226562 -22.71269531 18.26546875 -22.09179688 17.609375 C-21.46337891 16.95453125 -20.83496094 16.2996875 -20.1875 15.625 C-15.06413367 10.26920373 -15.06413367 10.26920373 -10.23828125 4.6484375 C-6.94292053 0.74921487 -4.99962827 -0.27025018 0 0 Z " fill="#00C2CF" transform="translate(335,64)"/>
<path d="M0 0 C3.00677473 1.35602073 5.16876657 2.89095268 7.546875 5.16796875 C8.55572754 6.126427 8.55572754 6.126427 9.58496094 7.10424805 C10.29942383 7.79172119 11.01388672 8.47919434 11.75 9.1875 C13.27058171 10.63568091 14.7914216 12.08359078 16.3125 13.53125 C17.47458984 14.64113281 17.47458984 14.64113281 18.66015625 15.7734375 C22.98882166 19.8925348 27.36424355 23.96179245 31.73339844 28.0378418 C34.45778833 30.58672765 37.14354554 33.14537027 39.765625 35.80078125 C41.99351092 38.13169344 41.99351092 38.13169344 45 40 C46.9895418 46.19498044 46.0112435 51.78473539 43.34375 57.5703125 C36.02443473 70.80465581 23.58587441 80.13979525 11 88 C9.85366931 88.7655415 8.70918294 89.53385077 7.56640625 90.3046875 C6.41985083 91.05817497 5.2727288 91.81080106 4.125 92.5625 C2.58199219 93.58537109 2.58199219 93.58537109 1.0078125 94.62890625 C-2.53012735 96.24165546 -4.30541301 96.00911854 -8 95 C-9.40097906 90.42750899 -8.48285895 87.70263371 -6.796875 83.30078125 C-6.43919037 82.34814644 -6.43919037 82.34814644 -6.07427979 81.37626648 C-5.31124961 79.35033102 -4.53148612 77.33137936 -3.75 75.3125 C-2.73963561 72.66470381 -1.73563934 70.01453098 -0.734375 67.36328125 C-0.4921521 66.72238556 -0.2499292 66.08148987 -0.00036621 65.4211731 C4.41110574 53.65857643 6.19049692 43.25008746 6.25 30.6875 C6.270625 29.61048828 6.29125 28.53347656 6.3125 27.42382812 C6.35674759 18.2922327 4.94094578 10.76434337 0 3 C0 2.01 0 1.02 0 0 Z " fill="#F67154" transform="translate(212,101)"/>
<path d="M0 0 C1.4651435 4.63674826 0.4165045 7.06068753 -1.625 11.375 C-12.69021295 35.66606965 -18.50755006 62.8129504 -11 89 C-14 90 -14 90 -16.35351562 88.88427734 C-19.32830374 86.76625016 -21.7759604 84.44905073 -24.34375 81.8515625 C-25.08111389 81.10995377 -25.08111389 81.10995377 -25.83337402 80.35336304 C-27.39371088 78.78190923 -28.94694206 77.20364454 -30.5 75.625 C-31.54250098 74.57245316 -32.58546571 73.52036542 -33.62890625 72.46875 C-35.55564236 70.52576274 -37.47905316 68.57969325 -39.40039062 66.63134766 C-40.68719727 65.32883057 -40.68719727 65.32883057 -42 64 C-42.87978516 63.08911621 -43.75957031 62.17823242 -44.66601562 61.23974609 C-47.07024471 58.93259153 -48.86465872 58.01686744 -52 57 C-52.66 56.67 -53.32 56.34 -54 56 C-53.7525 55.071875 -53.7525 55.071875 -53.5 54.125 C-53.04847872 51.30299202 -53.06089488 49.02083538 -53.1875 46.1875 C-53.21743798 36.05349314 -46.80144961 29.90098302 -40 23 C-32.81076575 15.79712394 -10.8618352 -4.19719627 0 0 Z " fill="#04D058" transform="translate(196,204)"/>
<path d="M0 0 C3.25962053 0.80630707 6.23025177 1.85780913 9.3425293 3.09741211 C30.55898231 11.52413992 57.30290598 19.86267651 79.70703125 11.32421875 C81.58652944 10.50108086 83.4630657 9.67099926 85.33203125 8.82421875 C85.99203125 8.82421875 86.65203125 8.82421875 87.33203125 8.82421875 C86.84399042 13.44819886 85.1820656 15.54712182 82.01953125 18.88671875 C81.55530762 19.37986572 81.09108398 19.8730127 80.61279297 20.38110352 C73.05552777 28.32795509 65.22074763 36.01684026 57.43383789 43.73730469 C55.73870682 45.42042473 54.05058008 47.10986009 52.3671875 48.8046875 C49.43362166 51.71573076 47.3544816 53.70525108 43.07421875 53.95703125 C30.95092819 53.32676844 22.89766383 44.63959125 14.89453125 36.27734375 C9.42851389 30.07551636 5.04526869 23.44519023 0.76953125 16.38671875 C-0.0181665 15.08963989 -0.0181665 15.08963989 -0.82177734 13.76635742 C-1.55195068 12.52849487 -1.55195068 12.52849487 -2.296875 11.265625 C-2.7307251 10.53029541 -3.1645752 9.79496582 -3.61157227 9.03735352 C-4.75620623 6.63936256 -5.25384307 4.440309 -5.66796875 1.82421875 C-2.66796875 -0.17578125 -2.66796875 -0.17578125 0 0 Z " fill="#0FDCE8" transform="translate(208.66796875,204.17578125)"/>
<path d="M0 0 C13.92995312 6.20731856 23.11756365 18.57136595 31.16796875 31.078125 C31.5659668 31.69574707 31.96396484 32.31336914 32.37402344 32.94970703 C39.80909235 44.68688584 39.80909235 44.68688584 39.16796875 52.078125 C38.83796875 52.408125 38.50796875 52.738125 38.16796875 53.078125 C31.3343771 52.7501126 26.0195588 50.54049201 19.85546875 47.703125 C12.733659 44.44443714 5.79705485 41.88382995 -1.83203125 40.078125 C-2.65630615 39.87501709 -3.48058105 39.67190918 -4.32983398 39.46264648 C-10.80121362 38.00182533 -17.08736523 37.73192373 -23.70703125 37.765625 C-24.76043701 37.76691406 -25.81384277 37.76820313 -26.89916992 37.76953125 C-33.53790537 37.85171289 -39.41667969 38.37451373 -45.7578125 40.421875 C-47.83203125 41.078125 -47.83203125 41.078125 -50.83203125 41.078125 C-49.60882496 35.40833326 -47.98450853 32.62854925 -43.7109375 28.50390625 C-43.21037338 28.01278854 -42.70980927 27.52167084 -42.19407654 27.01567078 C-40.60571081 25.46163873 -39.0011365 23.92577192 -37.39453125 22.390625 C-35.79514195 20.84138992 -34.19935113 19.28857797 -32.60569763 17.73344421 C-31.16073226 16.32672148 -29.70670011 14.92932977 -28.25219727 13.5324707 C-25.83455289 11.19953947 -25.83455289 11.19953947 -24.12866211 8.75463867 C-23.70077393 8.20138916 -23.27288574 7.64813965 -22.83203125 7.078125 C-22.17203125 7.078125 -21.51203125 7.078125 -20.83203125 7.078125 C-20.50203125 6.088125 -20.17203125 5.098125 -19.83203125 4.078125 C-18.84203125 4.078125 -17.85203125 4.078125 -16.83203125 4.078125 C-16.50203125 3.088125 -16.17203125 2.098125 -15.83203125 1.078125 C-10.7625501 -2.15585435 -5.56724583 -1.8122345 0 0 Z " fill="#0CB2FB" transform="translate(156.83203125,143.921875)"/>
<path d="M0 0 C0.33 1.32 0.66 2.64 1 4 C1.928125 3.95875 2.85625 3.9175 3.8125 3.875 C7 4 7 4 10 6 C9.25 13.75 9.25 13.75 7 16 C0.53846154 15.53846154 0.53846154 15.53846154 -2 13 C-2.44286767 8.23917255 -1.43305609 4.47830028 0 0 Z M1 8 C1.33 9.32 1.66 10.64 2 12 C5.04913228 13.01111093 5.04913228 13.01111093 8 12 C7.67 10.35 7.34 8.7 7 7 C3.2236068 6.7018576 3.2236068 6.7018576 1 8 Z " fill="#4A5454" transform="translate(196,190)"/>
<path d="M0 0 C0.66 0.33 1.32 0.66 2 1 C1.01 1.66 0.02 2.32 -1 3 C-0.67 2.01 -0.34 1.02 0 0 Z M-4 3 C-3.01 3.33 -2.02 3.66 -1 4 C-8.59 11.59 -16.18 19.18 -24 27 C-24.66 26.67 -25.32 26.34 -26 26 C-25.53102295 25.53625977 -25.0620459 25.07251953 -24.57885742 24.59472656 C-22.44575618 22.48247339 -20.31660041 20.36628554 -18.1875 18.25 C-17.44951172 17.52039063 -16.71152344 16.79078125 -15.95117188 16.0390625 C-15.23896484 15.33007812 -14.52675781 14.62109375 -13.79296875 13.890625 C-13.1383667 13.24125977 -12.48376465 12.59189453 -11.80932617 11.92285156 C-9.94130699 10.02204699 -9.94130699 10.02204699 -8.38793945 7.75683594 C-7.70090942 6.88720215 -7.70090942 6.88720215 -7 6 C-6.34 6 -5.68 6 -5 6 C-4.67 5.01 -4.34 4.02 -4 3 Z " fill="#157BAA" transform="translate(141,145)"/>
<path d="M0 0 C-0.61875 0.0825 -1.2375 0.165 -1.875 0.25 C-2.57625 0.4975 -3.2775 0.745 -4 1 C-4.26167969 1.55816406 -4.52335937 2.11632812 -4.79296875 2.69140625 C-6.46216993 5.88395607 -8.89684713 8.18659659 -11.4375 10.6875 C-11.92798828 11.18572266 -12.41847656 11.68394531 -12.92382812 12.19726562 C-15.26685893 14.52764849 -16.82183707 15.94061236 -20 17 C-18.38099697 13.14000407 -15.87580173 10.44030086 -13.0625 7.375 C-12.18722656 6.41335937 -11.31195313 5.45171875 -10.41015625 4.4609375 C-6.88629377 0.86282832 -4.97127498 -0.26871757 0 0 Z " fill="#15656B" transform="translate(335,64)"/>
<path d="M0 0 C0.33 0.99 0.66 1.98 1 3 C-4.28 8.28 -9.56 13.56 -15 19 C-15 15.25983417 -14.0658409 14.54723807 -11.625 11.8125 C-10.68527344 10.73935547 -10.68527344 10.73935547 -9.7265625 9.64453125 C-8 8 -8 8 -6 8 C-5.7525 7.4225 -5.505 6.845 -5.25 6.25 C-3.83316683 3.6997003 -2.12372463 1.98214299 0 0 Z " fill="#0C639E" transform="translate(104,183)"/>
<path d="M0 0 C3.23861303 1.44424635 5.61969163 3.25772247 8.25 5.625 C8.95640625 6.25664062 9.6628125 6.88828125 10.390625 7.5390625 C10.92171875 8.02117187 11.4528125 8.50328125 12 9 C11.01 10.32 10.02 11.64 9 13 C8.34 12.67 7.68 12.34 7 12 C6.9175 11.29875 6.835 10.5975 6.75 9.875 C5.65249092 5.66788188 2.93517424 3.1146956 0 0 Z " fill="#392C34" transform="translate(131,135)"/>
</svg>
