<?xml version="1.0" encoding="UTF-8"?>
<svg version="1.1" xmlns="http://www.w3.org/2000/svg" width="1000" height="970">
<path d="M0 0 C6.96974106 5.51518641 10.95803647 13.07536391 15.24609375 20.71484375 C15.90552836 21.87574696 16.56586474 23.03613834 17.22705078 24.19604492 C18.58129001 26.5723133 19.93265591 28.95017905 21.28222656 31.32910156 C24.19167657 36.4376386 27.15294569 41.51525419 30.12109375 46.58984375 C30.68634766 47.55784912 31.25160156 48.52585449 31.83398438 49.52319336 C37.18790318 58.68841443 42.55891417 67.84363047 47.92919922 76.99926758 C52.94511251 85.55176761 57.94526715 94.11333875 62.9375 102.6796875 C67.52767347 110.55303743 72.13490783 118.4162912 76.74609375 126.27734375 C82.4903921 136.07010248 88.22105292 145.87063397 93.9375 155.6796875 C98.52767361 163.55303769 103.13496559 171.41625712 107.74609375 179.27734375 C115.83208152 193.06301925 123.88772213 206.86624566 131.93457031 220.67480469 C139.21868374 233.17325176 146.519291 245.66184269 153.83853149 258.13973999 C159.2184427 267.31183288 164.58344262 276.49247125 169.9375 285.6796875 C174.52767347 293.55303743 179.13490783 301.4162912 183.74609375 309.27734375 C189.4903921 319.07010248 195.22105292 328.87063397 200.9375 338.6796875 C205.52767347 346.55303743 210.13490783 354.4162912 214.74609375 362.27734375 C220.4903921 372.07010248 226.22105292 381.87063397 231.9375 391.6796875 C236.52767361 399.55303769 241.13496559 407.41625712 245.74609375 415.27734375 C253.83208152 429.06301925 261.88772213 442.86624566 269.93457031 456.67480469 C277.21868374 469.17325176 284.519291 481.66184269 291.83853149 494.13973999 C297.2184427 503.31183288 302.58344262 512.49247125 307.9375 521.6796875 C312.52767347 529.55303743 317.13490783 537.4162912 321.74609375 545.27734375 C327.4903921 555.07010248 333.22105292 564.87063397 338.9375 574.6796875 C343.52767361 582.55303769 348.13496559 590.41625712 352.74609375 598.27734375 C360.83208152 612.06301925 368.88772213 625.86624566 376.93457031 639.67480469 C384.21868374 652.17325176 391.519291 664.66184269 398.83853149 677.13973999 C404.2184427 686.31183288 409.58344262 695.49247125 414.9375 704.6796875 C419.89005526 713.17461714 424.86253043 721.65778398 429.83834839 730.13909912 C433.5248461 736.42295134 437.20900159 742.70806245 440.875 749.00390625 C441.73242798 750.47621704 441.73242798 750.47621704 442.60717773 751.97827148 C443.73686026 753.91975629 444.86528904 755.86197117 445.99243164 757.80493164 C449.08637462 763.12541097 452.2274619 768.41353171 455.42578125 773.671875 C469.9126567 797.55053852 481.41437506 820.46550072 475.24609375 849.27734375 C464.68590264 882.7837445 433.8456417 902.09445712 404.30859375 917.65234375 C316.26236504 963.27052434 211.67360809 982.59268431 115.55371094 952.11328125 C90.82638614 944.01082118 66.89121752 933.57982498 43.24609375 922.77734375 C42.1468457 922.27654297 41.04759766 921.77574219 39.91503906 921.25976562 C25.00101429 914.4486362 10.22958143 907.36983567 -4.50393677 900.17922974 C-17.72558088 893.72850278 -31.02651615 887.47928134 -44.39306641 881.33349609 C-47.77632657 879.76696258 -51.14716688 878.17621354 -54.515625 876.578125 C-144.15202577 834.17067573 -231.54661497 821.14340403 -414.89959717 867.54290771 C-423.61839118 870.70718085 -432.20359422 874.18526016 -440.75390625 877.77734375 C-441.9253418 878.26493164 -443.09677734 878.75251953 -444.30371094 879.25488281 C-462.02893993 886.66364084 -479.37184318 894.77641376 -496.61328125 903.24609375 C-497.23801331 903.5529158 -497.86274536 903.85973785 -498.50640869 904.17585754 C-501.27785668 905.54133189 -504.03840215 906.92379602 -506.78540039 908.33789062 C-507.66832764 908.79228516 -508.55125488 909.24667969 -509.4609375 909.71484375 C-510.20577393 910.10542969 -510.95061035 910.49601563 -511.71801758 910.8984375 C-514.86445195 912.25677348 -517.40727539 912.32373246 -520.75390625 911.77734375 C-522.69140625 910.77734375 -522.69140625 910.77734375 -523.75390625 908.77734375 C-524.8444833 900.87731001 -521.67753779 896.71394493 -517.12890625 890.46484375 C-516.11425293 889.02830444 -516.11425293 889.02830444 -515.07910156 887.56274414 C-512.9904504 884.61953432 -510.87489794 881.69730516 -508.75390625 878.77734375 C-507.51146875 877.04314783 -506.26926925 875.30878137 -505.02734375 873.57421875 C-499.07855892 865.33184779 -492.92011993 857.34960695 -486.25390625 849.67578125 C-483.91594334 846.9652055 -481.67326763 844.20037584 -479.44140625 841.40234375 C-469.99430285 829.85404572 -459.40271936 819.33347583 -448.87890625 808.77734375 C-448.38694763 808.2827063 -447.89498901 807.78806885 -447.38812256 807.27844238 C-441.69177996 801.55857002 -435.92923093 795.9819383 -429.75390625 790.77734375 C-429.12548828 790.24222168 -428.49707031 789.70709961 -427.84960938 789.15576172 C-356.38831562 728.64535011 -263.52777087 698.1520365 -169.87719727 705.72265625 C-105.33501156 711.68471464 -44.18301835 734.07513736 11.18481445 767.33007812 C52.57029223 792.1199136 97.78113555 810.79927582 145.18359375 820.08984375 C146.41416504 820.3324292 147.64473633 820.57501465 148.91259766 820.82495117 C164.89048789 823.82916834 180.62939403 825.16526544 196.87109375 825.08984375 C197.69481476 825.08802094 198.51853577 825.08619812 199.36721802 825.08432007 C213.16899054 825.03320054 226.6443906 824.27143154 240.24609375 821.77734375 C241.21530762 821.60041992 242.18452148 821.42349609 243.18310547 821.24121094 C253.34994641 819.32281403 263.37775604 816.95935898 273.24609375 813.83984375 C273.95749512 813.62352295 274.66889648 813.40720215 275.40185547 813.18432617 C281.30083124 811.19744452 286.29270735 807.83481811 289.68359375 802.52734375 C292.53890968 788.56802141 284.81895658 778.83685897 277.87109375 767.27734375 C276.43374976 764.87255028 274.99967723 762.46581658 273.56640625 760.05859375 C273.20399841 759.45031738 272.84159058 758.84204102 272.46820068 758.21533203 C268.83355197 752.10416632 265.28483784 745.94446528 261.74609375 739.77734375 C256.64884926 730.90182555 251.47920681 722.0734274 246.24609375 713.27734375 C240.37786847 703.41373104 234.60689294 693.49919834 228.890625 683.546875 C224.40562791 675.75219453 219.84406581 668.00584998 215.24609375 660.27734375 C209.37786847 650.41373104 203.60689294 640.49919834 197.890625 630.546875 C193.40562791 622.75219453 188.84406581 615.00584998 184.24609375 607.27734375 C178.37786847 597.41373104 172.60689294 587.49919834 166.890625 577.546875 C162.40562791 569.75219453 157.84406581 562.00584998 153.24609375 554.27734375 C147.37786847 544.41373104 141.60689294 534.49919834 135.890625 524.546875 C131.40562791 516.75219453 126.84406581 509.00584998 122.24609375 501.27734375 C116.37786847 491.41373104 110.60689294 481.49919834 104.890625 471.546875 C100.40562791 463.75219453 95.84406581 456.00584998 91.24609375 448.27734375 C85.37786847 438.41373104 79.60689294 428.49919834 73.890625 418.546875 C69.40562791 410.75219453 64.84406581 403.00584998 60.24609375 395.27734375 C54.37786847 385.41373104 48.60689294 375.49919834 42.890625 365.546875 C37.75188827 356.61603066 32.50419136 347.75273581 27.23535156 338.89819336 C22.5915869 331.0814911 18.0251434 323.22348633 13.49609375 315.33984375 C11.08259679 311.15050849 8.66547237 306.96328473 6.24609375 302.77734375 C5.6727832 301.7836377 5.09947266 300.78993164 4.50878906 299.76611328 C2.89046779 296.97163757 1.25827199 294.18580337 -0.37890625 291.40234375 C-0.85166992 290.58193604 -1.32443359 289.76152832 -1.81152344 288.91625977 C-4.297332 284.72447782 -6.48736868 281.36725474 -10.75390625 278.77734375 C-15.36906346 277.84482911 -20.74310297 278.22501439 -24.75390625 280.77734375 C-25.4429132 282.43489968 -26.10563205 284.1034373 -26.75390625 285.77734375 C-27.77579761 287.62345697 -28.83529496 289.44901738 -29.921875 291.2578125 C-30.55996094 292.32580078 -31.19804687 293.39378906 -31.85546875 294.49414062 C-32.19481445 295.05866943 -32.53416016 295.62319824 -32.88378906 296.20483398 C-34.70673784 299.23845303 -36.51730885 302.27944065 -38.328125 305.3203125 C-38.69980804 305.94404755 -39.07149109 306.56778259 -39.45443726 307.2104187 C-43.11534025 313.36433476 -46.69061559 319.56646575 -50.25390625 325.77734375 C-56.00691143 335.79486734 -61.86706324 345.74413954 -67.7734375 355.671875 C-72.32792536 363.3393332 -76.81218636 371.04407565 -81.25390625 378.77734375 C-87.00744849 388.7945636 -92.8670581 398.7441309 -98.7734375 408.671875 C-103.32792536 416.3393332 -107.81218636 424.04407565 -112.25390625 431.77734375 C-117.35156169 440.65263016 -122.5208009 449.48124613 -127.75390625 458.27734375 C-133.69097165 468.25694222 -139.53158321 478.28745356 -145.31811523 488.35498047 C-149.78546352 496.11992397 -154.3160399 503.84482324 -158.88671875 511.54931641 C-163.72343775 519.70679019 -168.49976491 527.89892473 -173.26196289 536.10009766 C-173.82004639 537.05964355 -174.37812988 538.01918945 -174.953125 539.0078125 C-175.44643311 539.85754639 -175.93974121 540.70728027 -176.44799805 541.58276367 C-177.49755826 543.34655068 -178.61541585 545.06960815 -179.75390625 546.77734375 C-179.43660101 550.41674307 -179.43660101 550.41674307 -178.75390625 553.77734375 C-177.97273438 553.98488281 -177.1915625 554.19242188 -176.38671875 554.40625 C-174.55178991 554.89461079 -172.71696826 555.3833891 -170.88330078 555.87646484 C-166.59175221 557.02903017 -162.29420794 558.15228595 -157.98828125 559.25 C-106.90811559 572.41841706 -56.46216213 594.06582139 -14.49902344 626.44433594 C-12.62548583 627.87543769 -10.72825625 629.26992137 -8.82421875 630.66015625 C0.6186087 637.58103568 9.51865163 644.97785657 18.24609375 652.77734375 C19.17292969 653.60363281 20.09976563 654.42992187 21.0546875 655.28125 C22.67287905 656.73282589 24.28650056 658.18951985 25.89453125 659.65234375 C27.57258277 661.16872253 29.26723221 662.66681679 30.97265625 664.15234375 C31.86726562 664.93609375 32.761875 665.71984375 33.68359375 666.52734375 C34.48667969 667.2234375 35.28976562 667.91953125 36.1171875 668.63671875 C38.94081223 671.47588637 40.94586968 674.0584138 41.64453125 678.05859375 C41.57957195 684.20807439 40.38464769 687.37147057 36.24609375 692.02734375 C33.04743491 694.82617024 29.79092086 695.20285482 25.61083984 695.13916016 C20.6882501 694.38598258 16.4257406 691.74685767 12.05859375 689.46484375 C-32.87918917 666.99762495 -85.56525883 652.67968243 -135.80371094 648.92431641 C-137.64557116 648.78550821 -139.48507132 648.61634919 -141.32421875 648.4453125 C-221.60375451 641.94319027 -304.68082755 660.91436707 -380.37890625 686.08984375 C-381.09387268 686.32633636 -381.80883911 686.56282898 -382.54547119 686.80648804 C-388.87563402 688.91142038 -395.15493844 691.04408804 -401.26855469 693.72412109 C-402.02204193 694.05139694 -402.77552917 694.37867279 -403.55184937 694.71586609 C-404.98902023 695.34836907 -406.41915441 695.99722626 -407.83999634 696.66560364 C-412.94804437 698.92001609 -416.27888783 698.95560808 -421.75390625 697.77734375 C-426.61809661 695.29935998 -428.96261272 692.95219173 -430.75390625 687.77734375 C-431.67371028 680.13200015 -428.95633057 675.60291952 -425.06640625 669.15234375 C-424.47915771 668.14743896 -423.89190918 667.14253418 -423.28686523 666.10717773 C-421.4587646 662.98733315 -419.60768709 659.88198151 -417.75390625 656.77734375 C-416.66388721 654.92795329 -415.57528773 653.07772524 -414.48828125 651.2265625 C-412.3524827 647.59501461 -410.20717426 643.96933627 -408.0546875 640.34765625 C-404.67444889 634.65409504 -401.33562727 628.93689738 -398.00390625 623.21484375 C-392.82973081 614.33200239 -387.64168631 605.45741867 -382.44140625 596.58984375 C-382.08682343 595.98515259 -381.7322406 595.38046143 -381.36691284 594.75744629 C-378.4651602 589.80901631 -375.56273811 584.86097909 -372.66027832 579.91296387 C-370.12867481 575.59710724 -367.59733228 571.28109771 -365.06640625 566.96484375 C-364.71121918 566.3591153 -364.3560321 565.75338684 -363.99008179 565.12930298 C-358.6676935 556.0516648 -353.36019523 546.96542553 -348.06176758 537.8737793 C-343.10911787 529.37858483 -338.13601076 520.89547367 -333.16064453 512.41357422 C-328.34753969 504.20780166 -323.54388916 495.99664467 -318.75390625 487.77734375 C-313.23861108 478.31345388 -307.70280931 468.86173989 -302.16064453 459.41357422 C-297.34753969 451.20780166 -292.54388916 442.99664467 -287.75390625 434.77734375 C-282.23861108 425.31345388 -276.70280931 415.86173989 -271.16064453 406.41357422 C-266.34753969 398.20780166 -261.54388916 389.99664467 -256.75390625 381.77734375 C-251.23861108 372.31345388 -245.70280931 362.86173989 -240.16064453 353.41357422 C-235.34753969 345.20780166 -230.54388916 336.99664467 -225.75390625 328.77734375 C-220.23861108 319.31345388 -214.70280931 309.86173989 -209.16064453 300.41357422 C-204.34753969 292.20780166 -199.54388916 283.99664467 -194.75390625 275.77734375 C-189.23861108 266.31345388 -183.70280931 256.86173989 -178.16064453 247.41357422 C-173.34753962 239.20780154 -168.54393363 230.99661884 -163.75390625 222.77734375 C-158.66201607 214.04096337 -153.55634119 205.31274465 -148.44140625 196.58984375 C-147.90898819 195.68185532 -147.90898819 195.68185532 -147.36581421 194.75552368 C-144.46442852 189.80773415 -141.56236467 184.86034246 -138.66027832 179.91296387 C-136.12867481 175.59710724 -133.59733228 171.28109771 -131.06640625 166.96484375 C-130.71121918 166.3591153 -130.3560321 165.75338684 -129.99008179 165.12930298 C-124.6676935 156.0516648 -119.36019523 146.96542553 -114.06176758 137.8737793 C-109.10911787 129.37858483 -104.13601076 120.89547367 -99.16064453 112.41357422 C-94.34753969 104.20780166 -89.54388916 95.99664467 -84.75390625 87.77734375 C-78.88153245 77.70073005 -72.98639778 67.63760546 -67.08349609 57.57885742 C-63.0868621 50.76688369 -59.10462757 43.94688789 -55.13916016 37.11669922 C-52.88236991 33.23602163 -50.61232338 29.36320534 -48.33984375 25.49169922 C-46.7876827 22.83515264 -45.25497747 20.16802397 -43.72265625 17.5 C-42.77574084 15.88352764 -41.82788046 14.26760832 -40.87890625 12.65234375 C-40.47494629 11.93602783 -40.07098633 11.21971191 -39.65478516 10.48168945 C-31.24153836 -3.64772645 -14.45540916 -7.65286367 0 0 Z " fill="#00ADD4" transform="translate(523.75390625,3.22265625)"/>
</svg>
