<?xml version="1.0" encoding="UTF-8"?>
<svg version="1.1" xmlns="http://www.w3.org/2000/svg" width="492" height="492">
<path d="M0 0 C9.08881081 8.71509326 14.93636403 18.81832155 18.6875 30.8125 C18.93242187 31.55628906 19.17734375 32.30007812 19.4296875 33.06640625 C23.60675391 48.1438994 20.41039868 64.9791975 13.5 78.6875 C9.95605621 84.8061038 5.70527254 89.85613377 0.6875 94.8125 C0.07390625 95.44800781 -0.5396875 96.08351563 -1.171875 96.73828125 C-9.34062817 104.61030621 -19.40766361 108.38920302 -30.3125 110.8125 C-30.3125 122.6925 -30.3125 134.5725 -30.3125 146.8125 C-24.8675 147.8025 -24.8675 147.8025 -19.3125 148.8125 C-6.21267629 152.98133544 4.92338484 160.26258847 14.6875 169.8125 C15.25855469 170.36808594 15.82960937 170.92367187 16.41796875 171.49609375 C17.52181942 172.58757635 18.60795582 173.69697101 19.6875 174.8125 C24.79103337 173.16847641 28.76668146 170.10545623 33.0625 167 C33.79210937 166.47857422 34.52171875 165.95714844 35.2734375 165.41992188 C37.41468073 163.8885506 39.55113356 162.35066388 41.6875 160.8125 C44.01955376 159.14403436 46.35353794 157.47829614 48.6875 155.8125 C48.52894531 154.51570312 48.37039063 153.21890625 48.20703125 151.8828125 C46.26199104 134.20125694 47.2520436 116.93467687 57.6875 101.8125 C60.5205591 98.30219502 63.55288096 95.05290547 66.6875 91.8125 C67.21730469 91.18601562 67.74710938 90.55953125 68.29296875 89.9140625 C77.97343235 78.91466684 94.40630817 73.59258241 108.625 72.609375 C125.46349175 72.35164298 141.38950208 77.0419374 154.1875 88.25 C155.71067686 89.7476202 157.21194194 91.26794102 158.6875 92.8125 C159.40421875 93.52148438 160.1209375 94.23046875 160.859375 94.9609375 C171.9547068 106.51509881 176.72398467 122.05297875 177.1875 137.8125 C176.59397009 157.36069479 168.88141585 173.42572777 154.6875 186.8125 C139.46888978 199.69903251 122.08049276 203.38338464 102.6875 201.8125 C87.61211763 199.75913494 75.31720814 192.39421849 64.6875 181.8125 C61.43284847 183.33609467 58.55075835 185.18618211 55.58984375 187.21875 C54.62369141 187.88003906 53.65753906 188.54132813 52.66210938 189.22265625 C51.65986328 189.91230469 50.65761719 190.60195312 49.625 191.3125 C47.63415426 192.67714122 45.64327054 194.04172703 43.65234375 195.40625 C42.7718335 196.01146484 41.89132324 196.61667969 40.98413086 197.24023438 C39.22690255 198.44322686 37.45940424 199.63123051 35.6875 200.8125 C36.120625 202.5759375 36.120625 202.5759375 36.5625 204.375 C40.01905865 220.31495749 41.05226644 235.64910823 36.2109375 251.39453125 C35.61667116 254.13968693 35.64189353 255.22091133 36.6875 257.8125 C38.86606955 259.80908689 38.86606955 259.80908689 41.640625 261.6328125 C43.15849609 262.68275391 43.15849609 262.68275391 44.70703125 263.75390625 C45.77308594 264.47449219 46.83914063 265.19507813 47.9375 265.9375 C49.51337891 267.02998047 49.51337891 267.02998047 51.12109375 268.14453125 C57.58073961 272.58137747 57.58073961 272.58137747 64.6875 275.8125 C65.39132812 275.17183594 66.09515625 274.53117187 66.8203125 273.87109375 C81.98307643 260.58882927 98.46178113 254.53275362 118.67431641 255.65283203 C135.50347301 256.98757232 148.24909148 265.10093546 159.6875 276.8125 C160.70457031 277.79863281 160.70457031 277.79863281 161.7421875 278.8046875 C173.00792731 290.47098695 177.2333751 306.68483262 177.03491211 322.51269531 C176.42062583 340.53986896 169.33887374 355.35982629 156.46655273 367.77612305 C141.91627358 381.14016955 125.18547707 385.62292782 105.8046875 384.93554688 C88.89581745 383.95283579 73.90614123 375.06037437 62.6875 362.8125 C49.26104561 346.71066355 46.5161333 328.68018045 47.921875 308.4375 C48.13560488 306.22476709 48.40301573 304.01725307 48.6875 301.8125 C47.66011719 301.11125 46.63273438 300.41 45.57421875 299.6875 C37.52224187 294.17902113 29.53277094 288.61334652 21.6875 282.8125 C18.25580115 284.26906551 16.30216212 286.12862174 13.8125 288.875 C1.71562807 301.18965522 -13.5411442 307.76316258 -30.3125 310.8125 C-30.3125 323.3525 -30.3125 335.8925 -30.3125 348.8125 C-27.3425 349.4725 -24.3725 350.1325 -21.3125 350.8125 C-11.80879535 354.54572892 -4.44831186 359.48382836 2.6875 366.8125 C3.31011719 367.40289062 3.93273437 367.99328125 4.57421875 368.6015625 C16.08046245 380.34051675 21.22945416 397.65020842 21.10986328 413.72167969 C20.43040375 432.24028263 11.70865187 448.18917226 -1.3125 460.9375 C-16.1601362 473.57978782 -34.34077039 477.13872775 -53.3125 475.8125 C-68.21993749 474.15431175 -80.99973545 466.42691763 -91.3125 455.8125 C-91.94542969 455.20019531 -92.57835937 454.58789062 -93.23046875 453.95703125 C-105.11165171 441.65620385 -108.83773629 425.24256095 -108.73242188 408.67163086 C-108.25480479 391.5769195 -101.19991982 376.57934538 -89.203125 364.47265625 C-80.61727274 356.57135167 -69.82504913 350.73125819 -58.3125 348.8125 C-58.3125 336.2725 -58.3125 323.7325 -58.3125 310.8125 C-63.5925 309.4925 -68.8725 308.1725 -74.3125 306.8125 C-82.91783786 302.97987053 -90.23047915 298.97695975 -97.3125 292.8125 C-98.52679688 291.81283203 -98.52679688 291.81283203 -99.765625 290.79296875 C-115.59957131 277.31468623 -125.50163353 258.59158908 -127.3125 237.8125 C-129.13462445 213.85493779 -122.85279362 192.34573906 -107.3125 173.8125 C-94.27622611 158.77064551 -77.75658635 150.34778843 -58.3125 146.8125 C-58.3125 134.9325 -58.3125 123.0525 -58.3125 110.8125 C-61.2825 110.1525 -64.2525 109.4925 -67.3125 108.8125 C-82.93089704 102.73545332 -95.93496153 90.87406223 -103.3125 75.8125 C-110.47858612 57.49662493 -110.63772583 38.12727508 -103.09765625 19.87109375 C-94.59741537 2.55031305 -78.59393154 -8.83307593 -60.79296875 -15.0703125 C-39.10353836 -20.46418135 -16.82417372 -14.12399769 0 0 Z M-66.1875 25.9375 C-72.9874249 35.13739839 -75.87483903 43.32392076 -74.3125 54.8125 C-72.22270113 63.3226254 -67.70574289 69.69701679 -60.5 74.625 C-52.5180572 79.19688784 -44.25018187 79.59770278 -35.3125 77.8125 C-27.62996179 75.17504742 -21.06750779 70.70095894 -17.03125 63.5390625 C-13.37097668 55.66947487 -11.92776759 47.83427452 -14.4375 39.375 C-17.76757176 30.43314064 -22.74373745 24.16828763 -31.3125 19.8125 C-44.20177377 14.73756796 -55.42547099 17.98295682 -66.1875 25.9375 Z M89.6875 115.8125 C82.98881206 124.67962919 80.6354666 132.75299892 81.6875 143.8125 C84.05860138 152.66371369 89.74487268 160.14668455 97.5625 164.8046875 C105.22714777 168.43975942 113.24357411 169.13955119 121.5078125 167.125 C130.40213654 163.86102788 136.51479681 158.3141874 140.6875 149.8125 C143.52210791 142.46054875 144.15178835 134.99478178 141.51953125 127.4765625 C137.170996 118.42177187 131.23331233 111.60617861 121.640625 108.0546875 C109.63508456 104.75083722 98.75123475 107.41046405 89.6875 115.8125 Z M-78.59375 202.3671875 C-85.41314474 212.06932638 -88.32683953 223.30019629 -86.83984375 235.0625 C-84.62676392 246.60330146 -79.0115343 256.65793389 -69.5 263.75 C-58.76704354 270.59349058 -46.82644398 273.4131315 -34.27734375 270.73046875 C-21.50105197 266.77469989 -12.21033639 260.18820996 -5.6015625 248.47265625 C-0.57532895 238.10033792 0.44621016 226.75342868 -2.875 215.6875 C-7.86258619 202.45727137 -15.20534072 194.83908874 -27.8046875 188.84765625 C-46.0419364 181.31981987 -66.18147343 187.36054165 -78.59375 202.3671875 Z M89.6875 298.8125 C83.30096643 306.4272131 81.1956196 313.69657825 81.375 323.5625 C82.12371634 331.34914998 86.34782706 338.20339402 91.6875 343.8125 C99.89863654 350.28287559 108.39384668 351.80227436 118.6875 350.8125 C127.53929671 348.43762771 135.02043247 342.75722872 139.6796875 334.9375 C143.23212552 327.44708804 144.16667004 319.32577016 142 311.25 C141.05021822 308.97052373 139.96456295 306.92487456 138.6875 304.8125 C138.10355469 303.76449219 138.10355469 303.76449219 137.5078125 302.6953125 C133.16469854 295.88510422 126.17401655 292.49204588 118.58203125 290.16796875 C107.85088404 288.15449577 97.82929591 291.74199303 89.6875 298.8125 Z M-66.3125 389.8125 C-72.82586614 397.54796165 -74.89985114 405.08774402 -74.76171875 415.12890625 C-73.88417377 422.32477509 -70.43144458 427.94569263 -66.1875 433.6875 C-56.99346922 440.48308797 -48.79596197 443.38576118 -37.3125 441.8125 C-27.90895799 439.41725817 -21.71672171 434.27787935 -16.5703125 426.140625 C-12.54562008 418.69119431 -12.36430143 410.71152537 -14.5625 402.6875 C-17.55620511 393.65120116 -23.40236949 387.6452676 -31.5625 382.9375 C-44.80071504 378.96603549 -55.9442955 380.51808239 -66.3125 389.8125 Z " fill="#DCE0DF" transform="translate(221.3125,16.1875)"/>
</svg>
