<?xml version="1.0" encoding="UTF-8"?>
<svg version="1.1" xmlns="http://www.w3.org/2000/svg" width="121" height="154">
<path d="M0 0 C39.93 0 79.86 0 121 0 C121 50.82 121 101.64 121 154 C81.07 154 41.14 154 0 154 C0 103.18 0 52.36 0 0 Z " fill="#010101" transform="translate(0,0)"/>
<path d="M0 0 C4.14327184 2.25631664 6.69711307 5.08172615 8.8125 9.3125 C9.63384287 14.90594894 9.44909165 19.15487018 6.0625 23.8125 C3.91073106 26.46417486 2.00332203 28.05627085 -1.1875 29.3125 C-2.1775 29.3125 -3.1675 29.3125 -4.1875 29.3125 C-4.1875 32.2825 -4.1875 35.2525 -4.1875 38.3125 C-3.48625 38.395 -2.785 38.4775 -2.0625 38.5625 C0.8125 39.3125 0.8125 39.3125 3.8125 41.4375 C6.61381018 43.59608866 6.61381018 43.59608866 9.5625 43.125 C11.80641452 42.36422659 11.80641452 42.36422659 13.8125 41.3125 C14.12936329 39.15457531 14.12936329 39.15457531 14.1875 36.625 C14.69523634 30.48839356 16.79304557 27.18049535 21.3125 23 C25.04495348 20.4805939 28.11771788 20.18463556 32.5625 20.25 C33.36171875 20.25902344 34.1609375 20.26804687 34.984375 20.27734375 C35.58765625 20.28894531 36.1909375 20.30054687 36.8125 20.3125 C36.8125 20.9725 36.8125 21.6325 36.8125 22.3125 C37.555 22.539375 38.2975 22.76625 39.0625 23 C42.90396563 24.83342678 44.92738412 27.54226824 46.8125 31.3125 C47.62230094 37.83073377 46.73536213 42.04760608 42.8125 47.3125 C37.92041794 51.10635955 34.10595382 52.64006772 27.87109375 52.6171875 C24.64037391 52.13901644 22.43831725 50.16250761 19.8125 48.3125 C17.67446946 48.38856836 17.67446946 48.38856836 15.8125 49.3125 C14.47916667 49.64583333 13.14583333 49.97916667 11.8125 50.3125 C12.1425 51.3025 12.4725 52.2925 12.8125 53.3125 C12.72725825 56.38120284 12.55460512 59.43638884 12.359375 62.5 C12.52372604 65.51810383 12.52372604 65.51810383 15.1953125 67.23046875 C17.70741225 68.60001453 17.70741225 68.60001453 19.9375 67.625 C20.55625 67.191875 21.175 66.75875 21.8125 66.3125 C26.08461807 63.46442129 29.8008951 63.81917014 34.8125 64.3125 C40.48708978 66.23971917 44.13300871 69.95351742 46.8125 75.3125 C47.62512128 81.85343522 46.67214688 85.99244619 42.8125 91.3125 C38.11348915 95.66768079 34.34158151 96.67489067 28.09375 96.59375 C23.31270514 96.00430611 20.56288822 93.16429203 17.5 89.6875 C14.60013521 85.60620882 14.59651736 82.63483758 14.38671875 77.72265625 C14.01550517 75.14366691 14.01550517 75.14366691 11.76953125 73.49609375 C11.12371094 73.10550781 10.47789063 72.71492188 9.8125 72.3125 C7.25050443 73.4949595 5.13157756 74.79482006 2.8125 76.4375 C-0.1875 78.3125 -0.1875 78.3125 -4.1875 78.3125 C-4.06257943 82.39471169 -4.06257943 82.39471169 -3.1875 86.3125 C-0.43821961 88.10416418 -0.43821961 88.10416418 2.8125 89.3125 C6.44275003 92.53938891 8.43430826 94.61728545 9.12109375 99.51171875 C9.43694794 105.60866181 8.47442971 109.05169905 4.44140625 113.68359375 C0.72929599 117.39570401 -1.91687476 118.49309696 -7.125 118.75 C-11.87830995 118.59461691 -14.55350329 117.51387806 -18.1875 114.3125 C-22.4897759 109.54511319 -23.55032503 105.87502705 -23.46875 99.59375 C-22.87930611 94.81270514 -20.03929203 92.06288822 -16.5625 89 C-14.1875 87.3125 -14.1875 87.3125 -12.1875 86.3125 C-11.72226937 84.41716658 -11.72226937 84.41716658 -11.5625 82.25 C-11.43875 80.950625 -11.315 79.65125 -11.1875 78.3125 C-11.92871094 78.21066406 -12.66992188 78.10882813 -13.43359375 78.00390625 C-18.67890544 76.68699821 -22.49727256 72.67599353 -25.58984375 68.3515625 C-28.09099121 63.8477169 -29.26243075 59.44412594 -28.1875 54.3125 C-25.86952435 47.87148682 -23.0108537 42.99666255 -17.1875 39.3125 C-13.8125 38.5 -13.8125 38.5 -11.1875 38.3125 C-11.1875 35.6725 -11.1875 33.0325 -11.1875 30.3125 C-11.909375 30.085625 -12.63125 29.85875 -13.375 29.625 C-18.06168676 27.43787951 -21.23003884 24.0800054 -23.1875 19.3125 C-23.88827817 14.37445847 -23.74308401 10.42366802 -21.5 5.9375 C-15.40428971 -0.98195492 -8.88842018 -4.11255262 0 0 Z " fill="#F2F2F2" transform="translate(51.1875,20.6875)"/>
<path d="M0 0 C3.125 1.9375 3.125 1.9375 5 5 C5.93971476 9.68164203 5.66873692 12.93002092 3.125 17 C-0.14840013 20.08084718 -2.46126475 20.33387487 -6.9609375 20.29296875 C-10.13134567 19.83745033 -11.8192402 18.24684343 -14 16 C-15.62356291 12.75287417 -15.54582678 9.50888646 -15 6 C-11.48421671 -0.56279548 -7.18818911 -1.53190915 0 0 Z " fill="#050505" transform="translate(49,69)"/>
<path d="M0 0 C3.88020126 0.6208322 5.50788852 1.57499305 8.125 4.5 C8.68241927 7.84451564 8.43535305 9.76291151 7.125 12.875 C4.41955964 15.0731703 2.4162076 15.0712063 -1 14.8828125 C-2.875 14.5 -2.875 14.5 -4.875 12.875 C-6.15792178 9.82806078 -6.28495912 7.77967299 -5.875 4.5 C-4.3307374 1.23989007 -3.58085825 0.62275796 0 0 Z " fill="#0E0E0E" transform="translate(42.875,27.5)"/>
<path d="M0 0 C2.375 1.625 2.375 1.625 4 4 C4.61195145 7.6717087 4.48706506 9.28813568 2.375 12.375 C0 14 0 14 -3 14.5625 C-6 14 -6 14 -8.4375 11.9375 C-10.46887051 8.11852344 -10.16377498 6.11200491 -9 2 C-5.50875983 -0.32749345 -4.10777749 -0.50299316 0 0 Z " fill="#060606" transform="translate(47,116)"/>
<path d="M0 0 C2.4375 1.5625 2.4375 1.5625 4 4 C4 7.82389746 3.85254277 10.05611336 1.25 12.9375 C-1.42786146 14.20204569 -3.07009953 14.37562827 -6 14 C-9 12 -9 12 -9.65234375 9.94140625 C-10.41822615 3.55205852 -10.41822615 3.55205852 -8.4375 0.9375 C-5.3330903 -0.25650373 -3.3014552 -0.48146222 0 0 Z " fill="#070707" transform="translate(85,94)"/>
<path d="M0 0 C3.5625 0.5 3.5625 0.5 6 2.125 C8.01064771 5.18118452 8.09770313 6.90649325 7.5625 10.5 C6.11553156 12.59810424 5.03798289 13.30980685 2.6875 14.25 C0.03566497 14.56198059 -1.89125134 14.30407853 -4.4375 13.5 C-6.76329101 10.01131349 -6.85615457 8.60281481 -6.4375 4.5 C-4.82303773 0.89120198 -3.95737975 0.57561887 0 0 Z " fill="#0B0B0B" transform="translate(81.4375,49.5)"/>
<path d="M0 0 C0.66 0.33 1.32 0.66 2 1 C-0.97 3.97 -3.94 6.94 -7 10 C-7 7 -7 7 -4.625 4.4375 C-3.75875 3.633125 -2.8925 2.82875 -2 2 C-1.34 1.34 -0.68 0.68 0 0 Z " fill="#CACACA" transform="translate(34,60)"/>
</svg>
