<?xml version="1.0" encoding="UTF-8"?>
<svg version="1.1" xmlns="http://www.w3.org/2000/svg" width="700" height="394">
<path d="M0 0 C43.56 0 87.12 0 132 0 C132 128.7 132 257.4 132 390 C34.98 390 -62.04 390 -162 390 C-162.020625 358.03125 -162.04125 326.0625 -162.0625 293.125 C-162.071604 283.01504395 -162.08070801 272.90508789 -162.09008789 262.48876953 C-162.09460449 250.18334961 -162.09460449 250.18334961 -162.09544373 244.4303894 C-162.0963788 240.39547175 -162.10013986 236.36056713 -162.10557556 232.32565308 C-162.1124066 227.18735124 -162.11449637 222.04906851 -162.11307228 216.91076255 C-162.1133703 215.01970874 -162.11536973 213.1286543 -162.11921513 211.23760438 C-162.12415027 208.69354474 -162.12300422 206.14956044 -162.12025452 203.60549927 C-162.12316718 202.85669432 -162.12607985 202.10788937 -162.12908077 201.33639336 C-162.11412483 196.22824965 -162.11412483 196.22824965 -161 194 C-134.6 194 -108.2 194 -81 194 C-81 161.99 -81 129.98 -81 97 C-54.27 97 -27.54 97 0 97 C0 64.99 0 32.98 0 0 Z " fill="#FCC315" transform="translate(365,2)"/>
<path d="M0 0 C43.56 0 87.12 0 132 0 C132 128.7 132 257.4 132 390 C104.94 390 77.88 390 50 390 C49.9906543 381.51909668 49.98130859 373.03819336 49.97167969 364.30029297 C49.93897874 337.17121086 49.8866977 310.04219815 49.82207905 282.91317403 C49.81206147 278.69992887 49.80221736 274.48668332 49.79248047 270.2734375 C49.7905391 269.43464861 49.78859772 268.59585972 49.78659752 267.73165299 C49.75556806 254.14630499 49.73859423 240.56097389 49.72680578 226.97559713 C49.71439911 213.03794695 49.68690869 199.10038553 49.64538693 185.16279137 C49.62023761 176.56105093 49.60688376 167.95945765 49.60857043 159.35767992 C49.60860016 153.4608161 49.59399152 147.5641023 49.56783572 141.66729693 C49.55317356 138.26401203 49.54500042 134.86103477 49.55419731 131.45772362 C49.56080393 127.76794267 49.54299476 124.07906386 49.51898193 120.38937378 C49.52674235 119.31349436 49.53450277 118.23761493 49.54249835 117.12913311 C49.45421207 109.48802041 48.03332989 106.24211665 42.81152344 100.66088867 C38.85873197 98.32580354 35.53045683 98.41532642 31.015625 98.42578125 C29.73132599 98.40453438 29.73132599 98.40453438 28.42108154 98.38285828 C25.69725845 98.34104725 22.97409853 98.32572845 20.25 98.3125 C17.5119262 98.28347364 14.77402119 98.24900095 12.03607178 98.21000671 C10.33453004 98.18746035 8.63288319 98.17167696 6.93121338 98.16316223 C1.10960206 98.10960206 1.10960206 98.10960206 0 97 C-0.09529717 93.98646428 -0.12550598 90.99599021 -0.11352539 87.98217773 C-0.11364593 87.02057519 -0.11376646 86.05897264 -0.11389065 85.06823063 C-0.11314127 81.93999521 -0.10551189 78.81181858 -0.09765625 75.68359375 C-0.09618691 73.75850452 -0.09516615 71.8334149 -0.09460449 69.9083252 C-0.0893507 62.75137739 -0.07538963 55.59443813 -0.0625 48.4375 C-0.041875 32.453125 -0.02125 16.46875 0 0 Z " fill="#EA9500" transform="translate(365,2)"/>
<path d="M0 0 C9.92206654 -0.02362512 19.84412594 -0.04116139 29.76621532 -0.05181217 C34.3780895 -0.05693515 38.98994387 -0.0638282 43.60180664 -0.07543945 C62.1890222 -0.12069369 80.77811014 -0.11971271 99.36214638 0.26773262 C100.9698147 0.29982068 102.57758358 0.32725645 104.18541527 0.34971428 C106.39933103 0.38236757 108.61202662 0.43375217 110.82543945 0.49047852 C112.07162552 0.5162648 113.31781158 0.54205109 114.60176086 0.56861877 C118.97464056 1.12372338 122.40194385 2.50822787 125.64453125 5.53515625 C129.42749174 10.48210459 130.1452928 13.12188728 130.12025452 19.2258606 C130.12153615 20.35548432 130.12153615 20.35548432 130.12284368 21.50792873 C130.12449764 24.04453488 130.11897848 26.58107567 130.11352539 29.11767578 C130.11324347 30.9307556 130.11340134 32.74383553 130.1139679 34.55691528 C130.1142557 39.49053374 130.10836173 44.42412805 130.10139394 49.35774088 C130.09515755 54.50939723 130.09455637 59.66105408 130.09336853 64.81271362 C130.09025606 74.57329296 130.08204379 84.33386115 130.07201904 94.09443557 C130.0587693 107.28024526 130.05335732 120.46605798 130.04751682 133.65187263 C130.03810386 154.43459012 130.01818437 175.21728406 130 196 C86.77 196 43.54 196 -1 196 C-1.04030303 147.43036565 -1.04030303 147.43036565 -1.04882812 127.13671875 C-1.05477055 113.10334916 -1.06177066 99.06998556 -1.07543945 85.03662109 C-1.08538795 74.81793745 -1.09185383 64.59925864 -1.09408849 54.38057029 C-1.09539532 48.96686382 -1.0984794 43.55317119 -1.10573006 38.13946915 C-1.11249287 33.04900605 -1.11461642 27.95856256 -1.11310768 22.8680954 C-1.11338389 20.99514281 -1.11538747 19.12218959 -1.11920547 17.24924088 C-1.12414678 14.70130251 -1.12299664 12.1534392 -1.12025452 9.60549927 C-1.12316736 8.85648098 -1.1260802 8.10746269 -1.12908131 7.33574688 C-1.11412121 2.22824242 -1.11412121 2.22824242 0 0 Z " fill="#FEDD5E" transform="translate(204,196)"/>
<path d="M0 0 C0.99 0 1.98 0 3 0 C3 1.32 3 2.64 3 4 C4.32 4.33 5.64 4.66 7 5 C7.17407902 29.87495156 7.34015526 54.74995295 7.5 79.625 C7.50594854 80.54931257 7.51189708 81.47362514 7.51802588 82.42594719 C7.85182662 134.36752921 8.09775725 186.30725686 8.0625 238.25 C8.06164398 239.52063545 8.06078796 240.7912709 8.05990601 242.10041046 C8.04902913 257.06695676 8.02983022 272.03347957 8 287 C6.68 287.33 5.36 287.66 4 288 C3.99902319 287.40731113 3.99804638 286.81462226 3.99703997 286.20397311 C3.93878997 251.08997057 3.86500993 215.97603419 3.77101372 180.8621087 C3.75974532 176.64757471 3.74860691 172.4330404 3.73754883 168.21850586 C3.73534514 167.37945466 3.73314146 166.54040346 3.730871 165.67592647 C3.69548182 152.08344207 3.67062684 138.49095774 3.64965298 124.89844433 C3.62790383 110.95516025 3.59486186 97.01193604 3.55129844 83.06870288 C3.52476642 74.46237782 3.50708248 65.85612739 3.50065396 57.24976345 C3.49540481 51.35105938 3.4792038 45.45244929 3.45433434 39.55379555 C3.44030303 36.14865723 3.43115456 32.74368719 3.43499184 29.33851814 C3.43663548 25.64852001 3.42002223 21.95904576 3.39872742 18.26911926 C3.40357499 17.190327 3.40842257 16.11153473 3.41341704 15.0000518 C3.36357552 9.78855178 3.29286851 6.28759717 0 2 C0 1.34 0 0.68 0 0 Z " fill="#B26C00" transform="translate(411,104)"/>
<path d="M0 0 C0.99 0 1.98 0 3 0 C3 1.32 3 2.64 3 4 C4.32 4.33 5.64 4.66 7 5 C7.08685287 8.29150125 7.14033895 11.5827096 7.1875 14.875 C7.22520508 16.28072266 7.22520508 16.28072266 7.26367188 17.71484375 C7.27333984 18.61074219 7.28300781 19.50664063 7.29296875 20.4296875 C7.3086792 21.25710449 7.32438965 22.08452148 7.34057617 22.93701172 C7.22818604 23.61779785 7.1157959 24.29858398 7 25 C6.01 25.66 5.02 26.32 4 27 C3.98541748 26.42032471 3.97083496 25.84064941 3.95581055 25.2434082 C3.88101472 22.59912447 3.78446102 19.95605998 3.6875 17.3125 C3.66494141 16.40048828 3.64238281 15.48847656 3.61914062 14.54882812 C3.41751697 9.50823679 3.0798296 6.18625632 0 2 C0 1.34 0 0.68 0 0 Z " fill="#C07400" transform="translate(411,104)"/>
<path d="M0 0 C0.99 0 1.98 0 3 0 C3 1.32 3 2.64 3 4 C4.32 4.33 5.64 4.66 7 5 C7 6.32 7 7.64 7 9 C6.01 9 5.02 9 4 9 C0 2.25 0 2.25 0 0 Z " fill="#D78100" transform="translate(411,104)"/>
</svg>
