<?xml version="1.0" encoding="UTF-8"?>
<svg version="1.1" xmlns="http://www.w3.org/2000/svg" width="501" height="393">
<path d="M0 0 C165.33 0 330.66 0 501 0 C501 129.69 501 259.38 501 393 C335.67 393 170.34 393 0 393 C0 263.31 0 133.62 0 0 Z " fill="#000000" transform="translate(0,0)"/>
<path d="M0 0 C43.56 0 87.12 0 132 0 C132 128.7 132 257.4 132 390 C34.98 390 -62.04 390 -162 390 C-162.020625 358.03125 -162.04125 326.0625 -162.0625 293.125 C-162.071604 283.01504395 -162.08070801 272.90508789 -162.09008789 262.48876953 C-162.09460449 250.18334961 -162.09460449 250.18334961 -162.09544373 244.4303894 C-162.0963788 240.39547175 -162.10013986 236.36056713 -162.10557556 232.32565308 C-162.1124066 227.18735124 -162.11449637 222.04906851 -162.11307228 216.91076255 C-162.1133703 215.01970874 -162.11536973 213.1286543 -162.11921513 211.23760438 C-162.12415027 208.69354474 -162.12300422 206.14956044 -162.12025452 203.60549927 C-162.12316718 202.85669432 -162.12607985 202.10788937 -162.12908077 201.33639336 C-162.11412483 196.22824965 -162.11412483 196.22824965 -161 194 C-134.6 194 -108.2 194 -81 194 C-81 161.99 -81 129.98 -81 97 C-54.27 97 -27.54 97 0 97 C0 64.99 0 32.98 0 0 Z " fill="#FCC215" transform="translate(264,2)"/>
<path d="M0 0 C43.56 0 87.12 0 132 0 C132 128.7 132 257.4 132 390 C104.94 390 77.88 390 50 390 C49.98541748 381.54938965 49.97083496 373.0987793 49.95581055 364.39208984 C49.90706283 337.35980991 49.84365646 310.32758216 49.77101372 283.2953563 C49.75974542 279.09713236 49.74860699 274.89890809 49.73754883 270.70068359 C49.73534514 269.86488532 49.73314146 269.02908705 49.730871 268.16796155 C49.69548923 254.63111823 49.67063007 241.09427497 49.64965298 227.55740254 C49.62789793 213.66948412 49.59485033 199.78162576 49.55129844 185.89375842 C49.52477661 177.32275212 49.50708516 168.75182067 49.50065396 160.18077536 C49.4954017 154.30495758 49.47919018 148.42923402 49.45433434 142.55346672 C49.44031373 139.16238125 49.43115058 135.77146447 49.43499184 132.38034821 C49.43663758 128.70383693 49.42000404 125.0278495 49.39872742 121.35140991 C49.40357499 120.27942144 49.40842257 119.20743296 49.41341704 118.10295999 C49.35378442 111.87709829 48.85301888 107.2029892 44.53515625 102.35546875 C32.09972919 92.49288867 15.78554145 97.43848726 0 97 C0 64.99 0 32.98 0 0 Z " fill="#E99601" transform="translate(264,2)"/>
<path d="M0 0 C13.468125 -0.04125 26.93625 -0.0825 40.8125 -0.125 C45.06616455 -0.14320801 49.3198291 -0.16141602 53.70239258 -0.18017578 C58.8939209 -0.18920898 58.8939209 -0.18920898 61.32377625 -0.19088745 C63.0219884 -0.19395999 64.72019616 -0.20099694 66.41838074 -0.21115112 C68.98969105 -0.22575842 71.56073458 -0.22781308 74.13208008 -0.22705078 C75.26819717 -0.23784511 75.26819717 -0.23784511 76.42726612 -0.2488575 C80.17259271 -0.23396054 81.8004756 -0.13301627 85 2 C82.02830447 3.48584777 79.00876829 3.12141619 75.75219727 3.09765625 C75.00569916 3.09619598 74.25920105 3.09473572 73.49008179 3.0932312 C71.86676436 3.0894214 70.24345112 3.08330085 68.62014961 3.07516479 C66.0525797 3.06243143 63.48506129 3.05589325 60.91746521 3.05102539 C54.53951367 3.03763382 48.16161098 3.01343896 41.78369141 2.98962402 C36.39738684 2.96991745 31.01110041 2.95426566 25.62476921 2.94406128 C23.09263238 2.93756726 20.56056984 2.9250581 18.02845764 2.91235352 C16.47803818 2.90872128 14.92761803 2.90536951 13.37719727 2.90234375 C12.67111832 2.89717743 11.96503937 2.89201111 11.23756409 2.88668823 C8.20310325 2.88635869 5.90502521 3.03165826 3 4 C2.97686602 15.56961328 2.9590795 27.1392211 2.94818783 38.70885277 C2.94296132 44.08064972 2.93586786 49.45243089 2.92456055 54.82421875 C2.91372346 60.00482972 2.90772141 65.18542548 2.90512276 70.36604691 C2.90327 72.34606796 2.89965222 74.32608815 2.89426994 76.30610275 C2.88704864 79.07176283 2.88600952 81.83735941 2.88647461 84.60302734 C2.8810817 85.84056511 2.8810817 85.84056511 2.87557983 87.10310364 C2.78206345 91.18293378 2.78206345 91.18293378 4 95 C8.09317863 95.16754147 12.18656495 95.32810824 16.28027344 95.48217773 C17.67325222 95.53559149 19.06615893 95.59092043 20.45898438 95.64819336 C22.45943602 95.73012069 24.4601875 95.80462098 26.4609375 95.87890625 C27.66540527 95.9260376 28.86987305 95.97316895 30.11083984 96.02172852 C32.94196471 96.21254865 32.94196471 96.21254865 35 95 C37.01927511 95.60578253 39.02253397 96.26919734 41 97 C41 97.99 41 98.98 41 100 C41.5775 100.226875 42.155 100.45375 42.75 100.6875 C46.14222063 102.66629537 48.25493471 105.50986942 50 109 C50.09538065 111.4182322 50.13017463 113.80747983 50.12025452 116.2258606 C50.12153615 117.35548432 50.12153615 117.35548432 50.12284368 118.50792873 C50.12449764 121.04453488 50.11897848 123.58107567 50.11352539 126.11767578 C50.11324347 127.9307556 50.11340134 129.74383553 50.1139679 131.55691528 C50.1142557 136.49053374 50.10836173 141.42412805 50.10139394 146.35774088 C50.09515755 151.50939723 50.09455637 156.66105408 50.09336853 161.81271362 C50.09025606 171.57329296 50.08204379 181.33386115 50.07201904 191.09443557 C50.0587693 204.28024526 50.05335732 217.46605798 50.04751682 230.65187263 C50.03810386 251.43459012 50.01818437 272.21728406 50 293 C6.77 293 -36.46 293 -81 293 C-81.04030303 244.43036565 -81.04030303 244.43036565 -81.04882812 224.13671875 C-81.05477055 210.10334916 -81.06177066 196.06998556 -81.07543945 182.03662109 C-81.08538795 171.81793745 -81.09185383 161.59925864 -81.09408849 151.38057029 C-81.09539532 145.96686382 -81.0984794 140.55317119 -81.10573006 135.13946915 C-81.11249287 130.04900605 -81.11461642 124.95856256 -81.11310768 119.8680954 C-81.11338389 117.99514281 -81.11538747 116.12218959 -81.11920547 114.24924088 C-81.12414678 111.70130251 -81.12299664 109.1534392 -81.12025452 106.60549927 C-81.12316736 105.85648098 -81.1260802 105.10746269 -81.12908131 104.33574688 C-81.11412121 99.22824242 -81.11412121 99.22824242 -80 97 C-53.6 97 -27.2 97 0 97 C0 64.99 0 32.98 0 0 Z " fill="#FEDD5E" transform="translate(183,99)"/>
<path d="M0 0 C0.99 0 1.98 0 3 0 C3 0.99 3 1.98 3 3 C3.99 3 4.98 3 6 3 C6.73173451 12.82940271 7.19269014 22.61503366 7.3515625 32.47265625 C7.37482271 33.81099158 7.3982126 35.14932467 7.42172241 36.48765564 C7.46964581 39.27160065 7.51460318 42.05557462 7.55761719 44.83959961 C7.60126735 47.64244225 7.6498039 50.44512752 7.703125 53.24780273 C8.20454598 79.66044895 8.20454598 79.66044895 7.5234375 91.49609375 C5.58162714 126.38435491 7.122412 161.60697823 7.40429688 196.5390625 C7.41066453 197.32838716 7.41703219 198.11771182 7.42359281 198.93095541 C7.49601531 207.88888793 7.57051651 216.84679897 7.64819336 225.8046875 C7.71088882 233.03809419 7.77000705 240.2715207 7.82505554 247.50498974 C7.85978871 252.0438776 7.89890356 256.58269928 7.94129765 261.12152171 C7.97218545 264.5691043 7.99646855 268.01672715 8.02172852 271.46435547 C8.03467453 272.71277725 8.04762054 273.96119904 8.06095886 275.24745178 C8.06799835 276.37879044 8.07503784 277.51012909 8.08229065 278.67575073 C8.09058679 279.66173689 8.09888292 280.64772305 8.10743046 281.66358757 C8 284 8 284 7 286 C32.41 286 57.82 286 84 286 C84 286.33 84 286.66 84 287 C57.27 287 30.54 287 3 287 C2.970271 274.3319397 2.970271 274.3319397 2.93994141 261.40795898 C2.8751367 234.38742069 2.80060436 207.36691707 2.71994839 180.34642163 C2.70742949 176.14948638 2.69499672 171.95255089 2.68261719 167.75561523 C2.68015119 166.92007927 2.6776852 166.08454331 2.67514448 165.22368807 C2.63541845 151.69398804 2.60267041 138.16427966 2.57250018 124.63455533 C2.54138853 110.75229409 2.50278035 96.8700683 2.45720994 82.98784691 C2.42932592 74.4214643 2.4072925 65.85510763 2.39273749 57.28869183 C2.38219713 51.41475456 2.36437651 45.54086752 2.34083296 39.6669681 C2.32746355 36.27779752 2.31838134 32.8887595 2.31578636 29.49955368 C2.31246722 25.82349247 2.29699856 22.14767588 2.2784729 18.47166443 C2.28040763 17.4025888 2.28234237 16.33351316 2.28433573 15.2320413 C2.2430554 9.76178766 1.82522937 5.16962668 0 0 Z " fill="#B87104" transform="translate(311,105)"/>
<path d="M0 0 C26.07 0 52.14 0 79 0 C79 0.33 79 0.66 79 1 C41.38 1.495 41.38 1.495 3 2 C0.89375642 6.21248715 0.70936339 9.10603749 0.7215271 13.65618896 C0.7157347 14.43139806 0.7099423 15.20660716 0.70397437 16.00530744 C0.68695904 18.60481733 0.68409656 21.20414984 0.68115234 23.80371094 C0.67185522 25.66635067 0.66168688 27.52898623 0.65071106 29.39161682 C0.62337263 34.45112709 0.60825025 39.51060945 0.59528303 44.57017422 C0.57966932 49.85665023 0.5528735 55.14306912 0.5272522 60.42950439 C0.48043324 70.44144369 0.44370421 80.45339369 0.41057932 90.46538663 C0.36523949 103.99366126 0.30435572 117.52186529 0.24433136 131.05008125 C0.15016086 152.36668547 0.07679505 173.68330971 0 195 C42.9 195 85.8 195 130 195 C130 195.33 130 195.66 130 196 C86.77 196 43.54 196 -1 196 C-1.04030303 147.43036565 -1.04030303 147.43036565 -1.04882812 127.13671875 C-1.05477055 113.10334916 -1.06177066 99.06998556 -1.07543945 85.03662109 C-1.08538795 74.81793745 -1.09185383 64.59925864 -1.09408849 54.38057029 C-1.09539532 48.96686382 -1.0984794 43.55317119 -1.10573006 38.13946915 C-1.11249287 33.04900605 -1.11461642 27.95856256 -1.11310768 22.8680954 C-1.11338389 20.99514281 -1.11538747 19.12218959 -1.11920547 17.24924088 C-1.12414678 14.70130251 -1.12299664 12.1534392 -1.12025452 9.60549927 C-1.12316736 8.85648098 -1.1260802 8.10746269 -1.12908131 7.33574688 C-1.11412121 2.22824242 -1.11412121 2.22824242 0 0 Z " fill="#F2D46D" transform="translate(103,196)"/>
<path d="M0 0 C-2.97169553 1.48584777 -5.99123171 1.12141619 -9.24780273 1.09765625 C-9.99430084 1.09619598 -10.74079895 1.09473572 -11.50991821 1.0932312 C-13.13323564 1.0894214 -14.75654888 1.08330085 -16.37985039 1.07516479 C-18.9474203 1.06243143 -21.51493871 1.05589325 -24.08253479 1.05102539 C-30.46048633 1.03763382 -36.83838902 1.01343896 -43.21630859 0.98962402 C-48.60261316 0.96991745 -53.98889959 0.95426566 -59.37523079 0.94406128 C-61.90736762 0.93756726 -64.43943016 0.9250581 -66.97154236 0.91235352 C-68.52196182 0.90872128 -70.07238197 0.90536951 -71.62280273 0.90234375 C-72.32888168 0.89717743 -73.03496063 0.89201111 -73.76243591 0.88668823 C-76.79689675 0.88635869 -79.09497479 1.03165826 -82 2 C-82.02313398 13.56961328 -82.0409205 25.1392211 -82.05181217 36.70885277 C-82.05703868 42.08064972 -82.06413214 47.45243089 -82.07543945 52.82421875 C-82.08627654 58.00482972 -82.09227859 63.18542548 -82.09487724 68.36604691 C-82.09673 70.34606796 -82.10034778 72.32608815 -82.10573006 74.30610275 C-82.11295136 77.07176283 -82.11399048 79.83735941 -82.11352539 82.60302734 C-82.11712067 83.42805252 -82.12071594 84.2530777 -82.12442017 85.10310364 C-82.21793655 89.18293378 -82.21793655 89.18293378 -81 93 C-76.90682137 93.16754147 -72.81343505 93.32810824 -68.71972656 93.48217773 C-67.32674778 93.53559149 -65.93384107 93.59092043 -64.54101562 93.64819336 C-62.54056398 93.73012069 -60.5398125 93.80462098 -58.5390625 93.87890625 C-57.33459473 93.9260376 -56.13012695 93.97316895 -54.88916016 94.02172852 C-52.05803529 94.21254865 -52.05803529 94.21254865 -50 93 C-47.98072489 93.60578253 -45.97746603 94.26919734 -44 95 C-44 95.66 -44 96.32 -44 97 C-63.8 96.505 -63.8 96.505 -84 96 C-84.02254926 83.50042579 -84.04091406 71.00086497 -84.05181217 58.50127506 C-84.05704144 52.69786387 -84.06413987 46.89446725 -84.07543945 41.09106445 C-84.08626678 35.49549147 -84.0922765 29.89993255 -84.09487724 24.3043499 C-84.09673177 22.16441056 -84.10035291 20.02447204 -84.10573006 17.88453865 C-84.11293844 14.89835034 -84.11399103 11.91222093 -84.11352539 8.92602539 C-84.11712067 8.03194977 -84.12071594 7.13787415 -84.12442017 6.21670532 C-84.11405216 0.11405216 -84.11405216 0.11405216 -83 -1 C-80.55783099 -1.13557497 -78.14225826 -1.20722099 -75.69799805 -1.23706055 C-74.93374512 -1.25017273 -74.16949219 -1.26328491 -73.38208008 -1.27679443 C-70.8420116 -1.31875551 -68.30191139 -1.35316785 -65.76171875 -1.38671875 C-64.00152895 -1.41236285 -62.24134118 -1.43814689 -60.4811554 -1.46406555 C-56.78475802 -1.51712232 -53.08833087 -1.56603239 -49.3918457 -1.61254883 C-44.65359201 -1.67285055 -39.91566978 -1.74707775 -35.1776762 -1.82492352 C-31.5395163 -1.88252254 -27.90127618 -1.93082197 -24.26294899 -1.976511 C-22.51619541 -1.99992832 -20.76948332 -2.02668559 -19.02283287 -2.05682945 C-16.57862884 -2.09798736 -14.13460139 -2.12617023 -11.69018555 -2.15112305 C-10.96742935 -2.16609329 -10.24467316 -2.18106354 -9.50001526 -2.19648743 C-5.82125349 -2.21969885 -3.12404 -2.03672988 0 0 Z " fill="#F8D143" transform="translate(268,101)"/>
<path d="M0 0 C0.33 0 0.66 0 1 0 C1 32.01 1 64.02 1 97 C-25.73 97 -52.46 97 -80 97 C-80 129.01 -80 161.02 -80 194 C-82.31 194 -84.62 194 -87 194 C-87 193.67 -87 193.34 -87 193 C-85.35 192.67 -83.7 192.34 -82 192 C-81.97686678 180.03923515 -81.95907989 168.07847558 -81.94818783 156.11769295 C-81.94296115 150.56429379 -81.93586739 145.0109099 -81.92456055 139.45751953 C-81.91372405 134.10184453 -81.90772154 128.74618423 -81.90512276 123.39049911 C-81.90326989 121.34349206 -81.89965191 119.29648584 -81.89426994 117.24948502 C-81.88704943 114.3904265 -81.88600949 111.5314294 -81.88647461 108.67236328 C-81.88287933 107.81928589 -81.87928406 106.9662085 -81.87557983 106.08728027 C-81.76936305 101.91044896 -81.76936305 101.91044896 -83 98 C-81.97453308 96.51554871 -81.97453308 96.51554871 -80 95 C-77.38379867 94.74865124 -75.01806493 94.67904719 -72.4074707 94.7512207 C-71.62404643 94.76077128 -70.84062216 94.77032187 -70.03345776 94.78016186 C-67.49711989 94.81453527 -64.96172386 94.86976472 -62.42578125 94.92578125 C-60.86016885 94.95006571 -59.29453463 94.97298321 -57.72888184 94.99450684 C-51.92314221 95.08392619 -46.11783485 95.19982493 -40.3125 95.3125 C-27.339375 95.539375 -14.36625 95.76625 -1 96 C-0.67 64.32 -0.34 32.64 0 0 Z " fill="#120000" transform="translate(263,2)"/>
<path d="M0 0 C0.33 0 0.66 0 1 0 C1.90047241 5.37047062 2.13775745 10.52511372 2.11352539 15.96459961 C2.11367142 16.83368958 2.11381744 17.70277954 2.1139679 18.59820557 C2.11327536 21.44961101 2.105514 24.30094982 2.09765625 27.15234375 C2.09578973 29.13774073 2.09436693 31.12313816 2.09336853 33.10853577 C2.08956181 38.31826055 2.07974735 43.52795719 2.06866455 48.7376709 C2.05841069 54.0601361 2.05386241 59.38260588 2.04882812 64.70507812 C2.03812335 75.13673108 2.02106919 85.56836319 2 96 C1.01 96 0.02 96 -1 96 C-1.02319319 84.51674039 -1.04095067 73.03348637 -1.05181217 61.55020809 C-1.05702573 56.2177898 -1.06409564 50.88538757 -1.07543945 45.55297852 C-1.0863226 40.40476385 -1.09228835 35.2565646 -1.09487724 30.10833931 C-1.09672171 28.14640625 -1.10032346 26.18447401 -1.10573006 24.22254753 C-1.11301251 21.46987982 -1.1139879 18.71727544 -1.11352539 15.96459961 C-1.11712067 15.15755081 -1.12071594 14.35050201 -1.12442017 13.51899719 C-1.11606397 8.90839505 -0.76269766 4.54877389 0 0 Z " fill="#AF6A00" transform="translate(315,296)"/>
<path d="M0 0 C0.33 0 0.66 0 1 0 C1 60.39 1 120.78 1 183 C0.01 182.67 -0.98 182.34 -2 182 C-1.83701416 181.34136963 -1.67402832 180.68273926 -1.50610352 180.00415039 C-0.88182834 176.29855171 -0.87076318 172.67781526 -0.90234375 168.93359375 C-0.90741188 167.75451698 -0.90741188 167.75451698 -0.9125824 166.55162048 C-0.9798085 156.54270927 -1.30913001 146.53727561 -1.64819336 136.53442383 C-1.73228047 134.01400397 -1.8061698 131.49342626 -1.87890625 128.97265625 C-1.90594131 128.25223648 -1.93297638 127.53181671 -1.96083069 126.78956604 C-2.10994824 121.2890303 -1.84817769 115.84827457 -1.52734375 110.35986328 C-0.87393603 98.99919856 -0.77412597 87.64635963 -0.68359375 76.26953125 C-0.66296024 74.05465871 -0.64196243 71.83978954 -0.62062073 69.62492371 C-0.5660591 63.86303477 -0.51636607 58.10111432 -0.46777344 52.33917236 C-0.41706947 46.43246741 -0.36164162 40.52580685 -0.30664062 34.61914062 C-0.19986833 23.07946523 -0.09825211 11.53975087 0 0 Z " fill="#FED53A" transform="translate(232,208)"/>
<path d="M0 0 C0.99 0 1.98 0 3 0 C3 0.99 3 1.98 3 3 C3.99 3 4.98 3 6 3 C6.73173451 12.82940271 7.19269014 22.61503366 7.3515625 32.47265625 C7.37482271 33.81099158 7.3982126 35.14932467 7.42172241 36.48765564 C7.46964581 39.27160065 7.51460318 42.05557462 7.55761719 44.83959961 C7.60126735 47.64244225 7.6498039 50.44512752 7.703125 53.24780273 C8.01872263 69.86722253 8.04346357 86.40014214 7 103 C6.67 103 6.34 103 6 103 C5.98969254 102.30588516 5.97938507 101.61177032 5.96876526 100.8966217 C5.87035538 94.32123549 5.76778364 87.74592848 5.66066074 81.17067814 C5.6057454 77.79114294 5.55237975 74.41159875 5.50268555 71.03198242 C5.44461764 67.1371316 5.38102979 63.24240315 5.31640625 59.34765625 C5.29969376 58.1473024 5.28298126 56.94694855 5.26576233 55.71022034 C5.15549243 49.40479183 4.81929513 43.25405002 4 37 C3.67 37 3.34 37 3 37 C2.98018066 36.12786865 2.96036133 35.2557373 2.93994141 34.35717773 C2.86142564 31.09356807 2.77472031 27.83038246 2.68261719 24.56713867 C2.64454707 23.15999602 2.60965755 21.75276331 2.578125 20.34545898 C2.5319922 18.31201177 2.47408432 16.27917293 2.4140625 14.24609375 C2.3826416 13.02591553 2.3512207 11.8057373 2.31884766 10.54858398 C1.97746379 6.74918544 1.15762082 3.62111917 0 0 Z " fill="#CA7B03" transform="translate(311,105)"/>
<path d="M0 0 C26.07 0 52.14 0 79 0 C79 0.33 79 0.66 79 1 C41.38 1.495 41.38 1.495 3 2 C1.21701215 5.5659757 0.74945689 6.5713279 0.7215271 10.23944092 C0.71036362 11.07794083 0.69920013 11.91644073 0.68769836 12.78034973 C0.68553818 13.69169174 0.68337799 14.60303375 0.68115234 15.54199219 C0.67110672 16.50817978 0.6610611 17.47436737 0.65071106 18.46983337 C0.61982994 21.66217455 0.60283009 24.85443168 0.5859375 28.046875 C0.56722983 30.26076991 0.54765673 32.47465767 0.5272522 34.6885376 C0.47588268 40.51474795 0.43628266 46.34098144 0.39910889 52.16729736 C0.35909952 58.11289209 0.30799317 64.05839021 0.2578125 70.00390625 C0.1609961 81.66920301 0.07660952 93.33455426 0 105 C-0.33 105 -0.66 105 -1 105 C-1.0231308 91.6050128 -1.04091887 78.21003031 -1.05181217 64.81502724 C-1.05703938 58.59575319 -1.0641341 52.37649277 -1.07543945 46.15722656 C-1.08627407 40.15965007 -1.09227806 34.16208671 -1.09487724 28.16450119 C-1.09673045 25.87187874 -1.10034908 23.57925705 -1.10573006 21.28664017 C-1.11294807 18.08512038 -1.11399061 14.88365547 -1.11352539 11.68212891 C-1.11712067 10.72619339 -1.12071594 9.77025787 -1.12442017 8.78535461 C-1.1230455 7.91594742 -1.12167084 7.04654022 -1.12025452 6.15078735 C-1.12117631 5.39307352 -1.1220981 4.63535969 -1.12304783 3.85468483 C-1 2 -1 2 0 0 Z " fill="#F6E18D" transform="translate(103,196)"/>
<path d="M0 0 C0.99 0 1.98 0 3 0 C3 0.99 3 1.98 3 3 C3.99 3 4.98 3 6 3 C6.0810206 5.10353495 6.13919907 7.20795952 6.1875 9.3125 C6.22230469 10.48425781 6.25710938 11.65601562 6.29296875 12.86328125 C6 16 6 16 4.48828125 17.91796875 C3.75158203 18.45357422 3.75158203 18.45357422 3 19 C2.95101563 18.21496094 2.90203125 17.42992188 2.8515625 16.62109375 C2.4379964 10.80977697 1.88217852 5.521057 0 0 Z " fill="#C27800" transform="translate(311,105)"/>
<path d="M0 0 C0.99 0 1.98 0 3 0 C3 0.99 3 1.98 3 3 C3.99 3 4.98 3 6 3 C6 4.98 6 6.96 6 9 C5.67 8.34 5.34 7.68 5 7 C4.01 7 3.02 7 2 7 C1.34 4.69 0.68 2.38 0 0 Z " fill="#D58701" transform="translate(311,105)"/>
<path d="M0 0 C0.33 0.99 0.66 1.98 1 3 C0 4 0 4 -2.5625 4.0625 C-3.7690625 4.0315625 -3.7690625 4.0315625 -5 4 C-5.33 3.01 -5.66 2.02 -6 1 C-4.02 0.67 -2.04 0.34 0 0 Z " fill="#FCE176" transform="translate(182,196)"/>
</svg>
