<?xml version="1.0" encoding="UTF-8"?>
<svg version="1.1" xmlns="http://www.w3.org/2000/svg" width="360" height="360">
<path d="M0 0 C118.8 0 237.6 0 360 0 C360 118.8 360 237.6 360 360 C241.2 360 122.4 360 0 360 C0 241.2 0 122.4 0 0 Z " fill="#F0C913" transform="translate(0,0)"/>
<path d="M0 0 C1.78337632 0.54749551 3.56707193 1.09395198 5.35107422 1.6394043 C9.77720422 2.99575776 14.19888517 4.36598472 18.61920166 5.7411499 C22.19563478 6.85193387 25.77560578 7.95111418 29.35546875 9.05078125 C39.24480198 12.09662379 49.1175651 15.19018379 58.96899414 18.35644531 C67.08633518 20.96459808 75.21296795 23.42410761 83.44140625 25.65722656 C91.30511414 27.80603046 99.05974194 30.26959953 106.8125 32.78564453 C108.97106822 33.4709712 111.13773724 34.11433331 113.3125 34.74609375 C120.62783871 36.9215732 127.3514189 39.16189604 132.0625 45.5 C135.17331227 51.40173321 135.49774625 56.29144828 135.46655273 62.89819336 C135.47341599 63.92024368 135.48027924 64.94229401 135.48735046 65.99531555 C135.50559161 69.36030121 135.5017847 72.72481945 135.49609375 76.08984375 C135.50065677 78.43722179 135.5059627 80.7845985 135.51197815 83.13197327 C135.52090396 88.04694045 135.51849196 92.9617451 135.50854492 97.87670898 C135.49705516 104.16587863 135.51727018 110.45448682 135.54646206 116.74358273 C135.56483388 121.58984422 135.5645296 126.4359714 135.55882454 131.28225899 C135.55867145 133.60063019 135.56470538 135.91901057 135.57711601 138.23734856 C135.59204245 141.48272508 135.58133587 144.72706729 135.56420898 147.97241211 C135.57871094 149.39954025 135.57871094 149.39954025 135.59350586 150.85549927 C135.51626495 157.86773207 133.96247553 163.27576561 129.2109375 168.55859375 C128.62570312 169.01363281 128.04046875 169.46867188 127.4375 169.9375 C126.84710938 170.41058594 126.25671875 170.88367188 125.6484375 171.37109375 C120.6360463 174.93902739 113.95785909 174.19315644 108.0625 173.5 C93.68265683 170.40846887 93.68265683 170.40846887 90.0625 165.5 C89.6306812 162.62120803 89.68292627 161.13262288 91.1875 158.625 C94.0072951 156.93312294 95.90560037 157.81619503 99.0625 158.5 C101.01070921 159.17832385 102.94845415 159.88739342 104.875 160.625 C109.97535657 162.36318122 114.88605936 163.61014141 120.0625 161.5 C122.07952976 159.69099429 122.96819817 158.17669566 123.34345818 155.48388672 C123.46173228 152.83935607 123.47907281 150.20969761 123.46655273 147.5625 C123.47341599 146.55396973 123.48027924 145.54543945 123.48735046 144.50634766 C123.50566049 141.17075547 123.50177521 137.83563168 123.49609375 134.5 C123.50065319 132.18359219 123.50595805 129.86718573 123.51197815 127.55078125 C123.52091729 122.6952566 123.51847651 117.83989637 123.50854492 112.984375 C123.49704852 106.75637819 123.51727347 100.52894778 123.54646206 94.30102539 C123.56479014 89.51754135 123.56453844 84.73419392 123.55882454 79.95068359 C123.55867094 77.65412603 123.56474693 75.35755942 123.57711601 73.06103516 C123.59196147 69.85282629 123.5813961 66.64567531 123.56420898 63.4375 C123.57387695 62.48568848 123.58354492 61.53387695 123.59350586 60.55322266 C123.58888582 55.37767748 123.58888582 55.37767748 121.1600647 50.93843079 C119.03994111 49.48452996 117.30199511 48.63571356 114.83984375 47.91796875 C114.0494873 47.67868652 113.25913086 47.4394043 112.44482422 47.19287109 C111.65865723 46.96422363 110.87249023 46.73557617 110.0625 46.5 C108.68768746 46.06207771 107.31395064 45.6207614 105.94140625 45.17578125 C104.50295369 44.72024899 103.0641331 44.26587769 101.625 43.8125 C100.4184375 43.43230713 100.4184375 43.43230713 99.1875 43.04443359 C81.88297222 37.6057745 64.54126423 32.29847919 47.1328125 27.20166016 C42.60769703 25.87216576 38.09519625 24.53621102 33.62890625 23.01953125 C27.66277065 20.99613909 21.60783061 19.26904064 15.5625 17.5 C8.01598847 15.29166989 0.50146299 13.04871553 -6.9375 10.5 C-9.61994366 9.58805813 -12.30742676 8.69404475 -15 7.8125 C-15.65548828 7.58755859 -16.31097656 7.36261719 -16.98632812 7.13085938 C-22.72518436 5.27433656 -28.08061991 4.54770664 -33.9375 6.5 C-35.07724291 9.91922874 -35.08300582 12.58037282 -35.11108398 16.18701172 C-35.117771 16.86216827 -35.12445801 17.53732483 -35.13134766 18.23294067 C-35.1453861 19.69796835 -35.15728399 21.16301774 -35.16729546 22.62807846 C-35.18372706 24.9485131 -35.20696605 27.26878716 -35.23219299 29.58914185 C-35.30290686 36.18613664 -35.3630508 42.78319695 -35.41430664 49.38037109 C-35.44614541 53.41692217 -35.48743291 57.45328807 -35.53450203 61.48968887 C-35.55049221 63.02620226 -35.56282754 64.56275827 -35.57140923 66.0993309 C-35.58359991 68.25114431 -35.60776484 70.40252453 -35.63452148 72.55419922 C-35.64998268 74.38928543 -35.64998268 74.38928543 -35.66575623 76.26144409 C-35.95082293 79.65877842 -36.43125678 82.99375678 -38.9375 85.5 C-41.875 85.6875 -41.875 85.6875 -44.9375 85.5 C-48.64299054 81.79450946 -48.07520594 76.85367801 -48.13037109 71.84887695 C-48.13854858 71.20096695 -48.14672607 70.55305695 -48.15515137 69.88551331 C-48.17984844 67.75311163 -48.19648275 65.62077592 -48.2109375 63.48828125 C-48.21626118 62.75513388 -48.22158485 62.0219865 -48.22706985 61.26662254 C-48.25373622 57.38422062 -48.27312984 53.5018501 -48.28759766 49.61938477 C-48.30091573 46.42345425 -48.3287371 43.22816542 -48.36962891 40.0324707 C-48.41921816 36.15570711 -48.44375011 32.27952341 -48.45082474 28.40245628 C-48.45749316 26.93417198 -48.47259884 25.46589838 -48.49671555 23.99779701 C-48.64389391 14.4946949 -48.04337823 6.2957144 -41.49447632 -1.13798523 C-29.8839794 -11.71939633 -12.99066783 -4.058151 0 0 Z " fill="#050401" transform="translate(138.9375,87.5)"/>
<path d="M0 0 C4.39793364 2.28354246 6.8735753 4.52331642 9 9 C9.86685783 11.87851252 10.12883392 14.45761412 10.14044189 17.45808411 C10.14900711 18.78900841 10.14900711 18.78900841 10.15774536 20.14682007 C10.15886322 21.11261993 10.15998108 22.0784198 10.16113281 23.07348633 C10.16609772 24.09670486 10.17106262 25.1199234 10.17617798 26.17414856 C10.19078633 29.56011629 10.19759933 32.94603718 10.203125 36.33203125 C10.20887742 38.68609112 10.21463514 41.04015097 10.22039795 43.39421082 C10.23090407 48.33125019 10.23674933 53.26827329 10.24023438 58.20532227 C10.24571909 64.52706835 10.2697485 70.84859906 10.29820633 77.1702776 C10.31684254 82.03363165 10.32203884 86.89693392 10.32357025 91.76032066 C10.32659493 94.0906867 10.33461719 96.42105186 10.34775543 98.75138283 C10.3648365 102.01386469 10.36293043 105.27582147 10.35644531 108.53833008 C10.3656601 109.49805725 10.37487488 110.45778442 10.3843689 111.44659424 C10.3425984 118.16495898 9.4546385 123.08511678 5 128.375 C1.24953559 131.42225233 -2.32601974 131.39610002 -7 131 C-11.44403665 128.69251943 -13.96463544 126.56183727 -16 122 C-16.44754019 118.38563575 -16.41996554 114.79275321 -16.40405273 111.15454102 C-16.41091599 110.06129517 -16.41777924 108.96804932 -16.42485046 107.8416748 C-16.44314713 104.22895306 -16.43927671 100.61666438 -16.43359375 97.00390625 C-16.43815414 94.49193683 -16.44345929 91.97996867 -16.44947815 89.46800232 C-16.45841489 84.20315611 -16.45621346 78.93842228 -16.44604492 73.67358398 C-16.43456571 67.59600218 -16.44863791 61.51886176 -16.4754414 55.44133812 C-16.50029999 49.58456152 -16.50277132 43.72795626 -16.49632454 37.87113762 C-16.49617113 35.38364872 -16.50223141 32.89615139 -16.51461601 30.40869331 C-16.52949347 26.93041275 -16.51887151 23.45310368 -16.50170898 19.97485352 C-16.51137695 18.94764694 -16.52104492 17.92044037 -16.53100586 16.86210632 C-16.46960716 10.9194789 -15.94193163 7.53528927 -12 3 C-8.07324125 -0.18385844 -4.98824428 -0.6125914 0 0 Z " fill="#040301" transform="translate(207,148)"/>
<path d="M0 0 C3.92500436 2.30839774 6.55088018 4.65264053 8 9 C8.11170298 11.71612539 8.16766493 14.40726499 8.17700195 17.12402344 C8.18357315 17.95202454 8.19014435 18.78002563 8.19691467 19.63311768 C8.21663598 22.37520438 8.22830808 25.11723633 8.23828125 27.859375 C8.24235678 28.79668709 8.2464323 29.73399918 8.25063133 30.69971466 C8.27148776 35.66146118 8.28579096 40.62318007 8.29516602 45.58496094 C8.30622555 50.70400163 8.34062145 55.82260706 8.38033772 60.94149399 C8.40651214 64.88267818 8.41485862 68.82375882 8.41844749 72.76502228 C8.42331182 74.65162341 8.43492144 76.53821996 8.45348549 78.42473602 C8.47789317 81.06963862 8.47690902 83.71341715 8.4699707 86.35839844 C8.48278076 87.13268188 8.49559082 87.90696533 8.50878906 88.70471191 C8.45621474 94.22352842 7.13292712 97.43968642 4 102 C0.0882511 104.79852392 -4.37063877 104.65789882 -9 104 C-13.05219484 101.93706444 -15.46064677 100.28199174 -17 96 C-17.20118397 93.15520865 -17.29375439 90.4079559 -17.29052734 87.56298828 C-17.29724457 86.71372772 -17.30396179 85.86446716 -17.31088257 84.98947144 C-17.32987456 82.18302554 -17.33378736 79.37681865 -17.3359375 76.5703125 C-17.34236458 74.61742047 -17.34909287 72.66452941 -17.35610962 70.7116394 C-17.36808538 66.61779549 -17.37179013 62.52403598 -17.37060547 58.43017578 C-17.37040226 53.18884877 -17.39770502 47.94806386 -17.43214989 42.70686531 C-17.45440642 38.67306033 -17.45844339 34.63938607 -17.45738602 30.60552597 C-17.45974383 28.67345181 -17.46857748 26.74137414 -17.48405075 24.8093605 C-17.50368553 22.10445636 -17.49788274 19.40072452 -17.48583984 16.69580078 C-17.49707886 15.90079163 -17.50831787 15.10578247 -17.51989746 14.28668213 C-17.46111749 9.08123213 -16.41643269 6.14606721 -13 2 C-9.0140765 -0.70445303 -4.65074025 -0.91451531 0 0 Z " fill="#010101" transform="translate(173,162)"/>
<path d="M0 0 C4.45775323 2.31460264 6.78393748 4.53107175 9 9 C9.38768005 11.83872986 9.38768005 11.83872986 9.40405273 14.98022461 C9.41673691 16.16172592 9.42942108 17.34322723 9.44248962 18.56053162 C9.43955399 19.82832962 9.43661835 21.09612762 9.43359375 22.40234375 C9.4388356 23.71280167 9.44407745 25.02325958 9.44947815 26.37342834 C9.45839583 29.14317473 9.45600198 31.91263258 9.44604492 34.68237305 C9.43455944 38.22102088 9.45476528 41.75867015 9.48396206 45.29718685 C9.50678663 48.68645777 9.49985479 52.07549791 9.49609375 55.46484375 C9.50732773 56.73061752 9.51856171 57.9963913 9.53013611 59.30052185 C9.44346626 70.24543925 9.44346626 70.24543925 5 75 C0.98868867 77.75628719 -3.30534937 77.529093 -8 77 C-11.28851379 75.71319026 -12.58871768 74.5858131 -14.60571289 71.71289062 C-16.71373577 66.09937076 -16.44766886 60.66766734 -16.43359375 54.71875 C-16.4388356 53.43190308 -16.44407745 52.14505615 -16.44947815 50.81921387 C-16.45838548 48.10252028 -16.45601306 45.38612105 -16.44604492 42.66943359 C-16.43454832 39.1991889 -16.45478748 35.72996078 -16.48396206 32.25984955 C-16.50678418 28.93359674 -16.49985533 25.60757913 -16.49609375 22.28125 C-16.50732773 21.04048706 -16.51856171 19.79972412 -16.53013611 18.5213623 C-16.4436062 7.80855988 -16.4436062 7.80855988 -12 3 C-8.07324125 -0.18385844 -4.98824428 -0.6125914 0 0 Z " fill="#010101" transform="translate(137,175)"/>
<path d="M0 0 C4.02712807 3.3864486 5.58714257 5.79010285 6.15405273 11.08959961 C6.18043803 12.54780887 6.18935746 14.00640718 6.18359375 15.46484375 C6.1888356 16.24259659 6.19407745 17.02034943 6.19947815 17.82167053 C6.20588187 19.46142385 6.20458274 21.1012232 6.19604492 22.7409668 C6.18753761 25.23895743 6.21631126 27.73465702 6.24804688 30.23242188 C6.24965927 31.83072849 6.24908062 33.42903912 6.24609375 35.02734375 C6.26294472 36.13854836 6.26294472 36.13854836 6.28013611 37.27220154 C6.21147206 42.42628044 5.02097477 45.35792742 1.75 49.3125 C-2.70193722 52.28045815 -7.02809146 51.94708039 -12.25 51.3125 C-15.70658479 49.26676614 -17.0285359 47.64469615 -19.25 44.3125 C-19.48231901 41.4815401 -19.60202609 38.7514227 -19.62109375 35.91796875 C-19.63012222 35.09299393 -19.6391507 34.2680191 -19.64845276 33.41804504 C-19.66295768 31.67220692 -19.6718426 29.9263144 -19.67553711 28.18041992 C-19.68741195 25.51972814 -19.73657271 22.86137262 -19.78710938 20.20117188 C-19.79657658 18.50261545 -19.80381019 16.80404482 -19.80859375 15.10546875 C-19.82812607 14.31464401 -19.84765839 13.52381927 -19.86778259 12.70903015 C-19.83454742 8.60419674 -19.47254641 6.08330417 -16.83227539 2.84887695 C-11.70162541 -2.19057872 -6.70455938 -3.48121353 0 0 Z " fill="#030301" transform="translate(105.25,188.6875)"/>
<path d="M0 0 C0.33 0 0.66 0 1 0 C1.1959375 0.81082031 1.391875 1.62164062 1.59375 2.45703125 C4.72176091 14.0387613 9.98520865 22.93882106 20.19140625 29.5625 C25.21839652 32.13542409 30.54175168 33.62260505 36 35 C36 35.33 36 35.66 36 36 C24.12 36 12.24 36 0 36 C0 24.12 0 12.24 0 0 Z " fill="#F6F6F2" transform="translate(0,324)"/>
<path d="M0 0 C11.88 0 23.76 0 36 0 C36 11.88 36 23.76 36 36 C35.67 36 35.34 36 35 36 C34.70609375 34.78376953 34.70609375 34.78376953 34.40625 33.54296875 C31.27823909 21.9612387 26.01479135 13.06117894 15.80859375 6.4375 C10.78160348 3.86457591 5.45824832 2.37739495 0 1 C0 0.67 0 0.34 0 0 Z " fill="#F6F6F2" transform="translate(324,0)"/>
<path d="M0 0 C11.88 0 23.76 0 36 0 C36 0.33 36 0.66 36 1 C35.18917969 1.1959375 34.37835938 1.391875 33.54296875 1.59375 C21.9612387 4.72176091 13.06117894 9.98520865 6.4375 20.19140625 C3.86457591 25.21839652 2.37739495 30.54175168 1 36 C0.67 36 0.34 36 0 36 C0 24.12 0 12.24 0 0 Z " fill="#F6F6F2" transform="translate(0,0)"/>
<path d="M0 0 C0.33 0 0.66 0 1 0 C1 11.88 1 23.76 1 36 C-10.88 36 -22.76 36 -35 36 C-35 35.67 -35 35.34 -35 35 C-33.78376953 34.70609375 -33.78376953 34.70609375 -32.54296875 34.40625 C-20.9612387 31.27823909 -12.06117894 26.01479135 -5.4375 15.80859375 C-2.86457591 10.78160348 -1.37739495 5.45824832 0 0 Z " fill="#F6F6F2" transform="translate(359,324)"/>
<path d="M0 0 C4.43090471 1.20842856 6.98112756 2.51668565 10 6 C6.62972148 6 5.93297304 5.50175992 3.3125 3.5625 C2.68988281 3.11003906 2.06726563 2.65757813 1.42578125 2.19140625 C0.95527344 1.79824219 0.48476563 1.40507813 0 1 C0 0.67 0 0.34 0 0 Z " fill="#E5C518" transform="translate(260,124)"/>
</svg>
