<?xml version="1.0" encoding="UTF-8"?>
<svg version="1.1" xmlns="http://www.w3.org/2000/svg" width="502" height="513">
<path d="M0 0 C18.36612419 13.76762572 28.64792866 37.56979041 40.13330078 56.98022461 C45.58108975 66.18364297 51.08052242 75.3538059 56.63671875 84.4921875 C57.30670898 85.5944165 57.97669922 86.69664551 58.66699219 87.83227539 C60.59086329 90.99192298 62.5190738 94.14886899 64.44921875 97.3046875 C64.9930722 98.19562103 64.9930722 98.19562103 65.5479126 99.10455322 C66.65545096 100.91827513 67.76496664 102.730773 68.875 104.54296875 C69.53540283 105.62231689 70.19580566 106.70166504 70.8762207 107.8137207 C72.22787226 110.15678408 72.22787226 110.15678408 73.44921875 111.3046875 C82.55065869 111.46717954 91.56660474 108.35967607 100.265625 106 C101.91227498 105.55944024 103.55910953 105.11956984 105.20611572 104.68034363 C109.57763078 103.51254479 113.94656425 102.33535368 118.31506729 101.15634537 C122.8154822 99.94363325 127.31837787 98.74020628 131.82104492 97.53588867 C142.03325595 94.80260769 152.24182871 92.05591068 162.44921875 89.3046875 C163.77319331 88.94789612 165.09716791 88.59110493 166.42114258 88.23431396 C168.72627138 87.61302381 171.03137318 86.99163344 173.33644104 86.37011719 C175.35031312 85.82719771 177.36425583 85.28454015 179.37828064 84.7421875 C183.58702492 83.60882145 187.79492764 82.47268379 192.00024414 81.32666016 C208.8436559 76.75331751 225.81447207 72.56918802 242.44921875 80.3046875 C248.13817275 83.90010643 252.78168446 88.66581661 254.44921875 95.3046875 C256.25318803 111.93502928 250.11200915 124.49180046 239.95800781 137.16601562 C236.75826037 140.99931705 233.44278657 144.72675379 230.10888672 148.44335938 C227.43180711 151.44572109 224.81435201 154.49838168 222.19921875 157.5546875 C221.69986816 158.13677979 221.20051758 158.71887207 220.68603516 159.31860352 C217.74621903 162.75520089 214.8604257 166.22930115 212.01171875 169.7421875 C206.85470789 176.09070989 201.46977515 182.23561966 196.10009766 188.40380859 C189.1994243 196.34948188 182.37826418 204.3642437 175.59545898 212.41064453 C173.22970424 215.21390477 170.8498367 218.00332669 168.4453125 220.7734375 C165.92059913 223.68229386 163.41682382 226.60766465 160.93212891 229.55078125 C159.93132208 230.73448165 158.92565879 231.91409063 157.91552734 233.08984375 C156.44636027 234.81104367 155.00743566 236.55351279 153.57421875 238.3046875 C152.73117187 239.3153125 151.888125 240.3259375 151.01953125 241.3671875 C149.08564759 244.19107168 149.08564759 244.19107168 150.16015625 247.10351562 C151.45847855 250.32768268 152.90287911 253.37606641 154.50390625 256.4609375 C154.80111572 257.03579895 155.0983252 257.6106604 155.40454102 258.20294189 C156.37315681 260.07262627 157.34842835 261.93873887 158.32421875 263.8046875 C159.0081016 265.12005151 159.69185659 266.435482 160.37548828 267.75097656 C164.72558757 276.10209073 169.19397017 284.38178518 173.74316406 292.6262207 C179.11642956 302.41986172 184.19537995 312.36456294 189.28344727 322.30834961 C192.79163565 329.16197358 196.32947929 335.99135728 199.99414062 342.76318359 C207.70844961 357.0893329 212.08450402 370.20622816 208.7890625 386.5859375 C205.48363959 396.77408084 198.45649517 404.67513974 189.44921875 410.3046875 C175.65612601 416.97811031 161.17284314 417.01407355 146.5625 412.96484375 C145.59876465 412.70537964 144.6350293 412.44591553 143.64208984 412.17858887 C129.60476067 408.33520217 115.69009618 404.04693014 101.77636719 399.78222656 C97.73737704 398.54438898 93.69534574 397.31682208 89.65241241 396.0919342 C86.47814657 395.12871493 83.30577816 394.15936038 80.13389587 393.18832397 C78.645309 392.73351039 77.15612492 392.28064563 75.66627502 391.82998657 C66.79154241 389.14187582 58.19371919 386.12626836 49.64196777 382.5324707 C46.85657448 381.46133762 44.4129181 380.6196207 41.44921875 380.3046875 C39.37237769 381.8332318 39.37237769 381.8332318 37.57421875 384.2421875 C36.80078125 385.16128906 36.02734375 386.08039063 35.23046875 387.02734375 C34.79605469 387.54699707 34.36164063 388.06665039 33.9140625 388.60205078 C31.07937511 391.89690243 28.06170402 395.02396181 25.07421875 398.1796875 C19.7573114 403.82902499 14.48908699 409.51734294 9.2578125 415.24609375 C6.01365573 418.78931575 2.731008 422.29635435 -0.55078125 425.8046875 C-4.74059339 430.28403721 -8.91287016 434.77732595 -13.05078125 439.3046875 C-14.40174753 440.77793102 -15.75271998 442.25116892 -17.10400391 443.72412109 C-18.11340443 444.82686476 -19.12073113 445.93150873 -20.12646484 447.03759766 C-28.61304128 456.36056139 -37.4591591 465.14256429 -46.75976562 473.65332031 C-48.32758082 475.09889038 -49.87101442 476.57081276 -51.41015625 478.046875 C-61.09248725 487.23041925 -79.29689711 504.3046875 -93.55078125 504.3046875 C-93.55078125 504.9646875 -93.55078125 505.6246875 -93.55078125 506.3046875 C-105.49792288 506.8786605 -105.49792288 506.8786605 -110.55078125 503.3046875 C-125.80587318 485.70037089 -124.70812785 455.7218411 -124.71875 433.703125 C-124.72197941 432.09778822 -124.7253446 430.49245171 -124.72883606 428.88711548 C-124.73479563 425.52353235 -124.73667991 422.15997475 -124.73608398 418.79638672 C-124.73600374 415.42458614 -124.74278593 412.05292437 -124.7565918 408.68115234 C-124.83383491 389.55387564 -124.58470454 370.53193027 -123.25273132 351.44515991 C-121.29369067 337.95341555 -121.29369067 337.95341555 -124.48046875 325.5859375 C-125.45242187 324.998125 -126.424375 324.4103125 -127.42578125 323.8046875 C-127.9990918 323.45398193 -128.57240234 323.10327637 -129.16308594 322.74194336 C-142.6582132 314.83672626 -157.48829487 309.07999078 -171.79296875 302.81640625 C-172.68773926 302.42437515 -173.58250977 302.03234406 -174.50439453 301.62843323 C-178.96062435 299.67696396 -183.41925821 297.73148035 -187.88378906 295.79907227 C-195.80986796 292.3573384 -203.68293185 288.84723811 -211.421875 285 C-212.0588028 284.68464294 -212.69573059 284.36928589 -213.35195923 284.04437256 C-227.64582754 276.81860531 -238.71328617 266.39962427 -244.55078125 251.3046875 C-247.40327236 242.37955977 -247.11296151 233.13669781 -243.3203125 224.50390625 C-232.82749341 205.96565482 -211.96148538 199.17038462 -192.71484375 193.0390625 C-191.50068787 192.64797302 -190.28653198 192.25688354 -189.0355835 191.85394287 C-186.43314816 191.01593372 -183.82965976 190.18131382 -181.22528076 189.34936523 C-177.81840714 188.26099947 -174.41349189 187.16665168 -171.00915718 186.07037354 C-157.20347292 181.62546073 -143.38304369 177.23187259 -129.52643204 172.94818878 C-126.3832751 171.9759192 -123.24135943 170.99964766 -120.09912109 170.02441406 C-115.39027663 168.56370286 -110.67654811 167.12040169 -105.95947266 165.68652344 C-103.83088594 165.02854043 -101.70245855 164.37004172 -99.57421875 163.7109375 C-98.61046326 163.42321472 -97.64670776 163.13549194 -96.65374756 162.83905029 C-95.77075989 162.56280823 -94.88777222 162.28656616 -93.97802734 162.00195312 C-93.21461029 161.76915649 -92.45119324 161.53635986 -91.66464233 161.29650879 C-88.78291171 159.94440396 -87.46109768 158.90468778 -85.55078125 156.3046875 C-84.50534793 152.9840314 -83.97043375 149.60679974 -83.41601562 146.17456055 C-83.23653885 145.14468521 -83.05706207 144.11480988 -82.87214661 143.0537262 C-82.28146866 139.64364923 -81.71326039 136.23020618 -81.14453125 132.81640625 C-80.73543814 130.43639673 -80.32472866 128.05666452 -79.91247559 125.67720032 C-78.8285229 119.40029837 -77.76261038 113.12047638 -76.70159912 106.83966064 C-75.0077317 96.82593836 -73.29002686 86.81631531 -71.56599426 76.80774879 C-70.96988239 73.32890413 -70.38344509 69.84853358 -69.79821777 66.36784363 C-65.59203139 41.60483356 -60.69429556 17.34683756 -40.55078125 0.3046875 C-28.08366683 -8.16905433 -12.60266625 -8.37604465 0 0 Z M-17.55078125 75.3046875 C-17.65716604 75.90821895 -17.76355083 76.51175039 -17.87315941 77.13357067 C-20.46302802 91.8239762 -23.05886583 106.5133175 -25.6613369 121.20149517 C-26.91973219 128.30463308 -28.17611058 135.40811667 -29.42773438 142.51245117 C-30.51875183 148.70513895 -31.61356054 154.89714241 -32.7129122 161.08835632 C-33.29478664 164.36606326 -33.87420038 167.64417428 -34.45020676 170.92291832 C-35.09380648 174.58452789 -35.74409997 178.24488904 -36.39599609 181.9050293 C-36.58517105 182.99044006 -36.77434601 184.07585083 -36.96925354 185.19415283 C-37.1487001 186.19389633 -37.32814667 187.19363983 -37.51303101 188.22367859 C-37.66604864 189.0892422 -37.81906628 189.95480581 -37.97672081 190.84659863 C-38.59624144 193.49934504 -39.37516449 195.84599436 -40.55078125 198.3046875 C-42.90258789 199.59643555 -42.90258789 199.59643555 -45.9609375 200.56640625 C-47.74419434 201.14769287 -47.74419434 201.14769287 -49.56347656 201.74072266 C-50.91329496 202.1582544 -52.26323477 202.57539382 -53.61328125 202.9921875 C-55.04316411 203.44938323 -56.4725081 203.90826703 -57.90136719 204.36865234 C-61.18774588 205.4224646 -64.47829204 206.46191567 -67.77197266 207.49267578 C-73.11119055 209.16382661 -78.44342438 210.85646274 -83.77490234 212.55212402 C-106.47439358 219.77142907 -129.18809876 226.95016501 -151.96191406 233.93212891 C-152.96963867 234.2419873 -153.97736328 234.5518457 -155.015625 234.87109375 C-155.85730225 235.12834229 -156.69897949 235.38559082 -157.56616211 235.65063477 C-159.59323151 236.26558536 -159.59323151 236.26558536 -161.55078125 237.3046875 C-161.55078125 237.9646875 -161.55078125 238.6246875 -161.55078125 239.3046875 C-160.63798904 239.66641052 -159.72519684 240.02813354 -158.78474426 240.40081787 C-150.03676779 243.867817 -141.28972809 247.33717068 -132.54352283 250.80863571 C-128.05069855 252.59180557 -123.55758598 254.37424022 -119.0637207 256.15478516 C-60.2056043 279.47727598 -60.2056043 279.47727598 -52.55078125 283.3046875 C-53.91275229 297.99165534 -55.663483 312.61423876 -57.54018021 327.24364662 C-58.03880961 331.13238942 -58.53381505 335.02158448 -59.02767944 338.91093445 C-60.34139329 349.25151924 -61.66082004 359.59137321 -62.98312604 369.93086261 C-63.94129839 377.423302 -64.89548395 384.91623466 -65.84592819 392.40965843 C-66.17359133 394.98584302 -66.50292304 397.56181596 -66.83397293 400.13756752 C-67.2951176 403.72574307 -67.75092126 407.31456044 -68.20556641 410.90356445 C-68.34268539 411.95971451 -68.47980438 413.01586456 -68.62107849 414.10401917 C-69.26318389 419.21705639 -69.70621803 424.15138004 -69.55078125 429.3046875 C-68.42252585 428.1764321 -67.29463169 427.04781436 -66.16796875 425.91796875 C-65.01160676 424.7643999 -63.84948381 423.61659441 -62.68359375 422.47265625 C-58.81505202 418.65679894 -55.13984311 414.75572962 -51.59765625 410.63671875 C-48.96911384 407.64198627 -46.26149839 404.72494679 -43.55078125 401.8046875 C-39.76424656 397.7218859 -36.03310306 393.60698143 -32.390625 389.39453125 C-29.5109322 386.12354261 -26.54723872 382.92965659 -23.59521484 379.72412109 C-21.06323301 376.96977653 -18.56035324 374.1971754 -16.11328125 371.3671875 C-12.48933481 367.18436739 -8.71822379 363.14196943 -4.95556641 359.08447266 C-1.70462613 355.57256006 1.47906188 352.01467332 4.609375 348.39453125 C7.01592205 345.66097993 9.48233842 342.98363008 11.94921875 340.3046875 C17.26773902 334.52525282 22.4467717 328.64211432 27.55737305 322.67895508 C28.09863327 322.0474202 28.63989349 321.41588531 29.19755554 320.76521301 C29.6106044 320.28323959 30.02365326 319.80126617 30.44921875 319.3046875 C44.953396 322.97717772 59.37321219 326.92717395 73.78125 330.95703125 C75.61594186 331.46950476 77.45064859 331.98192503 79.28536987 332.49429321 C86.89165747 334.61927062 94.4975463 336.74561365 102.1003418 338.88305664 C106.80650108 340.20587307 111.51455177 341.5217508 116.22394371 342.83300972 C118.00653731 343.33079068 119.78839743 343.83120612 121.56949806 344.3343029 C124.03388784 345.03015036 126.50057761 345.71716044 128.96801758 346.40209961 C129.70080429 346.6113356 130.433591 346.82057159 131.18858337 347.03614807 C134.87164588 348.24272373 134.87164588 348.24272373 138.44921875 347.3046875 C132.31629117 335.40609139 126.1687238 323.52434971 119.69921875 311.8046875 C114.16573177 301.77020638 108.92696657 291.59257391 103.71789551 281.38723755 C99.11478092 272.36957866 94.48350867 263.39126509 89.22802734 254.72949219 C86.52617073 250.10913605 85.5249222 246.59311447 85.44921875 241.3046875 C86.64453125 238.86328125 86.64453125 238.86328125 88.57421875 236.7421875 C89.31285156 235.90171875 90.05148437 235.06125 90.8125 234.1953125 C91.68261719 233.24140625 92.55273438 232.2875 93.44921875 231.3046875 C95.00886471 229.51430644 96.55670314 227.71406929 98.10522461 225.9140625 C99.78055514 223.9703334 101.46545269 222.0352624 103.15234375 220.1015625 C106.13627805 216.67402356 109.0829642 213.21691778 112.01171875 209.7421875 C115.80330021 205.24481083 119.6165023 200.7670689 123.44921875 196.3046875 C127.30060813 191.8197523 131.13554975 187.32174214 134.94921875 182.8046875 C138.76288851 178.28763197 142.59792572 173.78970624 146.44921875 169.3046875 C150.44431965 164.65140977 154.42538537 159.98675595 158.38671875 155.3046875 C159.04124023 154.53125 159.04124023 154.53125 159.70898438 153.7421875 C162.6381187 150.27597 165.54707493 146.79349009 168.44921875 143.3046875 C168.11921875 142.6446875 167.78921875 141.9846875 167.44921875 141.3046875 C156.03311429 144.31218215 144.61721356 147.32044887 133.20155525 150.32963657 C126.86012704 152.001219 120.5185493 153.67223252 114.17685318 155.34279823 C110.08800297 156.42010366 105.99934815 157.49814966 101.91069794 158.57621384 C98.90749708 159.36767674 95.90398556 160.15795267 92.90045166 160.94815063 C84.57217571 163.14161676 76.24746657 165.34277724 67.94824219 167.64404297 C66.7359494 167.97846909 65.52365662 168.3128952 64.27462769 168.65745544 C62.15057404 169.2466298 60.02851555 169.84307964 57.90921021 170.44911194 C48.41300536 173.08315856 48.41300536 173.08315856 43.44921875 172.3046875 C41.39550781 170.2421875 41.39550781 170.2421875 39.71484375 167.3046875 C39.06837891 166.20640625 38.42191406 165.108125 37.75585938 163.9765625 C37.07003396 162.75276022 36.38449574 161.52879696 35.69921875 160.3046875 C34.96417286 159.03755984 34.22648629 157.77196077 33.48632812 156.5078125 C31.92145765 153.82747025 30.37077404 151.1396204 28.83007812 148.4453125 C25.34066846 142.35585224 21.73537673 136.33535103 18.14157104 130.30715942 C16.94722365 128.30133687 15.75634086 126.29349983 14.56665039 124.28491211 C9.49633658 115.72555275 4.39163915 107.18780617 -0.76464844 98.67993164 C-1.48390312 97.49316142 -2.20251549 96.30600162 -2.92041016 95.1184082 C-6.18875482 89.71450627 -9.48521258 84.3283941 -12.90625 79.01953125 C-13.3705542 78.29757568 -13.8348584 77.57562012 -14.31323242 76.83178711 C-14.72162354 76.32784424 -15.13001465 75.82390137 -15.55078125 75.3046875 C-16.21078125 75.3046875 -16.87078125 75.3046875 -17.55078125 75.3046875 Z " fill="#E2591B" transform="translate(247.55078125,6.6953125)"/>
</svg>
